<mxfile host="app.diagrams.net" agent="Mozilla/5.0 (Windows NT 10.0; Win64; x64) AppleWebKit/537.36 (KHTML, like Gecko) Chrome/128.0.0.0 YaBrowser/24.10.0.0 Safari/537.36" version="25.0.1" pages="2">
  <diagram name="Conceptual Model" id="0">
    <mxGraphModel dx="1779" dy="320" grid="0" gridSize="10" guides="1" tooltips="1" connect="1" arrows="1" fold="1" page="1" pageScale="1" pageWidth="1169" pageHeight="827" math="0" shadow="0">
      <root>
        <mxCell id="0" />
        <mxCell id="1" parent="0" />
        <mxCell id="75tlLE4KtP8xG6oFHGSJ-47" style="edgeStyle=orthogonalEdgeStyle;rounded=0;orthogonalLoop=1;jettySize=auto;html=1;entryX=0.5;entryY=0;entryDx=0;entryDy=0;exitX=0;exitY=0.5;exitDx=0;exitDy=0;" parent="1" source="75tlLE4KtP8xG6oFHGSJ-44" target="75tlLE4KtP8xG6oFHGSJ-45" edge="1">
          <mxGeometry relative="1" as="geometry">
            <mxPoint x="329" y="112" as="targetPoint" />
          </mxGeometry>
        </mxCell>
        <mxCell id="75tlLE4KtP8xG6oFHGSJ-44" value="Пользователь" style="shape=rectangle;whiteSpace=wrap;html=1;" parent="1" vertex="1">
          <mxGeometry x="389" y="32" width="140" height="60" as="geometry" />
        </mxCell>
        <mxCell id="75tlLE4KtP8xG6oFHGSJ-79" style="edgeStyle=orthogonalEdgeStyle;rounded=0;orthogonalLoop=1;jettySize=auto;html=1;startArrow=ERone;startFill=0;endArrow=ERone;endFill=0;entryX=0;entryY=0.5;entryDx=0;entryDy=0;" parent="1" target="75tlLE4KtP8xG6oFHGSJ-51" edge="1">
          <mxGeometry relative="1" as="geometry">
            <mxPoint x="98.9975438596491" y="171.98" as="sourcePoint" />
            <mxPoint x="298.9799999999998" y="211.98" as="targetPoint" />
            <Array as="points">
              <mxPoint x="99" y="212" />
            </Array>
          </mxGeometry>
        </mxCell>
        <mxCell id="75tlLE4KtP8xG6oFHGSJ-80" value="создает/редактирует/удаляет" style="edgeLabel;html=1;align=center;verticalAlign=middle;resizable=0;points=[];" parent="75tlLE4KtP8xG6oFHGSJ-79" vertex="1" connectable="0">
          <mxGeometry x="-0.3444" y="2" relative="1" as="geometry">
            <mxPoint x="58" y="2" as="offset" />
          </mxGeometry>
        </mxCell>
        <mxCell id="75tlLE4KtP8xG6oFHGSJ-86" style="edgeStyle=orthogonalEdgeStyle;rounded=0;orthogonalLoop=1;jettySize=auto;html=1;startArrow=ERone;startFill=0;endArrow=ERoneToMany;endFill=0;" parent="1" source="75tlLE4KtP8xG6oFHGSJ-45" target="75tlLE4KtP8xG6oFHGSJ-85" edge="1">
          <mxGeometry relative="1" as="geometry" />
        </mxCell>
        <mxCell id="75tlLE4KtP8xG6oFHGSJ-98" style="edgeStyle=orthogonalEdgeStyle;rounded=0;orthogonalLoop=1;jettySize=auto;html=1;exitX=0.345;exitY=1.013;exitDx=0;exitDy=0;startArrow=ERone;startFill=0;endArrow=ERone;endFill=0;exitPerimeter=0;" parent="1" source="75tlLE4KtP8xG6oFHGSJ-45" target="75tlLE4KtP8xG6oFHGSJ-93" edge="1">
          <mxGeometry relative="1" as="geometry">
            <mxPoint x="74" y="172" as="sourcePoint" />
            <mxPoint x="69" y="512" as="targetPoint" />
            <Array as="points">
              <mxPoint x="40" y="430" />
              <mxPoint x="40" y="430" />
            </Array>
          </mxGeometry>
        </mxCell>
        <mxCell id="75tlLE4KtP8xG6oFHGSJ-99" value="видит" style="edgeLabel;html=1;align=center;verticalAlign=middle;resizable=0;points=[];" parent="75tlLE4KtP8xG6oFHGSJ-98" vertex="1" connectable="0">
          <mxGeometry x="0.6902" y="1" relative="1" as="geometry">
            <mxPoint x="-1" y="-52" as="offset" />
          </mxGeometry>
        </mxCell>
        <mxCell id="75tlLE4KtP8xG6oFHGSJ-119" style="edgeStyle=orthogonalEdgeStyle;rounded=0;orthogonalLoop=1;jettySize=auto;html=1;entryX=0;entryY=0.5;entryDx=0;entryDy=0;startArrow=ERone;startFill=0;endArrow=ERzeroToMany;endFill=0;" parent="1" source="75tlLE4KtP8xG6oFHGSJ-45" target="75tlLE4KtP8xG6oFHGSJ-116" edge="1">
          <mxGeometry relative="1" as="geometry">
            <Array as="points">
              <mxPoint x="70" y="402" />
            </Array>
          </mxGeometry>
        </mxCell>
        <mxCell id="75tlLE4KtP8xG6oFHGSJ-120" value="имеет" style="edgeLabel;html=1;align=center;verticalAlign=middle;resizable=0;points=[];" parent="75tlLE4KtP8xG6oFHGSJ-119" vertex="1" connectable="0">
          <mxGeometry x="0.0452" y="2" relative="1" as="geometry">
            <mxPoint as="offset" />
          </mxGeometry>
        </mxCell>
        <mxCell id="75tlLE4KtP8xG6oFHGSJ-128" style="edgeStyle=orthogonalEdgeStyle;rounded=0;orthogonalLoop=1;jettySize=auto;html=1;entryX=0;entryY=0.5;entryDx=0;entryDy=0;startArrow=ERmandOne;startFill=0;endArrow=ERzeroToMany;endFill=0;" parent="1" source="75tlLE4KtP8xG6oFHGSJ-45" target="75tlLE4KtP8xG6oFHGSJ-123" edge="1">
          <mxGeometry relative="1" as="geometry">
            <Array as="points">
              <mxPoint x="9" y="622" />
            </Array>
          </mxGeometry>
        </mxCell>
        <mxCell id="75tlLE4KtP8xG6oFHGSJ-129" value="получать" style="edgeLabel;html=1;align=center;verticalAlign=middle;resizable=0;points=[];" parent="75tlLE4KtP8xG6oFHGSJ-128" vertex="1" connectable="0">
          <mxGeometry x="0.2454" y="-1" relative="1" as="geometry">
            <mxPoint x="118" y="-1" as="offset" />
          </mxGeometry>
        </mxCell>
        <mxCell id="75tlLE4KtP8xG6oFHGSJ-136" style="edgeStyle=orthogonalEdgeStyle;rounded=0;orthogonalLoop=1;jettySize=auto;html=1;entryX=0;entryY=0.5;entryDx=0;entryDy=0;exitX=0.75;exitY=0;exitDx=0;exitDy=0;startArrow=ERone;startFill=0;endArrow=ERzeroToMany;endFill=0;" parent="1" source="75tlLE4KtP8xG6oFHGSJ-45" target="75tlLE4KtP8xG6oFHGSJ-135" edge="1">
          <mxGeometry relative="1" as="geometry">
            <Array as="points">
              <mxPoint x="89" y="80" />
              <mxPoint x="370" y="80" />
              <mxPoint x="370" y="135" />
            </Array>
          </mxGeometry>
        </mxCell>
        <mxCell id="75tlLE4KtP8xG6oFHGSJ-137" value="ставить/ просматривать" style="edgeLabel;html=1;align=center;verticalAlign=middle;resizable=0;points=[];" parent="75tlLE4KtP8xG6oFHGSJ-136" vertex="1" connectable="0">
          <mxGeometry x="-0.172" y="-3" relative="1" as="geometry">
            <mxPoint x="14" y="-3" as="offset" />
          </mxGeometry>
        </mxCell>
        <mxCell id="75tlLE4KtP8xG6oFHGSJ-45" value="Опекун" style="shape=rectangle;whiteSpace=wrap;html=1;" parent="1" vertex="1">
          <mxGeometry x="-1" y="112" width="120" height="60" as="geometry" />
        </mxCell>
        <mxCell id="75tlLE4KtP8xG6oFHGSJ-82" style="edgeStyle=orthogonalEdgeStyle;rounded=0;orthogonalLoop=1;jettySize=auto;html=1;startArrow=ERone;startFill=0;endArrow=ERoneToMany;endFill=0;" parent="1" source="75tlLE4KtP8xG6oFHGSJ-46" target="75tlLE4KtP8xG6oFHGSJ-81" edge="1">
          <mxGeometry relative="1" as="geometry">
            <Array as="points" />
          </mxGeometry>
        </mxCell>
        <mxCell id="75tlLE4KtP8xG6oFHGSJ-91" style="edgeStyle=orthogonalEdgeStyle;rounded=0;orthogonalLoop=1;jettySize=auto;html=1;startArrow=ERone;startFill=0;endArrow=ERoneToMany;endFill=0;" parent="1" edge="1">
          <mxGeometry relative="1" as="geometry">
            <mxPoint x="959" y="142" as="sourcePoint" />
            <mxPoint x="1049" y="142" as="targetPoint" />
          </mxGeometry>
        </mxCell>
        <mxCell id="75tlLE4KtP8xG6oFHGSJ-103" style="edgeStyle=orthogonalEdgeStyle;rounded=0;orthogonalLoop=1;jettySize=auto;html=1;exitX=0;exitY=0.5;exitDx=0;exitDy=0;endArrow=ERone;endFill=0;startArrow=ERone;startFill=0;" parent="1" source="75tlLE4KtP8xG6oFHGSJ-46" target="75tlLE4KtP8xG6oFHGSJ-102" edge="1">
          <mxGeometry relative="1" as="geometry">
            <Array as="points">
              <mxPoint x="709" y="142" />
            </Array>
          </mxGeometry>
        </mxCell>
        <mxCell id="75tlLE4KtP8xG6oFHGSJ-104" value="видит" style="edgeLabel;html=1;align=center;verticalAlign=middle;resizable=0;points=[];" parent="75tlLE4KtP8xG6oFHGSJ-103" vertex="1" connectable="0">
          <mxGeometry x="-0.0941" y="-2" relative="1" as="geometry">
            <mxPoint x="13" y="2" as="offset" />
          </mxGeometry>
        </mxCell>
        <mxCell id="75tlLE4KtP8xG6oFHGSJ-121" style="edgeStyle=orthogonalEdgeStyle;rounded=0;orthogonalLoop=1;jettySize=auto;html=1;entryX=1;entryY=0.5;entryDx=0;entryDy=0;startArrow=ERone;startFill=0;endArrow=ERzeroToMany;endFill=0;" parent="1" source="75tlLE4KtP8xG6oFHGSJ-46" target="75tlLE4KtP8xG6oFHGSJ-116" edge="1">
          <mxGeometry relative="1" as="geometry">
            <Array as="points">
              <mxPoint x="939" y="402" />
            </Array>
          </mxGeometry>
        </mxCell>
        <mxCell id="75tlLE4KtP8xG6oFHGSJ-122" value="имеет" style="edgeLabel;html=1;align=center;verticalAlign=middle;resizable=0;points=[];" parent="75tlLE4KtP8xG6oFHGSJ-121" vertex="1" connectable="0">
          <mxGeometry x="0.5855" y="2" relative="1" as="geometry">
            <mxPoint as="offset" />
          </mxGeometry>
        </mxCell>
        <mxCell id="75tlLE4KtP8xG6oFHGSJ-125" style="edgeStyle=orthogonalEdgeStyle;rounded=0;orthogonalLoop=1;jettySize=auto;html=1;entryX=1;entryY=0.5;entryDx=0;entryDy=0;exitX=0.923;exitY=1.005;exitDx=0;exitDy=0;exitPerimeter=0;startArrow=ERone;startFill=0;endArrow=ERzeroToMany;endFill=0;" parent="1" source="75tlLE4KtP8xG6oFHGSJ-46" target="75tlLE4KtP8xG6oFHGSJ-123" edge="1">
          <mxGeometry relative="1" as="geometry">
            <Array as="points">
              <mxPoint x="950" y="622" />
            </Array>
          </mxGeometry>
        </mxCell>
        <mxCell id="75tlLE4KtP8xG6oFHGSJ-127" value="выполняет" style="edgeLabel;html=1;align=center;verticalAlign=middle;resizable=0;points=[];" parent="75tlLE4KtP8xG6oFHGSJ-125" vertex="1" connectable="0">
          <mxGeometry x="-0.1132" relative="1" as="geometry">
            <mxPoint x="-141" y="95" as="offset" />
          </mxGeometry>
        </mxCell>
        <mxCell id="75tlLE4KtP8xG6oFHGSJ-138" style="edgeStyle=orthogonalEdgeStyle;rounded=0;orthogonalLoop=1;jettySize=auto;html=1;startArrow=ERone;startFill=0;endArrow=ERzeroToMany;endFill=0;" parent="1" source="75tlLE4KtP8xG6oFHGSJ-46" target="75tlLE4KtP8xG6oFHGSJ-135" edge="1">
          <mxGeometry relative="1" as="geometry">
            <Array as="points">
              <mxPoint x="690" y="120" />
              <mxPoint x="690" y="120" />
            </Array>
          </mxGeometry>
        </mxCell>
        <mxCell id="75tlLE4KtP8xG6oFHGSJ-139" value="ставить/просматривать" style="edgeLabel;html=1;align=center;verticalAlign=middle;resizable=0;points=[];" parent="75tlLE4KtP8xG6oFHGSJ-138" vertex="1" connectable="0">
          <mxGeometry x="0.1947" y="2" relative="1" as="geometry">
            <mxPoint as="offset" />
          </mxGeometry>
        </mxCell>
        <mxCell id="75tlLE4KtP8xG6oFHGSJ-46" value="Владелец" style="shape=rectangle;whiteSpace=wrap;html=1;" parent="1" vertex="1">
          <mxGeometry x="839" y="112" width="120" height="60" as="geometry" />
        </mxCell>
        <mxCell id="75tlLE4KtP8xG6oFHGSJ-48" value="является" style="text;html=1;align=center;verticalAlign=middle;resizable=0;points=[];autosize=1;strokeColor=none;fillColor=none;" parent="1" vertex="1">
          <mxGeometry x="314" y="30" width="70" height="30" as="geometry" />
        </mxCell>
        <mxCell id="75tlLE4KtP8xG6oFHGSJ-49" style="edgeStyle=orthogonalEdgeStyle;rounded=0;orthogonalLoop=1;jettySize=auto;html=1;exitX=1;exitY=0.5;exitDx=0;exitDy=0;entryX=0.5;entryY=0;entryDx=0;entryDy=0;" parent="1" source="75tlLE4KtP8xG6oFHGSJ-44" target="75tlLE4KtP8xG6oFHGSJ-46" edge="1">
          <mxGeometry relative="1" as="geometry">
            <mxPoint x="339" y="122" as="targetPoint" />
            <mxPoint x="399" y="72" as="sourcePoint" />
          </mxGeometry>
        </mxCell>
        <mxCell id="75tlLE4KtP8xG6oFHGSJ-50" value="является" style="text;html=1;align=center;verticalAlign=middle;resizable=0;points=[];autosize=1;strokeColor=none;fillColor=none;" parent="1" vertex="1">
          <mxGeometry x="539" y="32" width="70" height="30" as="geometry" />
        </mxCell>
        <mxCell id="75tlLE4KtP8xG6oFHGSJ-51" value="Карточка опекуна" style="shape=rectangle;whiteSpace=wrap;html=1;" parent="1" vertex="1">
          <mxGeometry x="309" y="182" width="140" height="60" as="geometry" />
        </mxCell>
        <mxCell id="75tlLE4KtP8xG6oFHGSJ-114" style="edgeStyle=orthogonalEdgeStyle;rounded=0;orthogonalLoop=1;jettySize=auto;html=1;entryX=1;entryY=0.5;entryDx=0;entryDy=0;startArrow=ERone;startFill=0;endArrow=ERoneToMany;endFill=0;" parent="1" source="75tlLE4KtP8xG6oFHGSJ-81" target="75tlLE4KtP8xG6oFHGSJ-111" edge="1">
          <mxGeometry relative="1" as="geometry" />
        </mxCell>
        <mxCell id="75tlLE4KtP8xG6oFHGSJ-115" value="инициирует" style="edgeLabel;html=1;align=center;verticalAlign=middle;resizable=0;points=[];" parent="75tlLE4KtP8xG6oFHGSJ-114" vertex="1" connectable="0">
          <mxGeometry x="0.0471" y="-3" relative="1" as="geometry">
            <mxPoint x="3" as="offset" />
          </mxGeometry>
        </mxCell>
        <mxCell id="75tlLE4KtP8xG6oFHGSJ-81" value="Карточка животного" style="shape=rectangle;whiteSpace=wrap;html=1;" parent="1" vertex="1">
          <mxGeometry x="789" y="232" width="140" height="60" as="geometry" />
        </mxCell>
        <mxCell id="75tlLE4KtP8xG6oFHGSJ-85" value="Локация" style="shape=rectangle;whiteSpace=wrap;html=1;" parent="1" vertex="1">
          <mxGeometry x="199" y="112" width="120" height="60" as="geometry" />
        </mxCell>
        <mxCell id="75tlLE4KtP8xG6oFHGSJ-87" value="делится" style="text;html=1;align=center;verticalAlign=middle;resizable=0;points=[];autosize=1;strokeColor=none;fillColor=none;" parent="1" vertex="1">
          <mxGeometry x="129" y="120" width="70" height="30" as="geometry" />
        </mxCell>
        <mxCell id="75tlLE4KtP8xG6oFHGSJ-92" value="делится" style="text;html=1;align=center;verticalAlign=middle;resizable=0;points=[];autosize=1;strokeColor=none;fillColor=none;" parent="1" vertex="1">
          <mxGeometry x="969" y="112" width="70" height="30" as="geometry" />
        </mxCell>
        <mxCell id="75tlLE4KtP8xG6oFHGSJ-106" style="edgeStyle=orthogonalEdgeStyle;rounded=0;orthogonalLoop=1;jettySize=auto;html=1;entryX=0.5;entryY=1;entryDx=0;entryDy=0;startArrow=ERone;startFill=0;endArrow=ERmany;endFill=0;" parent="1" source="75tlLE4KtP8xG6oFHGSJ-93" target="75tlLE4KtP8xG6oFHGSJ-81" edge="1">
          <mxGeometry relative="1" as="geometry">
            <Array as="points">
              <mxPoint x="859" y="552" />
            </Array>
          </mxGeometry>
        </mxCell>
        <mxCell id="75tlLE4KtP8xG6oFHGSJ-107" value="содержкит" style="edgeLabel;html=1;align=center;verticalAlign=middle;resizable=0;points=[];" parent="75tlLE4KtP8xG6oFHGSJ-106" vertex="1" connectable="0">
          <mxGeometry x="-0.0998" y="-2" relative="1" as="geometry">
            <mxPoint as="offset" />
          </mxGeometry>
        </mxCell>
        <mxCell id="75tlLE4KtP8xG6oFHGSJ-93" value="Лента животных" style="shape=rectangle;whiteSpace=wrap;html=1;" parent="1" vertex="1">
          <mxGeometry x="19" y="512" width="120" height="60" as="geometry" />
        </mxCell>
        <mxCell id="75tlLE4KtP8xG6oFHGSJ-90" value="Локация" style="shape=rectangle;whiteSpace=wrap;html=1;" parent="1" vertex="1">
          <mxGeometry x="1049" y="112" width="120" height="60" as="geometry" />
        </mxCell>
        <mxCell id="75tlLE4KtP8xG6oFHGSJ-109" style="edgeStyle=orthogonalEdgeStyle;rounded=0;orthogonalLoop=1;jettySize=auto;html=1;startArrow=ERone;startFill=0;endArrow=ERmany;endFill=0;" parent="1" source="75tlLE4KtP8xG6oFHGSJ-102" edge="1">
          <mxGeometry relative="1" as="geometry">
            <mxPoint x="449" y="202" as="targetPoint" />
            <Array as="points">
              <mxPoint x="449" y="202" />
            </Array>
          </mxGeometry>
        </mxCell>
        <mxCell id="75tlLE4KtP8xG6oFHGSJ-102" value="Лента опекунов" style="shape=rectangle;whiteSpace=wrap;html=1;" parent="1" vertex="1">
          <mxGeometry x="639" y="172" width="140" height="60" as="geometry" />
        </mxCell>
        <mxCell id="75tlLE4KtP8xG6oFHGSJ-110" value="содержит" style="text;html=1;align=center;verticalAlign=middle;resizable=0;points=[];autosize=1;strokeColor=none;fillColor=none;" parent="1" vertex="1">
          <mxGeometry x="499" y="182" width="80" height="30" as="geometry" />
        </mxCell>
        <mxCell id="75tlLE4KtP8xG6oFHGSJ-117" style="edgeStyle=orthogonalEdgeStyle;rounded=0;orthogonalLoop=1;jettySize=auto;html=1;startArrow=ERone;startFill=0;endArrow=ERone;endFill=0;" parent="1" source="75tlLE4KtP8xG6oFHGSJ-111" target="75tlLE4KtP8xG6oFHGSJ-116" edge="1">
          <mxGeometry relative="1" as="geometry" />
        </mxCell>
        <mxCell id="75tlLE4KtP8xG6oFHGSJ-118" value="имеет" style="edgeLabel;html=1;align=center;verticalAlign=middle;resizable=0;points=[];" parent="75tlLE4KtP8xG6oFHGSJ-117" vertex="1" connectable="0">
          <mxGeometry x="-0.002" relative="1" as="geometry">
            <mxPoint as="offset" />
          </mxGeometry>
        </mxCell>
        <mxCell id="75tlLE4KtP8xG6oFHGSJ-111" value="Бронирование" style="rounded=0;whiteSpace=wrap;html=1;" parent="1" vertex="1">
          <mxGeometry x="539" y="252" width="120" height="60" as="geometry" />
        </mxCell>
        <mxCell id="75tlLE4KtP8xG6oFHGSJ-112" style="edgeStyle=orthogonalEdgeStyle;rounded=0;orthogonalLoop=1;jettySize=auto;html=1;entryX=0.01;entryY=0.612;entryDx=0;entryDy=0;entryPerimeter=0;startArrow=ERone;startFill=0;endArrow=ERoneToMany;endFill=0;" parent="1" source="75tlLE4KtP8xG6oFHGSJ-51" target="75tlLE4KtP8xG6oFHGSJ-111" edge="1">
          <mxGeometry relative="1" as="geometry">
            <Array as="points">
              <mxPoint x="379" y="289" />
            </Array>
          </mxGeometry>
        </mxCell>
        <mxCell id="75tlLE4KtP8xG6oFHGSJ-113" value="инициирует" style="edgeLabel;html=1;align=center;verticalAlign=middle;resizable=0;points=[];" parent="75tlLE4KtP8xG6oFHGSJ-112" vertex="1" connectable="0">
          <mxGeometry x="0.1344" relative="1" as="geometry">
            <mxPoint as="offset" />
          </mxGeometry>
        </mxCell>
        <mxCell id="75tlLE4KtP8xG6oFHGSJ-131" style="edgeStyle=orthogonalEdgeStyle;rounded=0;orthogonalLoop=1;jettySize=auto;html=1;startArrow=ERone;startFill=0;endArrow=ERzeroToMany;endFill=0;" parent="1" source="75tlLE4KtP8xG6oFHGSJ-116" target="75tlLE4KtP8xG6oFHGSJ-130" edge="1">
          <mxGeometry relative="1" as="geometry" />
        </mxCell>
        <mxCell id="75tlLE4KtP8xG6oFHGSJ-132" value="содержит" style="edgeLabel;html=1;align=center;verticalAlign=middle;resizable=0;points=[];" parent="75tlLE4KtP8xG6oFHGSJ-131" vertex="1" connectable="0">
          <mxGeometry x="-0.0588" y="1" relative="1" as="geometry">
            <mxPoint as="offset" />
          </mxGeometry>
        </mxCell>
        <mxCell id="75tlLE4KtP8xG6oFHGSJ-116" value="Чат" style="rounded=0;whiteSpace=wrap;html=1;" parent="1" vertex="1">
          <mxGeometry x="539" y="372" width="120" height="60" as="geometry" />
        </mxCell>
        <mxCell id="75tlLE4KtP8xG6oFHGSJ-123" value="Оплата" style="shape=rectangle;whiteSpace=wrap;html=1;" parent="1" vertex="1">
          <mxGeometry x="479" y="592" width="120" height="60" as="geometry" />
        </mxCell>
        <mxCell id="75tlLE4KtP8xG6oFHGSJ-130" value="Отчет" style="rounded=0;whiteSpace=wrap;html=1;" parent="1" vertex="1">
          <mxGeometry x="539" y="472" width="120" height="60" as="geometry" />
        </mxCell>
        <mxCell id="75tlLE4KtP8xG6oFHGSJ-135" value="Рейтинг и отзывы" style="rounded=0;whiteSpace=wrap;html=1;" parent="1" vertex="1">
          <mxGeometry x="409" y="105" width="120" height="60" as="geometry" />
        </mxCell>
        <mxCell id="yk6rwAeMMAsCp1-vcvuz-3" value="" style="shape=image;verticalLabelPosition=bottom;labelBackgroundColor=default;verticalAlign=top;aspect=fixed;imageAspect=0;image=data:image/png,iVBORw0KGgoAAAANSUhEUgAAA+EAAAJuCAYAAADfKANfAAAAAXNSR0IArs4c6QAAAARnQU1BAACxjwv8YQUAAAAJcEhZcwAADsMAAA7DAcdvqGQAAMo9SURBVHhe7P0NkFznWed/X6OxbFlWROzYm9FEE80IvYHjVUU8rC3Vem3ricNLEXajwQFLu7VlAmRT3qX4G1PwR7IJtgRFYbSwD35gi3Iw4BktNpJrk6VIykIvj8hIDmsViUk2w4r/BI8ympAlxlJQpLFm+jn36XP1XH331TO3pO6enpnvx/XzzDnXre5ruvv0OXe/dkxMTJTEmJyczH92dnbmP+tJHReMjY1Jd3d3seRr9PnSn4/+fPRXH/3Voj/ffO/v8uXLsnTpUimVyrvFdutPtevlp+jPR38++quP/mrRn4/+fO3c35JwsGGj4vVxlFeLkzJOeTUb5dVslFeLkzJOeTUb5dVslFeLkzJOeTUb5dVslFeLkzJOeTUb5dVslFeLkzJOeTUb5dVslFeLkzJOeTUb5dVslFeLkzJOeTUb5dVslFeLkzJOeTUb5dVslFeLkzJOeTUb5dVslFeLkzJOeTUb5dVslFeLkzJOeTUb5dVCXnvtNblw4UIxqv360yivFidlnPJqNsqr2SivFidlnPJqNsqr2SivFidlnPJqNsqr2SivFidlnPJqNsqr2SivFidlnPJqNsqr2SivFidlnPJqNsqr2SivFidlnPJqNsqr2SivFidlnPJqNsqr2SivFidlnPJqNsqr2SivFidlnPJqNsqr2SivFidlnPJqNsqr2SivFidlnPJqNsqr2SivFme2cR3Z/6ZPMTMxMZH/vPHGG/Of9aSOC0ZHR6Wnp6dY8jX6fOnPR38++quP/mrRn2++93f8+HHZvHmzLF++PF9ut/5Uu15+iv589Oejv/rorxb9+ejP1879LSl+AgAAAACAJmMSDgBApqurK+nRbQAAgOvBJBwAgMzGjRsrL0UHAABoFibhAAAAAAC0CJNwAAAAAABahEk4AACZ4eFhuXjxYrEEAADQHEzCAQDIjI+PV75+BAAAoFmYhAMAAAAA0CIdZ86cKRW/56ampvKfS5bMPD9PHRdcunRJli1bViz5Gn2+9OejPx/91Xet/a1bt674DZg72T6u+G322/3Zs2fljjvukKVLl+bLzdw+PO20/Xroz0d/9dFfLfrz0Z+P/uqb7/11lDLF7zl9Kd5s35WaOi4YHR2Vnp6eYsnX6POlPx/9+eivvmvtr6Ojo/gNmDt2Fzfb7T7sMEPtypUr+XIztw9PO22/Hvrz0V999FeL/nz056O/+uZ7f7NP4wHgOoRJECGtzrUIj1inPLoNAABwPTjaAAAAAACgRZiEAwCQCS9H1/d7AQAANAuTcAAtEyY5XsJ3M1+48C1566235Nvf/nYxGmitV199Vc6fP18sAQAANAeTcAAtdeq1L1Vl6C//Wj73+dflc3/5Rfnvn/3cNb+fFwAAAJgPmIQDaLn3v29dnoP/7Xn50hdOycbvfI+sX7NKSlNTMjXFJBwAAAALF5NwAHPiypVJefPNN2VqclKuvH1F3s4SJuA8E4650tXVlfS1IwAAANejY2JiouqIdzI7IA46Ozvzn/WkjgvGxsaku7u7WPI1+nzpz0d/Pvqr71r708mMnVSH93+Hl6D/7E//lLz11nn5xjf+Pv9aqFtuuUU++MHvl39x7/fLj3zoAVm58h3FvwCujX5PvX6nZ9BO24eH/nz0Vx/91aI/H/356K8++qvVyP6W6HeqalS8Po7yanFSximvZqO8mo3yanFSximvZqO8mo3yanFSximvZqO8mo3yanFSximvZqO8mo3yanFSximvZqO8mo3yanFSximvZqO8mo3yanFSxilvXSw8233nnXfKPffcLXfccYf09a2V7/me75XJqUmZyv5dCNAo3m3SrvOivFqclHHKq9kor2ajvFqclHHKq9kor2ajvFqclHHKq9kor2ajvFqclHHKq9kor2ajvFqclHHKq9kor2ajvFqclHHKq9kor2ajvFqclHHKq9kor2ajvFqclHHKq9kor2ajvFqclHHKq9kor2ajvFqclHHKq9kor2ajvFqclHHKq9kor2ajvFqclHHKq9kor2ajvFqclHHKq9kor2ajvFqc2cZ1ZP+bPsWMPmsw20vyUscFo6Oj0tPTUyz5Gn2+9OejPx/91Xet/ekzkfYuJnwK+uc+/0XZ+J2r5e2Jt+UXfuHn5f3v3yLf9/0/kC+//jej+TPht976zuJfANfGu/210/bhoT8f/dVHf7Xoz0d/Pvqrj/5qNbI/3hMOoGXCdzCH6HvA77vvAVl+yy357yFhwhQ9Lgi0zPDwcP5AEQAAQDMxCQfQMuG9NF//xj/Kic//tZw8/RVZfut7ZMVt75XXh9+QL/8/Y/lL1Xk5OubK+Ph45VFuAACAZmESDqBlbrzxJvmRD90v/R96IH/ZeZ4fDj+3y0PF78IcHAAAAAsYk3AALXPzzctk+fLlsuKWW+Qd71iRfwr6O79jpdx663fIbbfdKre/6za5/fbbitEAAADAwsMkHACAzN133y0rV64slgAAAJqDSTgAAJnwnfVLlrBbBAAAzcXRBgAAAAAALdIxMTFR9TFI4dOLg87OzvxnPanjgrGxMenu7i6WfI0+X/rz0Z+P/uq71v70OxT5yjHMBf2ecPtp57Pd7i9fvixLly6t3GabuX142mn79dCfj/7qo79a9OejPx/91Tff+1ui38urUfH6OMqrxUkZp7yajfJqNsqrxUkZp7yajfJqNsqrxUkZp7yajfJqNsqrxUkZp7yajfJqNsqrxUkZp7yajfJqNsqrxUkZp7yajfJqNsqrxUkZp7x1wFzybpN2nc1rr70mFy5cKEY1d/vworyajfJqcVLGKa9mo7yajfJqcVLGKa9mo7yajfJqcVLGKa9mo7yajfJqcVLGKa9mo7yajfJqcVLGKa9mo7yajfJqcVLGKa9mo7yajfJqcVLGKa9mo7yajfJqcVLGKa9mo7yajfJqcVLGKa9mo7yajfJqcVLGKa9mo7yajfJqcVLGKa9mo7yajfJqcVLGKa9mo7yajfJqcWYb15H9b/oUM/qsgT6LVU/quGB0dFR6enqKJV+jz5f+fPTno7/6rrU/fSYyuosBWsK7/c12uz9+/Lhs3rw5/wT/oJnbh6edtl8P/fnorz76q0V/Pvrz0V99870/3hMOAPPZqX2y71T28+yg9D99srwOFb/8y79c9ew2AADAXGMSDmBWp06dkv7+funr65P77rtPBgYGikqtT37yk/K+972vWGoDYXLa0ZE/M5pnoU1U79kusjX7u3oOSv8jW4uVUGfPnpXVq1fPOBnX2/euXbvkQx/6kBw4cKCoAAAANB6TcAAzOn36tGzbtk0++MEPypEjR+Tnfu7n5Fd+5Vfkt3/7t4sRZc8//3w++X7xxRdl//79xdo5FibgPbtky0l9D845GXh92wKbiG+V3fnfdlB2ri5WoeL3fu/38kl2mIyvXbtW9u7dWzUZDzW9fZ84cUJ+/ud/Xn7t135Nfud3fqcYAQAA0FhMwgHM6L/+1/+aT0g+9rGP5c+E/9AP/ZAMDg7K008/ndfDM9/vf//75U/+5E/yyfdnPvOZfELTDk7+/i459NSQ7L6nWCFdsnP/gOx48hkZPDsugx8xz5Dn2Scnxa4Py5lT+6TjI4NZxQrj+rPTyX4NdXs6NWPLTj49PSZ/CXmV8vnuOzD9zP30mJOyr1jX0VGcZ2b8QP/0Awr5M/6hZscWyfr5ojs2+z3620KP+flW/U3lyyE/v2Jd/4HiXxTjKsvaa53LYC5813d9Vz4ZD5Psr33ta1XPjP/6r/96ze37D//wD2Xfvn3FvwYAAGgsPpgts5D7+4mf+An57Gc/KzfccEO+rFd3OGieSeq44MqVK5XTr6fR50t/vmb0F7626XOf+1w+QbF6e3vljjvukC984Qty6623ys0331x1el/96lfzn3perRcmtavk4IfPycGHu4p1QXn9yGOlYnIeJo1HZHtpt+Qv5g6Tyle2S+mJrfmk81F5Vg72PScd+/vk3Is7s2m8CqfzqMj+g7LzbPZvKnWz3j4zHU43O4OhcD75M/Qj8rieZ67c1y4ZKJ9OZfxHZcT2G9YX5yVZf6vOPJ712lf+ty/tkIHR4nzDeTwm8mzRc/hb3LFVvZcn4UcezM5LqtdX9Z9fZtuywcW4rXtEnhrKL7Py+R7M/kF/5bzngt4Ww+1U6W0xbHP/8A//kN9f3nbbbfkrPOztO9yfrl+/XqampmbdNrl/qUV/voXU33ve8578bUl2+/Jw/FeL/nz056O/+uZ7f0zCMwu5v/DvwvsbwzM/wdtvv53/DN+FO5PUccG5c+dk1apVxZKv0edLf75m9Ldjxw556qmn8mcI1Ztvvinvete75E//9E/lD/7gD/KfjzzySP5s4i233JKP0UlNdBfTQtc4Cc+VJ5l7HrIT4myiqfL12+WInYTbuk5IjelJcPX6aV5fz0jf6OMy0pP1ko9R5Qn09hPFaT54RDpe6ZOB17PJr07+603C47Fx75m9Ork2k/C4/zBZf2ZddtnmD1Bk/yZbt/3F3dKXjXsum4Cffnn6vOeCTiRGRkbyn0G43YdXbIS3TnR1dckP/uAPyp/92Z/J448/nt++h4eH8/vM8Ax52Ca/8pWvzHofzf1LLfrzLaT+HnjgAfmLv/gLJuEG/fnorz76q7Wo+guTcOvy5ct5ZpM6LnjjjTeK3+pr9PmmjgsWcn/ZDrKUHYQWS+3XX6zR4wL6q5U6Lvit3/qt0nd/93eX/uqv/ipf/uY3v1l6+OGHSz/90z+dLwdf+MIXSj/+4z9eWrlyZekTn/hE6fz582HmnWcuDT2V9fDUULFUGB0o7ZAdpYHRYrk0VNore7P/1zo3uKO0Y/BcqXRybymbeJey33LhdHcMDpUGHipOx6lnE9kq4bRqeqlyLjs9++9CX+H09Wex2iif5kDRR/j3Zlz4O01PdcfW6z1aH/dfvgyyajFuKKvvPVmc7snq854L8e3vueeey2/HDz74YOmzn/1ssbZUeuGFFyq372PHjuX3lz/6oz9aevTRR4sRM+P+pVbquID+aqWOC+aqvzVr1lQdW9TD5VcrdVxAf7VSxwX0Vyt1XEB/tVLHBbP1tyQ8omkTXn4XEq+PkzoupJGn1+hxIXNxvqnjQq7n9LLrOH+5mi6nnm/quJBGnl6jx4XMxfmmjguZi/NNHRfyr//1v5af+qmfyt/nnR145c+AhzzzzDOVMRs2bJBnn302f2Yku9OpvPJirm19JLz/e5t5b/W4DD4W3if+eN0PMQvP+E6/v7lxuvq2iDx5RPJ3Zdv3ZEf2vFK8b/vUEdkjW6RvdZ/0PXRIdv2+rt8nlfeqB0/ukoMffjbtQ9muZmykqv/s/0eeFNnSN/08d19W37P/UTko/bK9Pa7+XHgv+J133il//Md/nH/g2qc+9an8WTy97X7kIx+p3L6zyXf+4W2333571e17pszFdpk6LmQuzjd1XMhcnG/quJC5ON/UcSFzcb5hTGCPLeql0efbyHEhc3G+qeNC5uJ8U8eFzMX5po4LmYvzTR0XMhfnmzouZC7ON3VcyFycb+q4kNnGLQmTNBsVr4+jvFqclHHKq9kor2ajvFqclHHKq9kor2ajvFqclHHKWx8vB3adF+XV4qSMU17NRnk1G+XV4qSMU17NRnk1G+XV4qSMU17NRnk1G+XV4gQf//jH85fV/Pmf/7m89dZb8hu/8Rs1Y4KNGzfmH3IVPgCrLazeKQdLQ+Wv8OoIWSW77qp9qbjV9fDjsmXnqnz8qp1b5HF9KftLu2RVfhodsu31AXn24er3yMf1j1Y+DK5wz245N3hatoUxPbtEBv3J8I7Xnyn3unWP7D0ZXiLfJTtfHJK9T24r1p+WgVH70vm90z3O6mrGRmz/Hdvk9OA584F3mXu2y96XDol8ePucvQTd89JLL+UfvvbpT39aPvCBD+Tr7G03RG/f/+W//Jf8U9TDBNwb5yVlnPJqNsqr2SivFidlnPJqNsqr2SivFidlnPJqNsqr2SivFidlnPJqNsqr2SivFidlnPJqNsqr2SivFidlnPJqNsqr2SivFidlnPJqNsqr2SivFidlnPJqNsqr2SivFidlnPJqNsqr2SivFidlnPJqNsqr2SivFidlnPJqNsqr2SivFidlnPJqNsqr2SivFidlnPJqNsqr2SivFme2cbwnPLOQ+wvvyz169GjlfVvt1l+M/nzzsb8wYQyiuxjUVe897LgW3u1vttv9pUuX8lp4hi9o5vbhaaft10N/vsXYX3j107Fjx3hPuEF/Pvqrj/5qLab++IoyAAAyy5YtkyVL2C0CAIDm4mgDANpCeNl5iWfBAQAAFjgm4QAAZMLL0cMHqQAAADQTk3AAADKvvvqqnD9/vlgCAABoDibhAAAAAAC0CJNwAAAAAABahEk4AACZrq6upK8dAQAAuB5MwgEAyGzcuFGWL19eLAEAADRHx5kzZ0rF7zn9ZNjZvis1dVwQPnE2fP/qTBp9vvRXdv/998sLL7wgq1evzpfbrb8Y/fnmY3/r1q3Lf5ZKVXcxQEt0dHTkP7N9XP4zaKftw0N/Pvqrb676e+CBB2RgYKBybFEPl18t+vPRn4/+6pvv/XVkB8hVR8gTExP5z9lekpc6LhgdHZWenp5iydfo86W/sr6+Pjl69Kj09vbmy+3WX4z+fPOxP50EMQnHXPBuf+20fXjoz0d/9c1Vfxs2bJBjx45Vji3q4fKrRX8++vPRX33zvb/Zp/EAACwCw8PDcvHixWIJAACgOZiEAwCQGR8frzzKDQAA0CxMwgEAAAAAaBEm4QAAAAAAtAiTcAAAMnfffbesXLmyWAIAAGgOJuEAAGTCV4mkfO0IAADA9eBoAwAAAACAFumYmJio+hLfycnJ/GdnZ2f+s57UccHY2Jh0d3cXS75Gny/9la1fv14OHz4sa9asyZfbrb8Y/fnmY3/6HYp8Tzjmgn5PuP2089lu95cvX5alS5dWbrPN3D487bT9eujPtxj727RpU9WxRT1cfrXoz0d/Pvqrb773tyQcbNioeH0c5dXipIxTXs1GeTUb5dXipIxTXs1GeTUb5dXipIxT3vp4ObDrvCivFidlnPJqNsqr2SivFidlnPJqNsqr2SivFidlnPJqNsqr2SivFidlnPLWhckQIa2O8m6Tdp3Na6+9JhcuXChGNXf78KK8mo3yanFSximvZqO8mo3yanFSximvZqO8mo3yanFSximvZqO8mo3yanFSximvZqO8mo3yanFSximvZqO8mo3yanFSximvZqO8mo3yanFSximvZqO8mo3yanFSximvZqO8mo3yanFSximvZqO8mo3yanFSximvZqO8mo3yanFSximvZqO8mo3yanFSximvZqO8mo3yanFmG9eR/W/6FDP6rIE+i1VP6rhgdHRUenp6iiVfo8+X/sr6+vrk6NGj0tvbmy+3W38x+vPN1/7sZAhotWj3Nuvt/vjx47J582ZZvnx5vtzs7SPWbttvjP58i7G/DRs2yLFjxyrHFvVw+dWiPx/9+eivvvneH+8JB9A0+mifJrzcNyReHyd1XMgbb7zhrrdp9Pmmjguhv9qkjgu5nv4AAADaEZNwAAAyXV1dSY9uAwAAXA8m4QAAZDZu3Fh5KToAAECzMAkHAAAAAKBFmIQDAAAAANAiTMIBAMgMDw/LxYsXiyUAAIDmYBIOAEBmfHy88vUjAAAAzdKRHXBUfY/L5ORk/rOzszP/WU/quGBsbEy6u7uLJV+jz5f+ytavXy+HDx+WNWvW5Mvt1l+M/nz0Vx/91aI/32zjhoaG5M4775QVK1bky+3Wn2rXy0/Rn28h9bdp06aqY4t6uPxq0Z+P/nz0V998729Jve9VjdfHUV4tTso45dVslFezUV4tTso45dVslFezUV4tTso45a2PlwO7zovyanFSximvZqO8mo3yanFSximvZqO8mo3yanFSximvZqO8mo3yanFSximvZqO8mo3yanFSximvZqO8mo3yanFSximvZqO8mo3yanFSximvZqO8mo3yanFSximvZqO8WkjMGxMnZZzyajbKq9korxYnZZzyajbKq9korxYnZZzyajbKq9korxYnZZzyajbKq9korxYnZZzyajbKq9korxYnZZzyajbKq9korxYnZZzyajbKq9korxYnZZzyajbKq9korxYnZZzyajbKq9korxYnZZzyajbKq9korxYnZZzyajbKq9korxYnZZzyajbKq9korxYnZZzyajbKq9korxZntnEd2f+mTzGjL8Wb7btSU8cFo6Oj0tPTUyz5Gn2+9FfW19cnR48eld7e3ny53fqL0Z+P/uqjv1r055tt3KVLl/LalStX8uV260+16+Wn6M+3kPrbsGGDHDt2rHJsUQ+XXy3689Gfj/7qm+/98Z5wAAAyy5YtkyVL2C0CAIDm4mgDAAAAAIAWYRIOAEAmvBx9amqqWAIAAGgOJuEAAGReffVVOX/+fLEEAADQHEzCAQAAAABoESbhAAAAAAC0CJNwAAAyXV1dSV87AgAAcD06JiYmqr4nfHJyMv/Z2dmZ/6wndVwwNjYm3d3dxZKv0edLf2Xr16+Xw4cPy5o1a/LldusvRn8++quP/mrRn4/+fPRXH/3VCuM2bdpUdWxRD5dfLfrz0Z+P/uqb7/0tKZVKYqPi9XGUV4uTMk55NRvl1WyUV4uTMk55NRvl1WyUV4uTMk556+PlwK7zorxanJRxyqvZKK9mo7xanJRxyqvZKK9mo7xanJRxyqvZKK9mo7xanJRxyqvZKK9mc/PNN+cJz0rOlt7eXne9TerpNXpcCP3VRsd5132clNuL8mo2yqvZKK8WJ2Wc8mo2yqvZKK8WJ2Wc8mo2yqvZKK8WJ2Wc8mo2yqvZKK8WJ2Wc8mo2yqvZKK8WJ2Wc8mo2yqvZKK8WJ2Wc8mo2yqvZKK8WJ2Wc8mo2yqvZKK8WJ2Wc8mo2yqvZKK8WJ2Wc8mo2yqvZKK8WJ2Wc8mo2yqvZKK8WJ2Wc8mo2yqvZKK8WJ2Wc8mo2yqvZKK8WJ2Wc8mo2yqvZKK8WZ7ZxHdn/pk8xMzExkf8MB0ozSR0XjI6OSk9PT7Hka/T50l9ZX1+fHD16ND/QDtqtvxj9+RZbfx0dHcVvWMii3Y+L7aMW/fnoz9eM/jZs2CDHjh2rHFvUw+VXi/589Oejv/rme3+8JxxA29JHC8nCSrsaHh6WixcvFksAAADNwSQcAIDM+Ph45VFuAACAZmESDgAAAABAizAJBzAvXLp0yU14+fCFC9+St956S7797UvFaAAAAKA9MQkHMG+ceu1LVRn6n38tn/v86zL0l1+U//7Zz0mpNFWMBK7e3XffLStXriyWAAAAmoNJOIB55f3vW5fn4H97Xr70V6dk49r3yLo1q6Q0NSVTU+37oV9of8uWLZMlS9gtAgCA5uJoA8C8c+XKpLz55psyNTkpb7/9trx95Uo+AW/nT94GAAAAAibhAOaV7du3yz333C2f/vSn5Vd+5VfkwQf/3/Kb//k/t/3XX6H9hc8YmJriLQ0AAKC5Os6cOVN11KoHILO9JC91XBAObMLL/GbS6POlv7L7779fXnjhBVm9enW+3G79xejPt9j6W7duXf7TTqpDH0N/+dfy/O/9l/x0Tp06Jbfffof09LxXbr31nfIv/tUPyo986AF553fwnt5219HRkf/M9j/5z5m08vZ39uxZueOOO2Tp0qX5crtuH6njAvqrRX++qxn3wAMPyMDAQOXYoh4uv1r056M/H/3VN9/768gOcqsm4fodqTfeeGP+s57UccHo6Gh2oNxTLPkafb70V9bX1ydHjx6V3t7efLnd+ovRn2+x9aeTNHv3FD4F/XOf/6JsXLs6fwn6L/zCz8v7379Fvu/7fiBffv1vRvNJeJiQo7151289rbz9HT9+XDZv3izLly/Pl9t1+0gdF9BfLfrzXc24DRs2yLFjxyrHFvVw+dWiPx/9+eivvvne3+zTeABoA5OT4YPXpuTtK+X3gN933wOy/JZbKstT2YQuZVIHAAAAzCUm4QDmhampSfn6N/5R/uLzX5KTr31Flt/6Hllx23vl9eFR+fLfjklpqpRPxIFr1dXVlfToNgAAwPVgEg5gXrjxxpvkRz50v/R/6IH8Zed5fjj83C4PFb8Lc3Bch40bN1Zeig4AANAsTMIBzAs337wsnyCtuOUWecc7VsjKle/IP4Tt1lu/Q2677Va5/V23ye2331aMBgAAANoTk3AAAAAAAFqESTgAAJnh4eH8U/gBAACaiUk4AACZ8fHxytePAAAANEtHdsBR9VFGk5OT+c/Ozs78Zz2p44KxsTHp7u4ulnyNPl/6K1u/fr0cPnxY1qxZky+3W38x+vMttv70E6r5yrGFSb8nPGXC28rb39DQkNx5552yYsWKfLldt4/UcQH91aI/39WM27RpU9WxRT1cfrXoz0d/Pvqrb773tyQc5NqoeH0c5dXipIxTXs1GeTUb5dXipIxTXs1GeTUb5dXipIxT3vp4ObDrvCivFidlnPJqNsqr2SivFidlnPJqNsqr2SivFidlnPJqNsqr2SivFidlnPJqNsqr2WBx8K77OCnjlFezUV4tJOaNiZMyTnk1G+XVbJRXi5MyTnk1G+XVbJRXi5MyTnk1G+XVbJRXi5MyTnk1G+XVbJRXi5MyTnk1G+XVbJRXi5MyTnk1G+XVbJRXi5MyTnk1G+XVbJRXi5MyTnk1G+XVbJRXi5MyTnk1G+XVbJRXi5MyTnk1G+XVbJRXi5MyTnk1G+XVbJRXi5MyTnk1G+XVbJRXi5MyTnk1G+XVbJRXizPbuI7sf9OnmNFnJmb7rtTUccHo6Kj09PQUS75Gny/9lfX19cnRo0elt7c3X263/mL051ts/ekzpdHdExaIq7l+W3n7u3TpUl67cuVKvjzb6QVsv7Xoz7eQ+tuwYYMcO3ascmxRD5dfLfrz0Z+P/uqb7/3xnnAAcJx8uiOfLJazT04W66/J2UHpr5xWA04PTbFs2TJZsoTdIgAAaC6ONgCgyrgMfqRDtsnQ9MuGshnztmueOGen99iIPK6nlWe3bC2qAAAAWFyYhAOAdfaIHHxprww9YabJ9+yWc6Pbpe9ssXxq3/Sz2k+bqbm3PpzeXX0ykk3sy7V+GcxPpzzZ33cqHyXjB/ql/8B4eSGczkcGsxHBSdmnp1nn3+bPtBfjw+lMn3d4Bl7/TfWz+5XzQkV4OfrU1FSxBAAA0BxMwgHAGD9xUA491Cd9xbLqWr01S/ZLmNhuPS0Do+EZ7XMy8Pq28oS23vrgyV0y8ljxLPjJLbKrJ/VZ9TDZ3pbNns2/fUwn57MJz8DvkkO6lE3Op5/dH5ItOx+tTM5R9uqrr8r58+eLJQAAgOZgEg4ARlffluK3Os6OZJP0ftkeJuTSJds/vEMOnRmpvz54aEA+ek/5V7nnozLw0GkZSZoAj8jISyJ7thbPYG/dI/LSQTlS/NvK+p7pyXbFqedk110D2XmVF0fOZCOe3FY8E75N9mT/4uAJng0HAABoNSbhAGCt7pMdL2WT32JRhZdyz81LuHcUz65rDsrOfKIvslefIR8dyEZZIzK4/7QMPLK9WC7bMXjOnE5JDj7cVVQAAADQKkzCAcBavV36H9oj26L3em97cq88Hiat+SRdn40elyMvH5Id6/pmWJ+dnuyS5/T92+EZ6mxN+Rnz2fRJ30OHZNfvF73k7zlPeCn7k7vk4IefrUzWg751O+TQzueKf1t+n3nlPeXIdXV1JX3tCAAAwPXomJiYqPqi1snJyfxnZ2dn/rOe1HHB2NiYdHd3F0u+Rp8v/ZWtX79eDh8+LGvWrMmX262/GP35Flt/OhEKz9bOjfBe7FWy66ViUfbKkP1E8zAZDi8ND54akpJ+iFu99eH94pWXjIdntsOz2fF51ArPdO++J0yYw8vHg+p/G95nvju8zD2c/mMiz764U+RAv6zauaXoN4x7VGR/+dnz8Gz+tifzE8qfFZ+rZ8LDS+ID/b7NmbB91KI/H/35mtHfpk2bqo4t6uHyq0V/Pvrz0V99872/jsuXL1cd5eonw872Xamp44Jz587JqlWriiVfo8+X/so2bNggr7zySmVH2W79xejPt9j6u+mmm/KfczcJn3thwnzkwWKSvcDoJDzb/+Q/Z8L2UYv+fPTna0Z/YRJujy3q4fKrRX8++vPRX33zvb+O7CC36ihXn5mY7SV5qeOC0dFR6enpKZZ8jT5f+ivr6+uTo0ePSm9vb77cbv3F6M+32PrTSRqT8IU9CU+5ftk+atGfj/58zegvPMB/7NixyrFFPVx+tejPR38++qtvvvc3+zQeANByW59YmBPwdjY8PCwXL14slgAAAJqDSTgAAJnx8fHKo9wAAADNwiQcAAAAAIAWYRIOAAAAAECLMAkHACBz9913y8qVK4slAACA5mASDgBAZtmyZUlfOwIAAHA9ONoAAAAAAKBFOiYmJqq+qHVycjL/2dnZmf+sJ3VcMDY2Jt3d3cWSr9HnS39l69evl8OHD8uaNWvy5XbrL0Z/vsXWn37/4mL+nvCFTL8nPOWTyFt5+7t8+bIsXbq0crtr1+0jdVxAf7Xoz3c14zZt2lR1bFEPl18t+vPRn4/+6pvv/S0JBxs2Kl4fR3m1OCnjlFezUV7NRnm1OCnjlFezUV7NRnm1OCnjlLc+Xg7sOi/Kq8VJGae8mo3yajbKq8VJGae8mo3yajbKq8VJGae8mo3yajbKq8VJGae8mo3yajZYHLzrPk7KOOXVbJRXC3nttdfkwoULxaj260+jvFqclHHKq9kor2ajvFqclHHKq9kor2ajvFqclHHKq9kor2ajvFqclHHKq9kor2ajvFqclHHKq9kor2ajvFqclHHKq9kor2ajvFqclHHKq9kor2ajvFqclHHKq9kor2ajvFqclHHKq9kor2ajvFqclHHKq9kor2ajvFqclHHKq9kor2ajvFqclHHKq9kor2ajvFqc2cZ1ZP+bPsWMPjOhz0TVkzouGB0dlZ6enmLJ1+jzpb+yvr4+OXr0qPT29ubL7dZfjP58i60/faY0unvCAnE1128rb3/Hjx+XzZs3y/Lly/Pldt0+UscF9FeL/nxXM27Dhg1y7NixyrFFPVx+tejPR38++qtvvvfHe8IBAAAAAGgRJuEAAGS6urqSHt0GAAC4HkzCAQDIbNy4sfJSdAAAgGZhEg4AAAAAQIswCQcAAAAAoEWYhAMAkBkeHpaLFy8WSwAAAM3BJBwAgMz4+Hjl60cAAACahUk4AAAAAAAt0nHmzJlS8Xtuamoq/7lkyczz89RxwaVLl2TZsmXFkq/R50t/Zffff7+88MILsnr16ny53fqL0Z9vsfW3bt264jcsZNn+p/itvlbe/s6ePSt33HGHLF26NF9u1+0jdVxAf7Xoz3c14x544AEZGBioHFvUw+VXi/589Oejv/rme38dpUzxe05fijfbd6WmjgtGR0elp6enWPI1+nzpr6yvr0+OHj0qvb29+XK79RejP99i7O+mm24qlrAQXb58ue1uf2GHGWpXrlzJl9utP5U6LqC/WvTnu5pxGzZskGPHjlWOLerh8qtFfz7689FfffO9v9mn8QAwB8IkLTxGOFveeOMNd71NOK2U02v0uJCr6e8Tn/iE/MRP/ERlfTjAHRkZyX9/7rnn5MEHH5zT/ryazdWMa0fhEeuUR7cBAACuB0cbANAmHnvsMXnxxRflf/2v/1WsmbZ//375mZ/5mWIJAAAA8xWTcABoE+94xzvyiXiYcFuf/OQn8/defuADHyjWoBnCy9H1/V4AAADNwiQcANqI92x4mJSH9WiuV199Vc6fP18sAQAANAeTcABoI/Gz4WFCHp4F/+AHP5gvAwAAYH5jEg4AbUafDX/77bfzD2TjWXAAAICFg0k4ALQZfTb8H/7hH6Srq4tnwVskXNYpXzsCAABwPTomJiaqvid8cnIy/9nZ2Zn/rCd1XDA2Nibd3d3Fkq/R50t/ZevXr5fDhw/LmjVr8uV26y9Gfz76q2+h9nfhwoX8e/5//ud/Xn7u534uX9dO/Xnoz0d/9dFfrfnQ36ZNm6qOLerh8qtFfz7689FfffO9v46vfvWrpStXruQLN9xwg7z73e/Ofw/flfpP//RP8s1vfjNfDm677Ta55ZZb8t/DJ8iOj49Xmgn/dtWqVfnvgf233/rWt+S9731v5d8G586dk2aeb/gu2uBd73rXjOcb/m1YF3628nxT/95geHhYli9fnv9+tef7nd/5nfLCCy/k7ym9mvPl+p0f12+zL+eA67f112/4gLDwnvD/+T//Zz7+x37sx6S/v5/rt0Xn2+zrVzX7cg64frl+m3H93n///fKnf/qn8l3f9V1Flet3IV2/Adsv1y/Xb1mzrt8lFy9ezAeFhN/DmYeEl+SFxrUWEpbD+hBt0v5brcX/9vLly1X/NqTZ5xueRQqZ7XzDurk439S/N2RiYqLq39rabOcblvW8r+Z8U//eEK7fubt+r/V8U//eEK7f1l6/p0+flvvuu0++//u/P/9qsn/37/6dPPvss/J7v/d7yeeb+veGcP229vq19Ws939S/N4Trl+u30eerf+ts5xvWNfp8uX5bc/2m/L1h3Vycb+rfG8L1W3u+qX9vWDcX55v694bM9+u3IyuWHyIohD8oCANnkjouGB0dlZ6enmLJ1+jzpb+y8HLWo0ePSm9vb77cbv3F6M9Hf/UttP7CM97hPeAf+9jH8nXBF77whXxdOK1gLvubSTtcfjOZbVx4VD2cV3hkO2i3/lS7Xn6K/nwLqb8NGzbIsWPHKscW9XD51aI/H/356K+++d4fH8wGAG0kPBMefxDb5s2b5eabb5Y33nijWINmCC8x0x0sAABAszAJB4A2Ej7o6Etf+lKxVPbmm2/mE3B9zxIAAADmLybhANBGfvInfzL/RPTwEvQgTMAfffRR+U//6T/JTTfdlK8DAADA/MUkHADayK5du+TjH/94/pL08H7L8Imed9xxh/zWb/1WMQLNcvfdd8vKlSuLJQAAgOZgEg4AbeY//sf/KF//+tfzr8D4yle+wgS8RZYtW5Z/8ikAAEAzcbQBAG0qfEp3yidwAgAAYP7omJiYqPqKMv3y8c7OzvxnPanjgrGxMenu7i6WfI0+X/orW79+vRw+fDj/sKeg3fqL0Z+P/upbyP2x/ba2v/CdnkuXLs2/1zNot/5Uu15+iv58C6m/TZs2Vd031cPlV4v+fPTno7/65nt/S8LBho2K18dRXi1Oyjjl1WyUV7NRXi1Oyjjl1WyUV7NRXi1OyjjlrY+XA7vOi/JqcVLGKa9mo7yajfJqcVLGKa9mo7yajfJqcVLGKa9mo7yajfJqcVLGKa9mo7yajfJqcVLGKa9mo7yajfJqcVLGKW99vBzYdV6UV4uTMk55NRvl1WyUV4uTMk55NRvl1UJee+01uXDhQjGq/frTKK8WJ2Wc8mo2yqvZKK8WJ2Wc8mo2yqvZKK8WJ2Wc8mo2yqvZKK8WJ2Wc8mo2yqvZKK8WJ2Wc8mo2yqvZKK8WJ2Wc8mo2yqvZKK8WJ2Wc8mo2yqvZKK8WJ2Wc8mo2yqvZKK8WJ2Wc8mo2yqvZKK8WJ2Wc8mo2yqvZKK8WJ2Wc8mo2yqvZKK8WJ2Wc8mo2yqvZKK8WZ7ZxHdn/pk8xMxdfVh40+nzpr6yvr0+OHj2af8BT0G79xejPR3/1LeT+7r33XvnVX/1V+Zf/8l/my+3WX2y+93f8+PH8O9mXL1+eL7dbf6pdLz9Ff76F1N+GDRvk2LFjlWOLerj8atGfj/589FfffO+P94QDQJs6e/asrF69ulgCAADAQsAkHACATFdXV9Kj2wAAANeDSTgAAJmNGzdWXooOAADQLEzCAQAAAABoESbhAAAAbSJ8TV5Iine/+93Fb/Wlnt7VjPv0pz8961cDBXPVX8q4oJH9AcDVYBKeqKOjI89sGj0uSHmPYr3Tu+uuu6r+fer5po4Lrqe/WKPHAUCq4eFhuXjxYrEEzI2r2b/N1f43Praop92PDxrZHwBcDSbhiVIfCW30uOB6Hqn91Kc+VfVoder5po4L2v2RbgBIMT4+Xvn6EaD1xmXwI+UJXzn75GRRmRdO7ZOOp7OOw8/K32DykcHsLwQABB3ZAUfV94RPTk7mPzs7O/Of9aSOC8bGxmZ92VKjz/da+gs7iRtuuCFbE3aEq2TXS+W6yF4ZKu2WrcVS2ws7wFe2S+nBI9KxdU+x0nhoQM69uFO6isWF4u233y5+qzZfbn8zob/6FnJ/69evl8OHD8uaNWvy5XbrLzbf+xsaGpI777xTVqxYkS+3W3+qXS8/RX++mcYtXfoP5eOOu4ak9ET5aGP8QL+s2rll3hx/nHy6Q448WJLdUhyDFH9H7uyg9D8m8uwCPPa4cuWKlEqleX37s+jPR38++qtvtv6WhDsOGxWvj6O8WpyUccqr2SivZqO8Whw7rjIBDzvCYt25wdOybR49In3ylT2y98Fi5/fU9N+RZ3RAdpQrC07V32kyU02jvJqN8mo2yqvFSRmnvJqN8mo2yqvFSRmnvJqN8mo2yqvFSRmnvJqN8mo2yqvFSRmnvPXxcmDXeVFeLU7KOOXVbJRXs1FeLU7KOOXVbJRXC4l5Y+KkjFNezUZ5NRvl1eKkjFNezUZ5NRvl1eKkjFNezUZ5NRvl1eKkjFNezUa5tVPPya6X9sqQmbh2PfysDDy0R545UDx/bJ9hDs84Z0cl+3RZkz/bHD2jXjwDHSb1VWPz0yjWF7/nk+WOfhk865/2F+3YKuMy8vpe2X5PsTgj2184r2K1u77owzyLHib79t/Zv6s/XFbOM/FhffnvHJw+D/N3lE9zeqx/Gl/M/+2+U8U/KlSuw4K9Xr0orxYnZZzyajbKq9korxYnZZzyajbKq9korxYnZZzyajbKq9korxYnZZzyajbKq9korxYnZZzyajbKq9korxYnZZzyajbKq9korxZntnHhf1UuX76cZzap44I33nij+K2+Rp9v6rigqr+Te7NLZW9pqFgsO1caeEhKOwbPlRfzMVLOU2HkUGmvLmseGsj+VfnfVa/LTm1wR/XY/DSK9cXv2WS5tEN2lAZG/dP+gh1bJZxn0X/oMx4TTrfoQ/+u8umG88pXZrz1RR+Vf5utear639m/K7+s7OVk1pf/zoHp8zA9lk9zeqx/Gl/I/+3ek8U/msW8uv3V0ejzTR0X0F+t1HHB9fTX29tbGhkZKZbar79Yo8cFrezv29/+dmlycjL59AIuv1qp4wL6K8v3i2b/qqaPC8r74PJ+r7yPruwDq/brmey4YaiyPw//rryfrjrGyNeXjxWm1+u+3xwPRKddfRqGHTfLsUe+n9d6vo83fdjTyH/XYyA9Lgs97shOq+jR/Pvqy6h8epXjtkx++tExTRhb/TdNX15B9WlEl3ukEbeDGNtHrdRxAf3VSh0X0F+t1HHBbP3xnvDI+MhpkYf6pK9YLuuS7R/eIYfOjGS/n5R9W/dIdics2R2yDLy+Tfad2iq7w6Ma4Vnm8FLv8Ht4ydXZEenbr494DMnelw7KEX3Et/IMdbb+ySPRs+zjMvjYLjmU/+6f9j/La46zR+Rg1n11/76TT5tn/E9ukV095Wf7xw88KrukOK+w/jHzPq6XRiRcCqHHkdd3ZD3lC/mjxuWXzZX/pi07V8k+2Z2fdrYTk2wnlv9+8OHihWhPHhTJL5vw94fLsPxo9jaZvly27HxUBld7p1H3rweAa7Zs2TJZsoTdItpQdjxxWvSZ5i7Z+WJJdtd71nn1Vtm6Wp9V3iZVb0rL9rflZ3a3yenBj1a/zD08G3/XgGQTzZlVTqN41jgzfiLbp394e8JLzcOxQzZt1lfr3bM9+6tOy0h2bDRy5pDs0NO4J9v3V166vkP2PnVajoRnoMMxzl390p+vz04tHLM9tb34O7bK9qdETo9UjlhqPfW47FwdfpkeG87XXi57sqOvgyfqn8aereW/vfpZfAC4OhxtXC12hOwIAQBooK6+LeZBbjUuR17O9sfrUh5WN/KXUq+SkceKB7qL1bnKEwDnpP/lR82+c0QG95+WgUe2F8szME8i5A+Wnw19ivTfO/uRx7Xqe7BfTr9ysnyMc7WXRwJ9kF9TecLAUX4SJkv8JAUAXAUm4RF2hDNjRwhgobp06ZJMTU0VS0AL3fPR/P3f28z7lPNXpb20Vx4P+8HVfbJF9pQfBM/2duHBfX3w3fXQgHw0PEFw6kj1EwD1PLlLDn742eLB8auVHTO9tEX6kv5tl/TdJbInO47I5f2V/23fuh1y6OUj5X15fvxkPosn/P1PPiOP5sc408ce+TFb5dWEJ+XIkyJb+mY4BnLG5ue787nK+vAe9Ph93wDQaEzCY+wI2RECCcKrMFJcz/fQtsv3/C8Wr776qpw/f75YAlqp/Mq6IZl+hVv1J6Nvld2jA3I6fwXYqvwtY8/We5A6vLLtpV2yKpzOK33ZMc2h/FVuucqrzcLb0fQVaUFxjJOi6pV82fHK2ez4ofJKuNltfaL8Vr78NLaeloHR8t/Y9fBBGbqr6Dt/25/9VPjwqrlDckj6Zbs9xrlnd/HhudrPufqvTgweOi3PFGP3PDWUj83P96nsuC/xNCqvwgu97194n/YOoEVKkbl4Y3rQ6PNNHRd4/dkPCMt2TsWHfhTCB4xozXxgSdUHk+T0A0WyFB9EVvkQEF2f14qPG8nXV3/4yIwfjmJOI//gkPjDUGb5cJTyeehpmPPK2L+//CEk0x9Wktfy06ju0faU91MI6+NlCR+sUoy1PdZ8MFuh+jRs3yHVvcf4YIlaqeMC+qsVxoSvd1wsmnH5pYwLWnn9Hjt2rPTmm28mn17A9lErdVxAf2iV8rGHPUZrrGbcDtg+aqWOC+ivVuq4gP5qpY4LZuuvI/wvm8hUZAeW+c/Znh1JHReMjo5KT09PseRr9Pk2uj80TvgAtlUv97fsu8oXwu2P/uqbq/7CMyFLly7Nl8PX22x7Mv81s3fefK9vqmZcfkG7Xb/Hjx+XzZs3y/Lly/PldutPtevlp+jPdzXni8Zr9rHHQrn90Z+P/nz0V99s/fFydAC4ZuW3pEx/qn/4jAKRbfYtHJg3urq6knasAOaf8LLz6Q+aBYC5xSQcLceOEAtG+JaAl/bK0BPmee/wHsXR7dKn78HMP1eheA9h1WdN9E+vt5/wf3ZQ+ivrdTIfPiMhG3NAT6sYn5+2+f0j5Q8oDM/Mh9+/GM5DzzM/3TBWv7HBhgcNgo0bN1aeBQfmSnimRZ9tmU14pmU2qad3NeN6e3vlq1/9arGmvrnqL2Vc0Mj+AOBqdJw5c6bq5ej6ybCzfVdq6rggfOJs+P7VmTT6fK+lv5tuuklWr76mT0RDG/jbv/3b4rdq8+X2NxP6q2+u+gv3Fzd+7v+a+eWNYeLbc1D6Rw/KzvzrClfJwQ+fyz/1fzybUB+5d3ex/lGR/WFMmGw/I335+OLlk2cel9ITkq0vf5BQKZvwV72sMpzHYyLPPjYiq/b3ybn9Io+G5awmlX/fl5/3rpd2yEBx2uWJ/RHZXrx0vt72EzTj8gva+foN6K8a/fkWY38PPPCADAwMzHrMxOVXi/589Oejv/rmfX/hPeHWXLwxPWj0+aaOC1L6e/vtt/PMptHjgm9+85vFb/XVO73/+//+v0v/5//8n2Kp/fqLNXpcwAdL1EodF9BfrTBmInwwW/jww5k+6Ceq5x8MVHwQ4dBT+oGC5gMO7Yc+VhI+rHH6gxFz+TjzgZH233nnl39IY/hwSPshhuE0ow+drKMZl1/KuIDbX63UcQH91UodF9BfrTBmzZo1pZGRkWJNfVx+tVLHBfRXK3VcQH+1UscF9FcrdVwwW3+zT+ORC4986KMfM2n0uOBb3/pW8Vt99U7vwIEDcuHChWKp/fqLNXoc0FSr+2THSyMyUiyq8HLwGb+6UMZl5PV6XycYPtiteH95nlk+5E2fCT+5N/9KxHPhGXHzsvfw1YWD+0/LwCPbi2XUMzw8LBcvXiyWAAAAmoNJOABcq9Xbpf+hPbLNTnpP7ZNtTxbfuZtP0g/Kkfz93uNy5OVDsmNdX/m95Hc536sbvodf9sgzxQQ+f9948T5vkUNy8ESx/sRBOfRQn4Rv6j/5+wel335X7T27ZUiemX6P+ZO75OCHny1ego6ZjI+P895PAADQdEzCAeCadcnOF8/JwOvbpj/kLJtZV76ibPVOOXhyi+zqCbVVsuuuITl47xHp79klh57UfxPeq31Idj0WJttbZffogMjOVXlt1c4tMmTfb/7yo8V6kYEw8Q4Tfnm8ZoK99ZF+OZid3t/nS8UDAgAAAGgLTMIB4LqEifgMLx+/Z/d0TT9FPbxsvDI+ZCibKhfCxL2yvvq0tjx2sFhffLhaOG09zfC7TtjDaWS///PwTQSV0wh96oeyBdmEf7aXugMAAKDhmIQDAJC5++67ZeXKlcUSAABAczAJB4BWKp6lrn6B+FbZXbPOCs9al2T3PcUimiJ8lUjK144AAABcD442AAAAAABokY7wXbfF77nJycn8Z2dnZ/6zntRxwdjYmHR3dxdLvkafL/2VrV+/Xg4fPixr1qzJl9utvxj9+eivvrnqLzxjmtLfP/7jP8o73/nOYsmnX7cXPwv7xBNPyM/8zM/Iu971rny53rhY6rhA+5vpK/+acfkFKZdfK6/fy5cvy9KlS/P33Qft1p9q18tP0Z9vIfW3adOmqmOLerj8atGfj/589FfffO9vyfQHA5Wj4vVxlFeLkzJOeTUb5dVslFeLkzJOeTUb5dVslFeLkzJOeevj5cCu86K8WpyUccqr2SivZqO8WpyUccqr2SivZqO8WpyUccqr2SivZqO8WpyUccqr2SivZqO8WpyUccqr2SivZhOESWu4M54t4Xv0vfUpGRwclLfeesutNSran/d3apRXs1FezUZ5tTgp45RXs1FeLeS1116TCxcuFKParz+N8mpxUsYpr2ajvJqN8mpxUsYpr2ajvJqN8mpxUsYpr2ajvJqN8mpxUsYpr2ajvJqN8mpxUsYpr2ajvJqN8mpxUsYpr2ajvJqN8mpxUsYpr2ajvJqN8mpxUsYpr2ajvJqN8mpxUsYpr2ajvJqN8mpxUsYpr2ajvJqN8mpxUsYpr2ajvJqN8mpxUsYpr2ajvJqN8mpxZhvXkf1v+hQz+h2pN954Y/6zntRxwejoqPT09BRLvkafL/2V9fX1ydGjR6W3tzdfbrf+YvTno7/6FnJ/bL+t7e/48eOyefNmWb58eb7cbv2pdr38FP35FlJ/GzZskGPHjlXum+rh8qtFfz7689FfffO9P94TDgAAAABAizAJBwAg09XVlfToNgAAwPVgEg4AQGbjxo2Vl6IDAAA0C5NwAAAAAABahEk4AAAAAAAtwiQcAIDM8PCwXLx4sVgCAABoDibhAABkxsfHK18/AgAA0Cwd2QFH1feET05O5j87Ozvzn/WkjgvGxsaku7u7WPI1+nzpr2z9+vVy+PBhWbNmTb7cbv3F6M9Hf/Ut5P7Yflvb39DQkNx5552yYsWKfLnd+lPtevkp+vMtpP42bdpUdd9UD5dfLfrz0Z+P/uqb7/0tKZVKYqPi9XGUV4uTMk55NRvl1WyUV4uTMk55NRvl1WyUV4uTMk556+PlwK7zorxanJRxyqvZKK9mo7xanJRxyqvZKK9mo7xanJRxyqvZKK9mo7xanJRxyqvZKK9mo7xanJRxyqvZKK9mo7xanJRxylsfLwd2nRfl1eKkjFNezUZ5NRvl1eKkjFNezUZ5tZCYNyZOyjjl1WyUV7NRXi1Oyjjl1WyUV7NRXi1Oyjjl1WyUV7NRXi1Oyjjl1WyUV7NRXi1Oyjjl1WyUV7NRXi1Oyjjl1WyUV7NRXi1Oyjjl1WyUV7NRXi1Oyjjl1WyUV7NRXi1Oyjjl1WyUV7NRXi1Oyjjl1WyUV7NRXi1Oyjjl1WyUV7NRXi1Oyjjl1WyUV7NRXi1Oyjjl1WyUV7NRXi3ObOM6sv9Nn2JGX4o323elpo4LRkdHpaenp1jyNfp86a+sr69Pjh49Kr29vflyu/UXoz8f/dW3kPtj+21tf5cuXcprV65cyZfbrT/Vrpefoj/fQupvw4YNcuzYscp9Uz1cfrXoz0d/Pvqrb773x3vCAQDILFu2TJYsYbcIAACai6MNAGgTzz//fP7st+bs2bNy7733VpZ/8id/shgJAACA+YpJOAC0ifvvvz9/+bmmq6tLDhw4UFnes2dPMRLNEF6OPjU1VSwBAAA0B5NwAGgT4f2VNjfccIOsXr26sjzbJxHj+rz66qty/vz5YgkAAKA5mIQDAAAAANAiTMIBoE3wnnAAAICFj0k4ALQJ3hM+t8LlnfK1IwAAANejY2Jioup7wicnJ/OfnZ2d+c96UscFY2Nj0t3dXSz5Gn2+9Fe2fv16OXz4cOW9pO3WX4z+fPRX30Luj+2X/jz056M/XzP627RpU9V9Uz1cfrXoz0d/Pvqrb773t6RUKomNitfHUV4tTso45dVslFezUV4tTso45dVslFezUV4tTso45a2PlwO7zovyanFSximvZqO8mo3yanFSximvZqO8mo3yanFSximvZqO8mo3yanFSximvZqO8mo3yanFSximvZqPsuvDMaJybb745j1eLEz5QzVtvU+/0/u7v/i6fiOty6vmmjgup15+9DJRd50V5NRvl1eKkjFNezUZ5NRvl1eKkjFNezUZ5NRvl1eKkjFNezUZ5NRvl1eKkjFNezUZ5NRvl1eKkjFNezUZ5NRvl1eKkjFNezUZ5NRvl1eKkjFNezUZ5NRvl1eKkjFNezUZ5NRvl1eKkjFNezUZ5NRvl1eKkjFNezUZ5NRvl1eKkjFNezUZ5NRvl1eKkjFNezUZ5NRvl1eKkjFNezUZ5NRvl1eKkjFNezUZ5NRvl1eLMNq4j+9/0KWYmJibyn+EgbCap44LR0VHp6ekplnyNPl/6KwvvIw0vYw0H2kG79RejPx/91dfs/jo6OorfFhe7a1jI16+H/nz051uM/W3YsEGOHTtWObaoh8uvFv356M9Hf/XN9/54TzgAJNBHLhd6FrPh4WG5ePFisQQAANAcTMIBAMiMj49XHuUGAABoFibhAAAAAAC0CJNwALhKly5dchNeynzhwrfkrbfekm9/+9vFaAAAAGAak3AAuAanXvtSVYb+8nX53Oez/OUX5b9/9nOL/v3V89Hdd98tK1euLJYAAACag0k4AFyj979vXZ6D/+15+dJfvSobv/M9sn7NKilNTcnUFJPw+WbZsmWyZAm7RQAA0FwcbQDAdbhyZVLefPPNbNI9KW+/fSVPmIDzTDgAAAA8TMIB4Bpt3749fwnzpz/9afmVX/kVefAD2+U3f/M/83Vf81R4X//U1FSxBAAA0BwdZ86cqTpS1AOQ2V6SlzouCAc24WV+M2n0+dJf2f333y8vvPCCrF69Ol9ut/5i9Oejv/qa3d+6devyn3ZSHc4zvAf8+d/7/+T/5tSpU3L77XdIT8975Z23vlPu/lc/KD/yoQfknd8x/95f3NHRkf/M9g35z6DR11vquKCVt7+zZ8/KHXfcIUuXLs2X260/1a6Xn6I/30Lq74EHHpCBgYHKsUU9XH616M9Hfz76q2++99eRHVhWTcL1O1JvvPHG/Gc9qeOC0dHR7OC0p1jyNfp86a+sr69Pjh49Kr29vflyu/UXoz8f/dXX7P50UmrvKsOnoH/u81+Ujd+5Wt6eeFt+4Rd+Xt7//i3yfd//A/ny638zmk/Cb80m5PON9/cu5OvXOn78uGzevFmWL1+eL7dbf6pdLz9Ff76F1N+GDRvk2LFjlWOLerj8atGfj/589FfffO9v9mk8AKBKeCQ05ErxHvD77ntAlt9yS/k94Veu8HJ0AAAA1MUkHACu0uTkpHz9G/8oJz7/13Ly9Fdk+a3vkRW3vVdeH35Dvvy3Y9kEvSRTTMLnna6urqRHtwEAAK4Hk3AAuEo33niT/MiH7pf+Dz2Qv+w8zw+Hn9vloeJ3YQ4+72zcuLHyUnQAAIBmYRIOAFfp5puX5ZO1FbfcIu94xwpZufId+Yew3Xrrd8htt90qt7/rNrn99tuK0QAAAMA0JuEAAAAAALQIk3AAADLDw8P5J98DAAA0E5NwAAAy4+Pjla8fAQAAaJaO7ICj6uODwqf+Bp2dnfnPelLHBWNjY9Ld3V0s+Rp9vvRXtn79ejl8+LCsWbMmX263/mL056O/+prdn35a9mL5yjH9nnA7GV3I1681NDQkd955p6xYsSJfbrf+VLtefor+fAupv02bNlUdW9TD5VeL/nz056O/+uZ7f0v0+2zj77WN18dRXi1Oyjjl1WyUV7NRXi1Oyjjl1WyUV7NRXi1OyjjlrY+XA7vOi/JqcVLGKa9mo7yajfJqcVLGKa9mo7yajfJqcVLGKa9mo7yajfJqcVLGKa9mo7yajfJqcVLGKa9mo7x1i413Gdh1XpRXs1FeLU7KOOXVbJRXC4l5Y+KkjFNezUZ5NRvl1eKkjFNezUZ5NRvl1eKkjFNezUZ5NRvl1eKkjFNezUZ5NRvl1eKkjFNezUZ5NRvl1eKkjFNezUZ5NRvl1eKkjFNezUZ5NRvl1eKkjFNezUZ5NRvl1eKkjFNezUZ5NRvl1eKkjFNezUZ5NRvl1eKkjFNezUZ5NRvl1eKkjFNezUZ5NRvl1eKkjFNezUZ5NRvl1eLMNq4j+9/0KWb02Y/Zvis1dVwwOjoqPT09xZKv0edLf2V9fX1y9OhR6e3tzZfbrb/YQukv37iKZxTbUbtffu3Un16P0V3lguX9vQv5+rUuXbqU165cuZIvt1t/6mouv7lwNf0t9vsXz3zob8OGDXLs2LHKsUU9XH616M9Hfz76q2++98d7wgFgDowf6Jf+A+PFUpm3bq788i//sly4cKFYWhyWLVsmS5awWwQAAM3F0QbQFOMy+JF+GTxbLObCug7Zd6pYRMudOnVK+vv781eI3HfffTIwMFBUan3yk5+U973vfcXS4nP27FlZvXr1jJPx+PI8cOBAUUFrcD8DAMB8xCQcaJHxA4/KrpeKBbTcq6++Ktu2bZMPfvCDcuTIEfm5n/s5+ZVf+RX57d/+7WJE2fPPP59Pvl988UXZv39/sXYOnNqXvzRcs+9UeXJl13V07JOTxfBG+73f+718kh0m42vXrpW9e/dWTcZDLb48f+3Xfk1+53d+pxgx/4SXo09NTRVL8xP3MwAAtD8m4UArnB2UR1/ul4GniuVs6rQvTKI+Mij64uOTT4dJ1fSzWuXlcuxLlMNLliuTsKfDFKw4LRtzuigLE+owQfzYxz6WP3P7Qz/0QzI4OChPP/10Xg/PfL///e+XP/mTP8nHfuYzn8knmM3S1bdFDr18pO71dFK2Vz6849zgDtnzyojsfDEsD8ne7L+hvLZbthbjm+G7vuu78sn4iRMn5Gtf+1rVM+O//uu/XnN5/uEf/qHs27ev+NfzT3ig5vz588XSPMT9DAAA8wIfzJZZyP3xwWwiDz/8sPzFX/yF3HDDDcWaWroZhAPLmaSO+9SnPimvP/3b2czvoOxcHZ7BfDT/ve/3O+TIgyXZfU84oN0me/LJVJhIlccczP5tfzZu+4l+WXXmcSk9EaZYYewz0jeandbZfdKxv0/OvbhTuvJ/s0pGHgunlw3LDsD7HxN5Nq+Vr/t6Uv+OIHxI1UyXXdDoy68Z/YVxYTIZXy5h27jjjjvkC1/4gtx6661y8803V53vV7/61fyn9tRIYQK07cliobBj8JwcfDhcg5nwbPjWPeXfnxoyt4cjsr1JE3D92+0HLunfHi7Df/iHf8i3u9tuuy1/BtxenmG7DF+LGJ5NbsT2FrTy9qcfzKb1dutP6bidO/+1vO9MNpueo/uZowcOyC/+4i+GVqqk/h3BXF5+C7W/8GDZH/3RHzVtvx/G8cFstejPR3/10V+txdQfk/DMQu6PSbjIqlWr5KWXXsoPTOp5++23859Lly7Nf9aTOm7VqiVy8N/9X/kBcTjQfVSezSdWYdI1fXD8TDaxygY/eFB2r84ObH8/OzB+PTs8Lg6ivcnZs9kprdp5qFhT0MlZNAnXyaMn9e8Izp07l1+GM2n05deM/v7tv/238sQTT+TP2Ko333xT3vWud8mf/umfyh/8wR/kPx955JH82d1bbrklH6OTzOiusinCs4/l24rkE59dMpBPhCRbXz1Zav4kfGRkJP8ZhMsvvEIgvFS/q6tLfvAHf1D+7M/+TB5//PGqy/PrX/96fl185StfmXHbbMb1G1zv7So8Ex6e/Q8PxATt1p/ScbfddkU++/E9c3Y/c8uFC/mDMrHUvyNYKPcvQbv0d++99+YPODIJn3lcQH+16M9Hfz76q2/W/sIk3Lp8+XKe2aSOC954443it/oafb6p44KF3F+2gyxlB9PFUvv1F2v0uCCbfFddBp5Gn+/U1Fhp4KEdpYGTA6UdDw2UzhXrh56S0t6T+W+lvVLUnxoqnRvcUdoxOFT+N6PlcdnBcP5vrDAuOxguliKj1ec1k9S/I1go20c2gSx993d/d+mv/uqv8nXf/OY3Sw8//HDpp3/6p/Pl4Atf+ELpx3/8x0srV64sfeITnyidP38+zLzztEL5dhCuwXPZbUFvK+Xfp6/3cNvZm/2/OeK/97nnnssvtwcffLD02c9+tlhbKr3wwgs1l+eP/uiPlh599NF8eSbNuH5TTm+2cV/5yldK//RP/5R8esHcbh/httF+9zOpf0ewUO5fGnm+qeMCr79m7/fDmDVr1sy6Xw24fmuljgvor1bquID+aqWOC+ivVuq4YLb+loRHXG3CywhD4vVxUseFNPL0Gj0uZC7ON3VcyPWcXnYd5y9X0+XU800dF9LI02v0uJDAXgZeGn2+4XIXOSS7th6U/v3lZ6Zdq/tky5PPyKMvi/TfO/2y3r51O+TQzuek/KFb4dms8qcdh/cRSza+/H7O8DLR6vdxWl5fmtS/I6SRl0ujx4Wknl42QZSf+qmfyt/nnR1A5s+AhzzzzDOVceHZnWeffTZ/+0J25znjqyeaq0u2f3iH7Nka3nv7qMiH94q8PpJd460T3gt+5513yh//8R/nH7j2qU99Sh544IHKZfWRj3yk5vK8/fbbqy7PemnG9duIceED6MKzj6mnF9KI89Vc7bjJycnsmpq7+5l6vab+HSEp41JPr9HjQubifFPHhXjjmr3fD2OC2farIY0+30aOC5mL800dFzIX55s6LmQuzjd1XMhcnG/quJC5ON/UcSFzcb6p40Lm4nxTx4XMNm5JuLO2UfH6OMqrxUkZp7yajfJqNsqrxUkZp7yajfJqNsqrxUkZp7z18XJg13lRXi1Oyjjl1WyUV7NRXi1Oyjjl1WyUV7NROwaflZ0zzuO2yvanDmWH0f2y3YzrevigDD21R7ZlB8UdHdvk9OC58vsx79kt5wZFdvWE9atk111D0+8fjnh9aZRXi5MyTnk1G+XVbJRXi5MyTn384x/PXx7053/+5/LWW2/Jb/zGb7jjNm7cmH/oWHhJZyuF612vz/B7ua+DsvPh3VIq3mYQbjO7m/yBbEF4C0f48LVPf/rT8oEPfCBfZy+rkPjyDBNwb1wc5dXipIxTXs1GeTUb5dXipIxTXs1GeTUbpb+32/2M8mpxUsYpr2ajvJqN8mpxUsYpr2ajvJqN8mpxvHHxOmXXeVFezUZ5tTgp45RXs1FezUZ5tTgp45RXs1FezUZ5tTgp45RXs1FezUZ5tTgp45RXs1FezUZ5tTgp45RXs1FezUZ5tTgp45RXs1FezUZ5tTgp45RXs1FezUZ5tTgp45RXs1FezUZ5tTizjeM94ZmF3B/vCZe8N/v+OE+jzzffuIr31rajq7n8Fvv2q9djdFe5YHl/70K+fj0Lqb+5sJAuv/nYX7P3+2Ec7wmvRX8++quP/motpv74ijIAADLDw8Ny8eLFYgkAAKA5mIQDTZL6zKk+qjaTcFopp5c6DkCt8fHxpO1xPuH+BQCA9sMkHGgC/dCFFOFrnWaTenpXc74AFj7uXwAAaD9MwgEAAAAAaBEm4QAAZO6++25ZuXJlsQQAANAcTMIBAMgsW7ZMlixhtwgAAJqLow0AAAAAAFqkY2JiouqjTicnJ/OfnZ2d+c96UscFY2Nj0t3dXSz5Gn2+9Fe2fv16OXz4sKxZsyZfbrf+Ys3ob+3atfl3pupl4JnL/tg+arVTf/pdkIvlU6H1e8Ltp2ov5OvXunz5sixdurRyXbdbf6pdLz9Ff75W9dfs/X4Yt2nTpqrzqIfrtxb9+ejPR3/1zff+luhXjmhUvD6O8mpxUsYpr2ajvJqN8mpxUsYpr2ajvJqN8mpxUsYpb328HNh1XpRXi5MyTnk1G+XVbJRXi5MyTnk1G+XVbJRXi5MyTnk1G+XVbJRXi5MyTnk1G+XVbJRXi5MyTnk1G+WtW2y8y8Cu86K8mo3yanFSximvZqO8Wshrr70mFy5cKEa1X38a5dXipIxTXs1GeTUb5dXipIxTXs1GeTUb5dXipIxTXs1GeTUb5dXieOPidcqu86K8mo3yanFSximvZqO8mo3yanFSximvZqO8mo3yanFSximvZqO8mo3yanFSximvZqO8mo3yanFSximvZqO8mo3yanFSximvZqO8mo3yanFSximvZqO8mo3yanFSximvZqO8mo3yanFmG9eR/W/6FDP67Ic++1NP6rhgdHRUenp6iiVfo8+X/sr6+vryZ4F7e3vz5XbrL9aM/kJvJ06cqFwGnrnsj+2jVjv1p88MR3eVC5b39y7k69c6fvy4bN68WZYvX54vt1t/ql0vP0V/vlb11+z9fhi3YcMGOXbs2Iz71YDrtxb9+ejPR3/1zff+eE84AAAAAAAtwiQcAIBMV1dX0qPbAAAA14NJOAAAmY0bN1Zeig4AANAsTMIBAAAAAGgRJuEAAAAAALQIk3AAADLDw8Ny8eLFYgkAAKA5mIQDAJAZHx+vfP0IAABAszAJBwAAAACgRTrOnDlTKn7PTU1N5T+XLJl5fp46Lrh06ZIsW7asWPI1+nzpr+z++++XF154QVavXp0vt1t/sWb0d99998nAwEDlMvDMZX9sH7Xaqb9169YVvy0u2b6h+G1hX7/W2bNn5Y477pClS5fmy+3Wn2rXy0/Rn69V/TV7vx/GPfDAA7PuVwOu31r056M/H/3VN9/76yhlit9z+lK82b4rNXVcMDo6Kj09PcWSr9HnS39lfX19cvToUent7c2X262/WDP6C72dOHGichl45rI/to9a7dZfR0dH8dviEO0WFvz1q8IOM9SuXLmSL7dbf6pdLz9Ff75W9dfs/X4Yt2HDBjl27NiM+9WA67cW/fnoz0d/9c33/mafxgPAIhcmpTaXL1/OE6/38sYbb7jrbVJPr9HjQrz+FqvwiHXKo9sAAADXg6MNAAAAAABahEk4AACZ8HJ0fb8XAABAszAJBwAg8+qrr8r58+eLJQAAgOZgEg4AAAAAQIswCQcAAAAAoEWYhAMAkOnq6kr62hEAAIDr0TExMVH1fTSTk5P5z87OzvxnPanjgrGxMenu7i6WfI0+X/orW79+vRw+fFjWrFmTL7dbf7Fm9Ld27dr8O1P1MvDMZX9sH7Xoz0d/Pvqrj/5qLfT+mr3fD+M2bdpUdR71cP3Woj8f/fnor7753t+Set8PG6+Po7xanJRxyqvZKK9mo7xanJRxyqvZKK9mo7xanJRxylsfLwd2nRfl1eKkjFNezUZ5NRvl1eKkjFNezUZ5NRvl1eKkjFNezUZ5NRvl1eKkjFNezUZ5NRvl1eKkjFNezUZ5NRvl1eKkjFNezUZ5NRvl1eKkjFNezUZ5NRvl1eKkjFNezUZ5NRvl1eKkjFNezUZ5NRvl1eKkjFNezUZ5NRvl1eKkjFNezUZ5NRvl1eKkjFNezUZ5NRvl1eJ44+J1yq7zoryajfJqcVLGKa9mo7yajfJqcVLGKa9mo7yajfJqcVLGKa9mo7yajfJqcVLGKa9mo7yajfJqcVLGKa9mo7yajfJqcVLGKa9mo7yajfJqcVLGKa9mo7yajfJqcVLGKa9mo7yajfJqcWYb15H9b/oUMxMTE/nP2V6SlzouGB0dlZ6enmLJ1+jzpb+yvr6+/Fng3t7efLnd+os1o7/Q24kTJyqXgWcu+2P7qEV/Pvrz0V999FdroffX7P1+GLdhwwY5duzYjPvVgOu3Fv356M9Hf/XN9/54TzgAAJnh4WG5ePFisQQAANAcTMIBAMiMj49XHuUGAABoFibhAAAAAAC0CJNwAAAAAABahEk4AACZu+++W1auXFksAQAANAeTcAAAMsuWLZMlS9gtAgCA5uJoAwAAAACAFumYmJio+p7wycnJ/GdnZ2f+s57UccHY2Jh0d3cXS75Gny/9la1fv14OHz4sa9asyZfbrb9YM/pbu3Zt/p2pehl45rI/to9a9OejP1+jzvfy5cuydOlSKZXKu8V260+16+Wn6M/Xqv6avd8P4zZt2lR1HvVw/daiPx/9+eivvvne35JwsGGj4vVxlFeLkzJOeTUb5dVslFeLkzJOeTUb5dVslFeLkzJOeevj5cCu86K8WpyUccqr2SivZqO8WpyUccqr2SivZqO8WpyUccqr2SivZqO8WpyUccqr2SivZqO8WpyUccqr2SivZqO8WpyUccqr2SivZqO8WpyUccqr2SivZqO8WpyUccqr2SivFvLaa6/JhQsXilHt159GebU4KeOUV7NRXs1GebU4KeOUV7NRXs1GebU4KeOUV7NRXs1GebU43rh4nbLrvCivZqO8WpyUccqr2SivZqO8WpyUccqr2SivZqO8WpyUccqr2SivZqO8WpyUccqr2SivZqO8WpyUccqr2SivZqO8WpyUccqr2SivZqO8WpyUccqr2SivZqO8WpyUccqr2SivZqO8WpzZxnVk/5s+xYx+R+qNN96Y/6wndVwwOjoqPT09xZKv0edLf2V9fX35s8C9vb35crv1F2tGf6G3EydOVC4Dz1z2x/ZRi/589Odr1PkeP35cNm/eLMuXL8+X260/1a6Xn6I/X6v6a/Z+P4zbsGGDHDt2bMb9asD1W4v+fPTno7/65nt/vCccAAAAAIAWYRIOAECmq6sr6dFtAACA68EkHACAzMaNGysvRQcAAGgWJuEAAAAAALQIk3AAAAAAAFqESTgAAJnh4WG5ePFisQQAANAcTMIBAMiMj49Xvn4EAACgWTqyA46q7wmfnJzMf3Z2duY/60kdF4yNjUl3d3ex5Gv0+dJf2fr16+Xw4cOyZs2afLnd+os1o7+1a9fm35mql4FnLvtj+6hFfz768zXqfIeGhuTOO++UFStW5Mvt1p9q18tP0Z+vVf01e78fxm3atKnqPOrh+q1Ffz7689FfffO9vyWlUklsVLw+jvJqcVLGKa9mo7yajfJqcVLGKa9mo7yajfJqcVLGKW99vBzYdV6UV4uTMk55NRvl1WyUV4uTMk55NRvl1WyUV4uTMk55NRvl1WyUV4uTMk55NRvl1WyUV4uTMk55NRvl1WyUV4uTMk55NRvl1WyUV4uTMk55NRvl1WyUV4uTMk55NRvl1UJi3pg4KeOUV7NRXs1GebU4KeOUV7NRXs1GebU4KeOUV7NRXs1GebU4KeOUV7NRXs1GebU43rh4nbLrvCivZqO8WpyUccqr2SivZqO8WpyUccqr2SivZqO8WpyUccqr2SivZqO8WpyUccqr2SivZqO8WpyUccqr2SivZqO8WpyUccqr2SivZqO8WpyUccqr2SivZqO8WpyUccqr2SivZqO8WpzZxnVk/5s+xYy+FG+270pNHReMjo5KT09PseRr9PnSX1lfX1/+LHBvb2++3G79xZrRX+jtxIkTlcvAM5f9sX3Uoj8f/fkadb6XLl3Ka1euXMmX260/1a6Xn6I/X6v6a/Z+P4zbsGGDHDt2bMb9asD1W4v+fPTno7/65nt/vCccAIDMsmXLZMkSdosAAKC5ONoAAAAAAKBFmIQDAJAJL0efmpoqlgAAAJqDSTgAAJlXX31Vzp8/XywBAAA0B5NwAAAAAABahEk4AAAAAAAtwiQcAIBMV1dX0teOAAAAXA8m4QAAZDZu3CjLly8vlgAAAJqj48yZM6Xi95x+Muxs35WaOi4Inzgbvn91Jo0+X/oru//+++WFF16Q1atX58vt1l+sGf3dd999MjAwULkMPHPZH9tHLfrz0Z+P/uqjv1oLvb9m7/fDuAceeGDW/WrA9VuL/nz056O/+uZ7fx2lTPF7bmJiIv8520vyUscFo6Oj0tPTUyz5Gn2+9FfW19cnR48eld7e3ny53fqLNaO/0NuJEycql4FnLvtj+6hFfz7689FfffRXa6H31+z9fhi3YcMGOXbs2Iz71YDrtxb9+ejPR3/1zff+Zp/GAwCwCAwPD8vFixeLJQAAgOZgEg4AQGZ8fLzyKDcAAECzMAkHAAAAAKBFmIQDAAAAANAiTMIBAMjcfffdsnLlymIJAACgOZiEAwCQCV8lkvK1IwAAANeDow0AAAAAAFqkY2Jioup7wicnJ/OfnZ2d+c96UscFY2Nj0t3dXSz5Gn2+9Fe2fv16OXz4sKxZsyZfbrf+Ys3ob+3atfl3pupl4JnL/tg+atGfj/58jTrfy5cvy9KlS6VUKu8W260/1a6Xn6I/X6v6a/Z+P4zbtGlT1XnUw/Vbi/589Oejv/rme39LwsGGjYrXx1FeLU7KOOXVbJRXs1FeLU7KOOXVbJRXs1FeLU7KOOWtj5cDu86L8mpxUsYpr2ajvJqN8mpxUsYpr2ajvJqN8mpxUsYpr2ajvJqN8mpxUsYpr2ajvJqN8mpxUsYpr2ajvJqN8mpxUsYpr2ajvJqN8mpxUsYpr2ajvJqN8mpxUsYpr2ajvFrIa6+9JhcuXChGtV9/GuXV4qSMU17NRnk1G+XV4qSMU17NRnk1G+XV4qSMU17NRnk1G+XV4njj4nXKrvOivJqN8mpxUsYpr2ajvJqN8mpxUsYpr2ajvJqN8mpxUsYpr2ajvJqN8mpxUsYpr2ajvJqN8mpxUsYpr2ajvJqN8mpxUsYpr2ajvJqN8mpxUsYpr2ajvJqN8mpxUsYpr2ajvJqN8mpxZhvXkf1v+hQz+h2pN954Y/6zntRxwejoqPT09BRLvkafL/2V9fX15c8C9/b25svt1l+sGf2F3k6cOFG5DDxz2R/bRy3689Gfr1Hne/z4cdm8ebMsX748X263/lS7Xn6K/nyt6q/Z+/0wbsOGDXLs2LEZ96sB128t+vPRn4/+6pvv/fGecAAAAAAAWoRJOBac559/Pn8mQDM+Pi733ntvZfmRRx4pRgLAtK6urqRHt4F2Eu/zzp49W7XP+8mf/Mli5LWz5xGeBf/a177GfhUArgOTcCw4999/f/5SPM3tt98uBw4cqCz/0i/9UjESAKZt3Lix8lJ0YL6I93nhwSS7z9uzZ08x8trZ83jllVfk3e9+N/tVALgOTMKx4IT3qNnccMMNsnr16qp1AAAsBHbfFhLv82b7BPMU9vTD6bFfBYDrwyQcAAAAAIAWYRKOBYf3hAO4FsPDw3Lx4sViCZgfeE84AMw/TMKx4PCecADXIjxgp18/AswXvCccAOafjuyAo+p7wicnJ/OfnZ2d+c96UscFY2Nj0t3dXSz5Gn2+9Fe2fv16OXz4cOU9Ye3WX6wZ/a1duzY/SJjpfXFz2R/bRy3689Gfr1HnOzQ0JHfeeaesWLEiX263/lS7Xn6K/nyt6q/Z+/0wbtOmTVXnUQ/Xby3689Gfj/7qm+/9dVy+fLlqEj41NZX/XLJk5ifJU8cF586dk1WrVhVLvkafL/2VhZeNhUetdUd5Pf3ddNNNxW9ohWzbLH5r/O0qdVzA9luLbQGW3VY9i237aPf+2H7nt0Ztb8Fi2j643c9vrd7PBOw/ajWyv45Spvg9py/Fm+27UlPHBaOjo9LT01Ms+Rp9vvRXFt6rFZ4F1k8uvZ7+Ojo6it/QCnbTbPTtKnVcwPZbi20BVrQbrbHYto9274/td35r1PYWLKbtg9v9/Nbq/UzA/qNWI/ubfRoPRMIdAWleMH941x9ZPMH85l2npH2DxvAuW9K+wcLFJBwAAAAAgBZhEg4AAAAAQIswCcd1uXTpkpvwXbsXLnxL3nrrLfn2t79djAYWLm87CKneFi4VowG0E2/bDWH7xULm3eZDuN0DzcckHNft1GtfqsrQX/61fO7zr2c/vyif+uzneE8LFo2abeF/Tm8L/z3fFsqfqgmg/bD9YjHidg/MDSbhaIj3v29dnoP/7Xn50l+dko1r3yPr1qzKP8p/aopJOBaPettCiW0BaHtsv1iM7O3+y/ntvpvbPdBkTMLRMFeuXJE333xTJqcm5e3s97ffvpLfefNMOBabK1cm821hajLbFt5+O98e2BaA+YHtF4uR3u4n89s9x3BAs3VMTExUbV1h4ws6Ozvzn/WkjgvGxsaku7u7WPI1+nzpr2z9+vVy+PBhWbNmTb58Pf3pd+LZO+Tw3qHw8qWf/emfkrfeOi/f+Mbfy7Jly+SWW26RD37w++Vf3Pv98iMfekBWrnxH8S8wG/0uT/0uwqDRt6vUcQHbb63ZtoXz58/L3/8928JC522rnsW2fbR7f2y/81Ojt7dgMW0f3O7np7nazwTsP2o1sr8lYWO0UfH6OMqrxUkZp7yajfJqNsqrxUkZp7yajfJqNsqrxUkZp7z18XJg13lR3rpYeKT0zjvvlHvuuVvuuOMO6etbK9/zPd+bPyM+lf27EFw977K367wor2ajvFqclHHKq9kor2ajvFqclHHKq9kor2ZTj24Ld99dvS1MsS0saN5txEZ5NRvl1WyUV4uTMk55NRvl1WyUV4uTMk55NRvl1WzqYfudH7zr1EZ5tTgp45RXs1FezUZ5tTgp45RXs6kn3K5nut3P9G/ROvH1GUd5NRvl1eKkjFNezUZ5NRvl1eKkjFNezUZ5NRvl1eLMNq4j+9/0KWb0kRZ9xKye1HHB6Oio9PT0FEu+Rp8v/ZX19fXJ0aNHpbe3N1++nv700Th7kwmfoPm5z39RNq5dnb9s7xd+4efl/e/fIt/3/T+Qncbb8td/M5o/inrrre8s/gVm413Ojb5dpY4L2H5rXdW28H0/kC+/zraw4Hi3A89i2z7avT+23/mp0dtbsJi2j/q3+9fzzz7gdt+e5mo/E7D/qNXI/nhPOK5L+YPXpirvAb/vvgdk+S235L9fyRLuNGa74wAWgslJ3RbK7yGtbAvFMs8oAO2L7ReLUfl2X3z2QXEMF16Kzu0eaD4m4bgu4b0RX//GP8pffP6v5eTpr8jyW98jK257r7w+/IZ8+f8Zy+7ceQkfFodwIFPeFr4kJ1+z28KofPlvx6TEtgC0LbZfLEaV2/1fZrf74hjuFm73QEvwcvTMQu6v2S9H//a3L2XLU+VHS7M761Cb/n0qXw7Db7/9tuJfYDbe5dzo21XquIDtt9a1bAv5gQzbwoIyVy8TbPfto937Y/udnxq9vQWLaftIvd3nt31u921jrvYzAfuPWo3sj2fCcV1uvnmZLF++XFbccou84x0r8k/QfOd3rJRbb/0Oue22W+Vd77qNO28sCrNtC7ezLQBti+0Xi5F3u/8ObvdASzAJBwAAAACgRZiEAwAAAADQIkzCAQAAAABoESbhAAAAAAC0SMeZM2eqPm4vfE9msGTJzPPz1HHBpUuXZNmyZcWSr9HnS39l999/v7zwwguyevXqfPl6+lu3bl3+c7ZPaMT10U/CzLbN/GfQ6NtV6riA7bcW2wICb1v1NOr2t3Llyvyn3u70/GcSvv936dKlxZIv9fQaMe78+fPFb2Vsv0jV6O0tiG9/uo1Zrdw+AruNNHL74HY/PzX6dn8924en0ee7mPrjK8oyC7m/Zn9FWdOdHZT+nl1yqFiUp4ak9MTWYmFh8i7nRt+uUscFbL+15mRbyI3L4EdWya6XikVj78mS7L6nWEBLpN4OmnG7XygW1/YrcvLpDtn2ZLFQYNtN0+jtLUi5/c2lRm4fc3W7Hz/QL6t2HjK385Oyr+OIbC/tlvxoTo/zFsHx3bWYy/0Mx3+1Gtnf7NN4LCrPP/+8fPWrXy2Wapdbqrhj3pLdcYc7n1LpnAy8vk06nj5ZDFg8/vAP/1D+7u/+rlhqrXe/+93Fb/WFZ9pme7YtaPS4IKW/a9FW20KVHTIwOv19riFDTxUlzDnvdtPYbTc8ENORH5jZ9B8YL+rwtM/2mwmTDd1+T+6VPfsHs2sV16Lx21vYvvpl8GyxmCtvc/tOFYu4Kl0PH8xu60MiW/dl0+9Ydtk+dlD6wz6NCTgWGSbhqPLLv/zLxW9l8XIrnfz98iOj088QdMnO/QOy48lnyjvIU/uiA9HpHWd45LWyXiftYfxHwsFOcRCbrQ/PSlQOXsOkvyPsJKIdblif/7u5s3fv3uK3aqdOnZL+/v78FQ/33XefHDhwoKg0TsqjfXpZz6bR44KU/q5FO20LVyc8y1C+/Dry23NQ3OYr67Pk20X9g0u7DU3XvdO260Kmt8OwfU2vD+PjsVmKbcuOrWyT9bbxyrbcfpp9uxk/8KjskgE5x4MwOXsf+IEPfKDufeD82H7rbaeZaFuY3iajf2O2i6vapjLufjPfZs2ktA32h1Yr7qfzbc559dFcSr3dB5/85Cflfe97X7E0V7bKRwdPyzPxg4WnnpNddz0uO/N3TFbvj/LbY3Fbq7ptVt0+7e2/fDutGZtl36nodhy2gxlOo8zur+x6oDGYhKNNjcvI6yI71vUVy4XV26X/oUMyoneGD+nB6DkZeKhYl925rnq5f3r969uqJxn5nX75ZU9bH9wrh86M5KvHTxzMJv3byy+PmgfCTnjbtm3ywQ9+UI4cOSI/93M/J7/2a78mv/M7v1OMuFrOAWAWnmGbT8J1uE1OD57LJ2fnsoOebZUDZvMM+kn/QZ1pJ+W5nVtkKIwdHZDT+TN1aad9blDk4ImwNjvAebA4v3z73CNHTm2V3cVp7tBt98WdItlB0zbRZweHZMvOR6cPeCrPGpptfBEbOXNI5K4+6SqWq9Vuw+X7PmfbLg5A6x/c1h6A+ge32Ugz2as6gDbjpk+3ceL7wMceeyy/D/zt3/7tYkSbenLb9OWS7XCGsm1g+vr0t9OTsr3YDsI2tkP2vGIuz7uKbSlsV8WqcPlf1TY1235zsTo7KI9ml8tA5YGuYruoebBjepLmPviRqdom8u3BbmNFEh7gSL3d6+T7xRdflP379xdr5054RvxZeTT7O7fJnuy/beHvfSW7XXvPgIfLfWfljYhlldvtkOx98kjYw2SX9ary8VxYf3KL7OrZJyP5M+/lByfDS+DD7zO93cM7jfKTMduyYvnf5+sfm/26Aa4Gk3AsOOMjp0Ve2iWr8p1a+f2zlQOWsN7e6d+zvXJnHg5u9z44vTPYs7XYKdr3pLeRX//1X88n3B/72MfyR8N/6Id+KH/Z+r59+4oRV4dn2BaCERl5aYf031s+pO+6t192vJSty5fqq9zWKweSYbK8WyQcTPYclP79YZIw02kfyg5cyqexKpu8P/5wGLNVtmYHPuUDUv997CqfWFYmJuEA7VAxkZ9BZRvP0oQJXrvqW5dNs14fmfFgUA8885c6VyZr3uQuPNgiznr/AFS8g1vZJ9ue3Dv9gE3+ktN6p9tY8X3gD/7gD+b3gU8//XQxok1VvRxdssmIvqqkvq33ZPum4lns8P7aadk2+Hrxq3G129SM+81FK9sOwkuls/u/6OmA7LLS+77whMEO2VE8mFH3wQ/3QQ7/QUn/AbZps93u48n3Zz7zmXzCPtfCZVO+DLJJdPZfuM8Yyi4t7/47vBJyy+D0g0o5c3s+PfjRbA9TfrKmctwWjufk9PSTNDWm91MdW/cU6+qdRtjfmX1jGP/SQTlS97SBq8ckfIELn4p+77335nfUIRs2bMijy3HOnj2bj9dxuhxqrdUlfXdld5nFs9QVZ4/IwWwi0Ff+sPf67EFOiE66sx3d0LpnzJ3+Vtn+VHiG7qQcyQ4kt5tHSysHsubZhVay18vXvvY1eeCBB6rWff7zn6/Zsf7zf/7P5eabb84/CMKOjRPfDl5//fV5/QzbD//wD1f9fXHiv7de7Dh724+XF5rpSVv1o/1bnwi3/345OOszAHaCl00qwnWdv72jQ55ZF545n/1Z7B3FM+yag/lEfgb2VTBz/Kyd3kbi24kuh233am9/Xn7xF39Ruh5+VgbEPACRJf6gr+kDx9My8Mj0A4u1stN1r5f0A9B88qavIFq9Uw7mH7bkn254yWz8N4Vn9OJ1cepdLldzH9i22++sE4eguJ/d35ff5sMz4RXZZOF0nfvtq96m6u0320y961WXU7e3kPj2d+DAy8W5hH3No3Lww88WL5W2dsjep05nxw3Zr+GY5K5+6S8X6j74kfogR9jGbT/e9jHT7f57v/d75T/8h/8g3/jGN2R4eLgyUQ+ZU/kz2yID+QO607Y+Ee6/i7cYqpFBeeb1AfnovcWyMq/g6H/ZvLIj2dW8Giww4/McdG4LwLVjEr7A/dEf/ZGcOHEi/4T0kFdeeSWPLsfp6urKD5R0nC6HWqttfSSb/GY7s+mD6/CodHifuL5/yNfVtyXbCeqdevngxb4krC8cxJo7/XA+sv8Z2dNmL0W310v48LHwVXN23Xve8x750pe+VIwue/PNN/NPY/zzP//zqrFx4tvBxo0b5/UzbL/7u79b9ffFif/eerHj7G0/Xm5f2cHWQ9PPeOVvsXgoW5cvXQX3fZ/Xctp7y8+K5w+eFasc4bZ3aOdzxbOB5Qdp5nJSfbX0NhLfTnQ5bLtXe/vz8rM/+7PZuXXJ9g9n22rlQYjaV6xMP4A42wMoXbLzxWdFHjOT7YrrOQD1Tze8Wif+m8KzdfG6OPUul3r3gW+88UbNfWDbbr+njmQTtS2zP7Cc2ftYmMCMy5GXp58JD9vhFvMKLnW129Rs+812Uu961eXU7S0kvv390A89WD6T4mXoz9Z54KLvwX45ne0Dw+Uv0dvm6j74kfAgR9jGbT/e9jHT7f6pp56SHTt2yMWLF+Xf/Jt/I//jf/yPyr+bS+XP+PGO3cJn/VTfT+3Zqa++mk35yZrKschVbEvT6p1GeX+36/d1fXgVyuyvWAGuSnZHUOXy5ct5ZpM6LsjuGIrf6mv0+aaOC+hvWm9vb2lkZKQyTpeDcHNxbjJNNlTKplmV8852YsX6zMm9pexAtJQdiGbOlQYe2lHKDhrLS4M7av+NHR9+r5xW+LdSyg5cC9Hy6EBpR+V8mk/7ttasWVP6m7/5m2KpLDvQKH33d3936a/+6q/y5W9+85ulH/3RHy09+uij+fJM/NtB+e+uXG5FsgMKp6aXdfXlPn251lsfXZ9Vp5VVn5q+3PPr0F7fuXqnOzP/761lx9nbfjD320IQ/f0Fe7lVX8Z7syW97sLvharrSceGVF8Xur7+acfrQvQ0zGln289Adnrl21LG2abs+eXjQo/6e8787UWtkoTbQDPo+Vve7SZsu1d7+6sr/9vNdZkJl53dTmvvu8xlF9jtxv29uO7senOeVbc3Wwvnp9d/vfOIXM/+Lb4PHB8fz+8Df/qnfzpfttpj+62+nWvKl6VuL952mlUr+7Ts8h3M1mfX6xfsfs5Et5mr2qbCkrffrNm+y5k+jdbR87auZ3sLam9/ej2Y7SUzfZsPl0eolX/uyC+/6cuxfBlW3zfm/y6/7PU0y+dRuQxnOMbwto+U2/2Xv/zl0k/8xE+UVq5cWfrEJz5ROn/+vHv5tUT+t9v7rHC52OXy5btj8Avly15ve+ZyqbpthlRun3p9hdS7zgK93orFqvukeqdRvv68024l/Ztnk7T/yKSOC5gf1UodF8zWX/i+s5LNt7/97Tzx+jip40K++tWvuuttGn2+qeNC6G86YbL3v//3/66M0+VQS70jmHfyA8fqHcJc0ss5vl6+8pWvVK0L+c3f/M3SP/tn/6z03ve+t9TR0ZFPwK/ldjA1NZWfd76jMwcD5R1jvgvMd1KVHVrKwX3Vji1Lvj7aEUbsTjPvpXJaVu3pvv3221V/X5z4760XO87e9uNlPW8sbno70NtIfDvR5bDtXu3tz8uVr/5Rdl9lDyzL4u1U+wrZe1LXOZO7+L6vavutfwBafXBbbKvF2LyPOqc7OTlZ8zdd7/7Nuw/0xi3E7Tdc7jWT4eyyrlnXYO75toBeb/WuV11O3d5C4tvf5OTX8u0l/vumb/PT+7Cwrry/rN4P5uuLXu3p2O2kat9mJptXrlyp6qfe9pF6u//iF79Y+vEf//F8Mq7njflFrzfv+rWZbf+hSR0XwvyoNqnjQmbrb0m4fm1UvD6O8mpxUsYpr2ajvJqN8mpxUsYpr2ajvJqN8mpxUsYpr2ajvFpI+Jqr8FPpsl23oISXGPXsEsk/5KO96OUe8q/+1b+qWRfy8Y9/vPLy87feekueeeYZd1wcVbUcPjgmfCJ2wgfDJNFPoQ/nUXk5evpLvMovjyx/aF75/cXFh4Y5p6t/R70or2ajwu/2th8vA1a924kuK7vei/Jqed7zY3Iw+xl/0m947375Ja/hZeDV/2b3PbouvFe7cM/u8kthK+/hLuj6XPGhUXmqX4oezs/2UP4e4PLYvI8ZTlfHabx1cZRXs/eB4SW54T7QG8f2u3DUu151Wdn19RKP020ofv/89G0+bBfl7SH/zIx8fxn+zfQ2kq8vTs+ejt1Oql6KHraXYr9bqRcJ4nUhqbf78Faz8CFu4W2JmN+869dGeTUb5dXipIxTXs1GeTUb5dXipIxTXs1GeTUb5dXizDauI/vf9Clmspl5/nO2795NHReEO4rwISkzafT50p/vesaF9/YF0U0GDeZdzk2/fsMkt2eXbDlZfXAdPhgtfLDWwYdFBj9S/QnXe0+ek779YV1433ZxwB0m1eHT5x8ZyU5vRB6P1+cHHuH9ieEDa4LwvtPpg5dwfkcenO4h/zTV4pOAdwxmfdx7ZIbTra/Rlx/bAoLU20Gjb38LyVzs39h+56dGb29Byu1vLjVy++B2Pz/N5X6G+VGtRvbHJDxDf7W8cdyBt4Z3Obfi+l3IGn25sC0gmMuDo4ViLvZvbL/zU6O3tyDl9jeXGrl9cLufn+ZyP8P8qFYj++PT0QEAAAAAaBEm4QAAzCNvv/12nhRf//rXi9/qSz29Ro8D5oNG3+5TxwFY2JiEA5hReDnNbMLLc/QlOjNp9LggpT9gIQkvS0x9SWnKdpR6eo0eB8wHjb7dp44DsLAxCQcAAAAAoEWYhAMAAAAA0CJMwgEAAAAAaJGOiYmJqjemTE5O5j87Ozvzn/WkjgvGxsaku7u7WPI1+nzpz3c94/Tj+HkvU3Pp11HY93K24vqth+2jFtsCAm9b9Sy27aPd+2P7nZ8avb0Fi2n74HY/P83VfiZg/1Grkf0tCRujjYrXx1FeLU7KOOXVbJRXs1FeLU7KOOXVbJRXs1FeLU7KOOXVbJRXs1HeOrSGd9nbdV6UV7NRXi1Oyjjl1WyUV7NRXi1Oyjjl1WyUV7MBLO82YqO8mo3yajbKq8VJGae8mo3yajbKq8VJGae8mo3yajaY37zr1EZ5tTgp45RXs1FezUZ5tTgp45RXs8H85l2nNsqr2SivFidlnPJqNsqr2SivFidlnPJqNsqr2SivFme2cR3Z/6ZPMaOPtMz2JeSp4wK+7L3WfOxPH42LbjJoMO9ybsX1Ww/bRy22BQSpt4PFtn20e39sv/NTo7e3YDFtH9zu56e52s8E7D9qNbI/3hMOAAAAAECLMAkHAAAAAKBFmIQDAAAAANAiTMIBAAAAAGgRJuEAAAAAALQIk3AAAAAAAFqESTgAAAAAAC3SMTExUfXFc5OTk/nPzs7O/Gc9qeOCsbEx6e7uLpZ8jT5f+vNdzzj9Tjy+Y7K59Dsh9bsIg1Zcv/WwfdRiW0DgbauexbZ9tHt/bL/zU6O3t2AxbR/c7uenudrPBOw/ajWyv47Lly9XbY1TU1P5zyVLZn6SPHVccO7cOVm1alWx5Gv0+dKf73rG3XTTTcVvaIVs2yx+a831Ww/bRy22BVh2W/Ustu2j3ftj+53fGrW9BYtp++B2P7+1ej8TsP+o1cj+OkrRQ2L6SIs+YlZP6rhgdHRUenp6iiVfo8+X/nzXO04fkUNzxY9Ut+r69bB91ArjOKBB8MYbb7B9ROZDf2y/81OYiCyE218wF/1xu5+fGnm7n8vbX0B/02afxgNGmBzGCQeh3nqbcAcS4tVsGj0uZPXq1TIyMuLWNI0+39RxId7lh/Z3PddvnEbfrlLHhdDfdI4dOyZvvvlm8umFYH5KvX7ZPmqTOi6k0f3h+qRezinjQtrp9tfb21tzrLdQtg8sTEzCAQDIdHV1JT26DQAAcD2YhAMAkNm4caMsX768WAIAAGgOJuFYcJ5//nnp6+urZHx8XO69997K8iOPPFKMBAAAwHwTH+udPXuWYz3MK0zCseDcf//9cvTo0Upuv/12OXDgQGX5l37pl4qRAAAAmG/iY73wdiKO9TCfMAnHghM+nMPmhhtuyD+cza4DgNjw8LBcvHixWAIAtCt7TBfCsR7mGybhAABkwltX9OtHAAAAmoVJOAAAAIB5g/eEY77rOHPmTNUXnU5NTeU/lyyZeX6eOi64dOmSLFu2rFjyNfp86c+3GPu77777ZGBgIH+ZUj1z2R/Xby3689Gfr1HnGw7i7rjjDlm6dGm+3G79qXa9/BT9+ejPR3/10V8tHTc2Npb/VD/2Yz8mv/mbv5m/N1yFzwTi8qtGf7656K+jFL4J3tCX4s32Xamp44LR0VHp6ekplnyNPl/68y3G/kJvJ06cmPH9QXPZH9dvLfrz0Z+vUecbdpihduXKlXy53fpT7Xr5Kfrz0Z+P/uqjv1r1xoVnv8MHstljPS6/WvTnm4v+Zp/GAwCwCIRHrFMe3QYAALgeHG0AAAAAANAiTMIBAMiEl6Pr+70AAACahUk4AACZV199Vc6fP18sAQAANAeTcAAAAAAAWoRJOAAAAAAALcIkHACATPh+2ZSvHQEAALgeHRMTE1XfEz45OZn/7OzszH/WkzouCF+o393dXSz5Gn2+9OdbjP2tXbs2/+7INWvWFGtqzWV/XL+16M9Hfz76q4/+atGfj/589FdfO/W3fv16OXz4cNWxHpdfLfrzzUV/S0qlktioeH0c5dXipIxTXs1GeTUb5dXipIxTXs1GeTUb5dXipIxTXs1GeTUb5dXipIxTXs1GeTUb5dXipIxTXs1GeTUb5dXipIxTXs1GeTUb5dXipIxTXs1GeTUb5dXipIxTXs1GeTUb5dXipIxTXs1GeTUb5dXipIxTXs1GeTUb5dXipIxTXs1GeTUb5dXipIxTXs1GeTUb5dXipIxTXs1GeTUb5dXipIxTXs1GeTUb5dXipIxTXs1GeTUb5dXipIxTXs1GeTUb5dXipIxTXs1GeTUb5dXipIxTXs1GeTUb5dXipIxTXs1GeTUb5dXipIxTXs1GeTUb5a1PWRdHeTUb5dVslFeLkzJOeTUb5dVslFeLkzJOeTUb5dVslFeLkzJOeTUb5dVslFeLM9u4jux/06eYmZiYyH/O9pK81HHB6Oio9PT0FEu+Rp8v/fkWY3+htxMnTkhvb2+xptZc9sf1W4v+fPTno7/66K8W/fnoz0d/9bVTf319ffmrHu2xHpdfLfrzzUV/vCccAIDM8PCwXLx4sVgCAABoDibhAABkxsfHK49yAwAANAuTcAAAAAAAWoRJOAAAAAAALcIkHACAzN133y0rV64slgAAAJqDSTgAAJlly5bJkiXsFgEAQHNxtAEAAAAAQIt0TExMVH1P+OTkZP6zs7Mz/1lP6rhgbGxMuru7iyVfo8+X/nyLsb+1a9fm3x25Zs2aYk2tueyP67cW/fnoz9eo8718+bIsXbpUSqXybrHd+lPtevkp+vPRn4/+6qO/WvXGrV+/Xg4fPlx1rMflV4v+fHPR35JwsGGj4vVxlFeLkzJOeTUb5dVslFeLkzJOeTUb5dVslFeLkzJOeTUb5dVslFeLkzJOeTUb5dVslFeLkzJOeTUb5dVslFeLkzJOeTUb5dVslFeLkzJOeTUb5dVslFeLkzJOeTUb5dVslFeLkzJOeTUb5dVslFeLkzJOeTUb5dVslFeLkzJOeTUb5dVCXnvtNblw4UIxqv360yivFidlnPJqNsqr2SivFidlnPJqNsqr2SivFidlnPJqNsqr2SivFidlnPJqNsqr2SivFidlnPJqNsqr2SivFidlnPJqNsqr2SivFidlnPJqNsqr2SivFidlnPJqNsqr2Shvfcq6OMqr2SivZqO8WpyUccqr2SivZqO8WpyUccqr2SivZqO8WpyUccqr2SivZqO8WpzZxnVk/5s+xYx+R+qNN96Y/6wndVwwOjoqPT09xZKv0edLf77F2F/o7cSJE9Lb21usqTWX/XH91qI/H/35GnW+x48fl82bN8vy5cvz5XbrT7Xr5afoz0d/Pvqrj/5q1RvX19eXv+rRHutx+dWiP99c9Md7wgEAAAAAaBEm4QAAZLq6upIe3QYAALgeTMIBAMhs3Lix8lJ0AACAZmESDgAAAABAizAJBwAAAACgRZiEAwCQGR4elosXLxZLAAAAzcEkHACAzPj4eOXrRwAAAJqlIzvgqPqe8MnJyfxnZ2dn/rOe1HHB2NiYdHd3F0u+Rp8v/fkWY39r167NvztyzZo1xZpac9kf128t+vPRn69R5zs0NCR33nmnrFixIl9ut/5Uu15+iv589Oejv/ror1a9cevXr5fDhw9XHetx+dWiP99c9LekVCqJjYrXx1FeLU7KOOXVbJRXs1FeLU7KOOXVbJRXs1FeLU7KOOXVbJRXs1FeLU7KOOXVbJRXs1FeLU7KOOXVbJRXs1FeLU7KOOXVbJRXs1FeLU7KOOXVbJRXs1FeLU7KOOXVbJRXs1FeLU7KOOXVbJRXs1FeLU7KOOXVbJRXs1FeLU7KOOXVbJRXC4l5Y+KkjFNezUZ5NRvl1eKkjFNezUZ5NRvl1eKkjFNezUZ5NRvl1eKkjFNezUZ5NRvl1eKkjFNezUZ5NRvl1eKkjFNezUZ5NRvl1eKkjFNezUZ5NRvl1eKkjFNezUZ5NRvl1eKkjFNezUZ5NRvlrU9ZF0d5NRvl1WyUV4uTMk55NRvl1WyUV4uTMk55NRvl1WyUV4uTMk55NRvl1WyUV4sz27iO7H/Tp5jRl+LN9l2pqeOC0dFR6enpKZZ8jT5f+vMtxv5CbydOnJDe3t5iTa257I/rtxb9+ejP16jzvXTpUl67cuVKvtxu/al2vfwU/fnoz0d/9dFfrXrj+vr68lc92mM9Lr9a9Oebi/54TzgAAJlly5bJkiXsFgEAQHNxtAEAAAAAQIswCQcAIBNejj41NVUsAQAANAeTcAAAMq+++qqcP3++WAKAuZXyvtOOjo48s2n0uKCd+rvrrrtq+uHyq5U6Ds3HJBwAAABoM7fcckvxW31Lly7NM5tGjwve/e53F7/V1+jzrTfuU5/6VM3XQbVTf5527w/NxSQcAAAAaFdnB6W/eAYzpP/AeFFoNydlX8e+7P+L3Kl90vH0or8UMAsm4QAAZLq6upJeHggALRMmdD0HpX9Uv1/4nPS/vKo9J+Knjsiep7bL1mJxsTr5yh7Z++BivxQwGybhAABkNm7cKMuXLy+WAGDuhQndjsFnZefqYoV0yc795+Txe4tFGZfBj+iz5P0yeLZYHSbvNc+ch2eqp59Rn3621p5Glo8MZmvKTj49vT4/HXO6Vesz4yOn88nn+IH+7LQHp0/TPCtcc3qF/N8U6+3fYcd3VJ5lD39HeUz53+2T/1H178vZd2p6XP6vwmnlvRTrD+jfUowJf1vlby9fJvtO5QtXcTmMy8jre2X76vDqhelXBYR/X7mc6vyt8WnqeVePDylON3qFRPXlo+vs5WTHTp8+5kbHmTNnSsXvOf1k2Nm+KzV1XBA+cTZ8/+pMGn2+9OdbjP3dd999MjAwIKtXV/ZgNeayP67fWvTnoz8f/dVHf7Xoz0d/vrns77bb/lb+v7d9XzanKsnue4qVkTC52yZDUnpia3kSl/0YKn1URj7yqMj+g9nkPUzIjsj20m7ZGiZnT4vs1rGvbC//u7Mns8pW2ZofJoXxz0jf6EHZfqJfVp15vDzGrA8PCIRJ3aPyrBx8uCv8o0yYtJbPM/93O0UG8rHh323L/4aPjsx0evvkyL27s9+nTyf825Onsr7yvz2sXyUjj4XLQv/t4zLSo39bWbg8jjyol5c5j7Phstkj8lS4rCTvaU/+e/lBg1Uv98u5F/vkOb2swgS3Z0Qez37vC/XUyyH8u8dEnn1xuxypug5m+1uzUz6VXQv3lP+SvKfiPKvPI5xWuUfJ/tZn1p2L1ofrXi+nbHW4nvf3ZX/bTslHmcvnG9/4xowfRsr2W6uh/ZUily9fzjOb1HHBG2+8UfxWX6PPN3VcQH+1UscF7d5fNvkujYyMFEu+Rp9v6riA67dW6riA/mqljgvor1bquID+aqWOC+ivVuq4gP5qpY4L2r2/CxfOlAYektLek8WKGuei+lBpr+woDYyWl84N7ghPtE3XRwdKO54aKv9+cm8pm5CWf8+VTyuMl+I0hp7S5ensGDxXHp2dtv6eC6f90EB2KsX5mtMOpxPGznR6Q09p36GP6b8hsP+u/LeEvzMs781+qxbG1l4exWkO6t9cfTnlvRenVfn35vKZqe/4crDLld/NZRPM9Lfm56vnU5x/9XmE3su9+uv1srGZPo/qy2dmbL+1UscFs/U3+zQeAIBFYHh4WC5evFgsAcBce7f03SVyemT6Zdu5/GXIs38AWtfDByWbdols1Zcvj4is68trVfKXQZefPQ3js0lcRTbJK96LXs70M9/Vxk8cFPnw9vzZ1pn4pxdewr1F+laXx1QUL7cOz/ZmU04ZeKhYn9shAyf75JmEy0FOPCe77npcdjp/emzrg3tlzysna97XnXY5jMuRl0X67y3Xuu7tF3n5iJysumzq/K35M/0d5Wets9PPJtjF+vrC9fusPFq8vHyb7CnW55dN5TMEQsrPtKO9MAkHACAzPj4uExMTxRIAzL0wKTy089Hp9w2Hydpju0QGPypbs2ldmKSHSWMufDCahAleeGly7eT05CunKxPEGg8NyEfzly+H0yjrW7cjO+/nitMJp1n/fcQjZw7Jlj5z2k9mk8/8l5Ny5EnJa3VP7+wROXhXvQ902yuPhwlvGPNSsUqt3inPDp6WZ8x7y2sdkl07RYbyl5Jbh+TgieI92tkk+dBDfZLP0e/5qAzIM/LMk3tle/6S9qu5HEZk5CUzwc76e/yug/KMmZjP/Ldmf+1j4WXjYTJ/qFgzk5Py3M4tMpRPtPXBk+zveCj7m3+/uPbzB1gSHqhAyzEJBwAAANrRPbuldHKL7OrRD9RaJQc/rO8DzibpT5yTgde3lWtbT8vAaHh/9Fb5aDY53ZaP3yanswl7eP/wtiezyZmeTnh/9JPbypPJe7bL3pd2yaqw/pU+GcgmcSPZpD880zr01B5zOufqvDc9TLSnJ625h7LJcfHvwnuvw79zTy98gFnPLjmU9aJ/366Xsj4fG5Tx1dul/6Fi/GPZRPap2lcFdD38uGypTJB9O/IHLBwvl59Fzt+/vr/8nunsFGX7umyKbj7lPflycD4dfuuDW7Lpfr9sDxPz/H3mdf7WcL4f3iF7tob1j4p8OJtSvz4iXwzvDd8ZPcCRC8+ch/faT78fvqxLdr6YTcj1PCq3CbSdUmQuXhMfNPp8U8cF9FcrdVzQ7v3xnvBaqeMC+quVOi6gv1qp44JW9nfs2LHSm2++mXx6AZdfrdRxAf3VSh0X0F+t1HFBu/d34cKF4rfr570XOLynOPX9wVcjnK6Y90DPKHq/dNlQaW/qv78m5fdN+397/D776xMu98r7tufkb712bL+1UscFs/XHM+EAAGTuvvtuWblyZbEEAFhcwkvNV8kuKV6af13K7/He9mTxcnogwiQcAIBM+CqRlK8dAYD5ZusTtV9zFl5m7b+8/PqE0y0VX4k1q9U75WDN2K2yO/XfX5Ps9Eu1l4euT+59RuFl4eG92ual4HPyt6JdcbQBAAAAAECLdExMTITvkKuYnJzMf3Z2duY/60kdF4yNjUl3d3ex5Gv0+dKfbzH2t3btWjl69KisWbOmWFNrLvvj+q1Ffz768zXqfC9fvixLly7Nv9IlaLf+VLtefor+fPTno7/6zp8/L+985zuLJd/U1FT+c7ZX8TR6XPCP//iPbdPfE088IT/zMz8j73rXu4o17dWfpx3602UP22+tRva3JBxs2Kh4fRzl1eKkjFNezUZ5NRvl1eKkjFNezUZ5NRvl1eKkjFNezUZ5NRvl1eKkjFNezUZ5NRvl1eKkjFNezUZ5NRvl1eKkjFNezUZ5NRvl1eKkjFNezUZ5NRvl1eKkjFNezUZ5NRvl1eKkjFNezUZ5NRvl1eKkjFNezUZ5NRvl1eKkjFNezUZ5tZDXXntNLly4UIxqv/40yqvFSRmnvJqN8mo2yqvFSRmnvJqN8mo2yqvFSRmnvJqN8mo2yqvFSRmnvJqN8mo2yqvFSRmnvJqN8mo2yqvFSRmnvJqN8mo2yqvF+da3vpUf9Ldr2qm/wcFBeeutt6rWcfnNHu92p0m5nSqvZqO8mo3yanFSximvZqO8mo3yanFmG9eR/W/6FDP6Hak33nhj/rOe1HHB6Oio9PT0FEu+Rp8v/fkWY3+htxMnTkhvb2+xptZc9sf1W4v+fPTna9T5Hj9+XDZv3izLly/Pl9utP9Wul5+iPx/9+eivPvqrVW/cvffeK7/6q78q//Jf/stiDZefh/58c9Hf7K+VAAAAAIA2dfbsWVm9OnwZNzA/MAkHACDT1dWV9Og2AADA9WASDgBAZuPGjZWXogMAADQLk3AAAAAAAFqESTgAAAAAAC3CJBwAgMzw8LBcvHixWAIAAGgOJuEAAGTGx8crXz8CAADQLB3ZAUfV94SHL24POjs785/1pI4LxsbGpLu7u1jyNfp86c+3GPtbu3atHD16VNasWVOsqTWX/XH91qI/H/35GnW+Q0NDcuedd8qKFSvy5XbrT7Xr5afoz0d/Pvqrj/5q1Ru3fv16OXz4cNWxHpdfLfrzzUV/S0qlktioeH0c5dXipIxTXs1GeTUb5dXipIxTXs1GeTUb5dXipIxTXs1GeTUb5dXipIxTXs1GeTUb5dXipIxTXs1GeTUb5dXipIxTXs1GeTUb5dXipIxTXs1GeTUb5dXipIxTXs1GeTUb5dXipIxTXs1GeTUb5dXipIxTXs1GeTUb5dXipIxTXs1GebWQmDcmTso45dVslFezUV4tTso45dVslFezUV4tTso45dVslFezUV4tTso45dVslFezUV4tTso45dVslFezUV4tTso45dVslFezUV4tTso45dVslFezUV4tTso45dVslFezUV4tTso45dVslFezUd76lHVxlFezUV7NRnm1OCnjlFezUV7NRnm1OCnjlFezUV7NRnm1OCnjlFezUV7NRnm1OLON68j+N32KGX0p3mzflZo6LhgdHZWenp5iydfo86U/32LsL/R24sQJ6e3tLdbUmsv+uH5r0Z+P/nyNOt9Lly7ltStXruTL7dafatfLT9Gfj/589Fcf/dWqN66vry9/1aM91uPyq0V/vrnoj/eEAwCQWbZsmSxZwm4RAAA0F0cbAAAAAAC0CJNwAAAy4eXoU1NTxRIAAEBzMAkHACDz6quvyvnz54slAACA5mASDgAAAABAizAJBwAAAACgRZiEAwCQ6erqSvraEQAAgOvRMTExUfU94ZOTk/nPzs7O/Gc9qeOCsbEx6e7uLpZ8jT5f+vMtxv7Wrl2bf3fkmjVrijW15rI/rt9a9OejPx/91Ud/tejPR38++quvnfpbv369HD58uOpYj8uvFv355qK/JaVSSWxUvD6O8mpxUsYpr2ajvJqN8mpxUsYpr2ajvJqN8mpxUsYpr2ajvJqN8mpxUsYpr2ajvJqN8mpxUsYpr2ajvJqN8mpxUsYpr2ajvJqN8mpxUsYpr2ajvJqN8mpxUsYpr2ajvJqN8mpxUsYpr2ajvJqN8mpxUsYpr2ajvJqN8mpxUsYpr2ajvJqN8mpxUsYpr2ajvJqN8mpxUsYpr2ajvJqN8mpxUsYpr2ajvJqN8mpxUsYpr2ajvJqN8mpxUsYpr2ajvJqN8mpxUsYpr2ajvJqN8mpxUsYpr2ajvJqN8mpxUsYpr2ajvJqN8mpxUsYpr2ajvJqN8tanrIujvJqN8mo2yqvFSRmnvJqN8mo2yqvFSRmnvJqN8mo2yqvFSRmnvJqN8mo2yqvFmW1cR/a/6VPMTExM5D9ne0le6rhgdHRUenp6iiVfo8+X/nyLsb/Q24kTJ6S3t7dYU2su++P6rUV/Pvrz0V999FeL/nz056O/+tqpv76+vvxVj/ZYj8uvFv355qI/3hMOAEBmeHhYLl68WCwBAAA0B5NwAAAy4+PjlUe5AQDt6/nnn8+f/dacPXtW7r333sryI488UowE2hOTcAAAAADzxv3335+//FwTvt3iwIEDleVf+qVfKkYC7YlJOAAAAIB5I7z32+aGG26Q1atXV60D2hmTcAAAMnfffbesXLmyWAIAAGgOJuEAAGSWLVsmS5awWwSAdsd7wjHfcbQBAAAAYN7gPeGY75iEAwCQuXTpkkxNTRVLAIB2Zd/7HcJ7wjHfdJw5c6ZU/J7TA5DZXpKXOi4IBzbhZX4zafT50p9vMfZ33333ycDAQH7nXM9c9sf1W2vdunXFb4BItp8qfvM16vYXXs54xx13yNKlS/Pldt0+UscF9FeL/nwLpT/2H8Di0arjA9XI+7+OUqb4PaffkXrjjTfmP+tJHReMjo5KT09PseRr9PnSn28x9hd6O3HixIyPis5lf1y/tTo6OorfAJFoN1WjUbe/48ePy+bNm2X58uX5crtuH6njAvqrRX++hdIf+w9g8WjV8YFq5P3f7NN4AJgj4c6VLN4AwLXy7lMIIQsjCwGTcAAAMuGDfVIe3QYAALgeTMIBAMhs3Lix8lJ0AACAZmESDmBeCB9w4eXixYty4cK35B/feku+/e1LxWgAAMq8fUcI+w8Ac4VJOIB549RrX6rK0F/+tXzu869nP78on/rM56RUKn9qJQAAFvsPAO2ESTiAeeX971uX5+B/e16+/IVTsnHte2TdmlX5AdTUFB/mhWs3PDycPzMGYGFi/wGgXTAJBzDvXJmclDfffFMms59vX3k7y5X8AGqhfGIm5sb4+Hjl60cALEzsPwC0g47sgKPqXifcKQWdnZ35z3pSxwVjY2PS3d1dLPkafb7051uM/a1du1aOHj0qa9asKdbUmsv+uH5r6SdU24Oi8P698BLCn/3pn5Lz58/L3//938uyZcvklltukQ9+8PvlX9z7/fIjH3pAVq58R/EvMN/p9/3ONjFu1O1vaGhI7rzzTlmxYkW+3K7bR+q4gP5q0Z9vofTH/gNY+Fp9fKAaef+3JNxJ2ah4fRzl1eKkjFNezUZ5NRvl1eKkjFNezUZ5NRvl1eKkjFNezUZ5NRvl1eKkjFNezUZ5NRvl1eKkjFNezUZ5NRvl1eKkjFNezUZ5NRvl1eKkjFNezUZ5NZt6wrMVYZJ09913yx133CF9fWvle77ne7P1kzKV/bsQLDzebcRGeTUb5dVCYt6YOCnjlFezUV7NRnm1OCnjlFezUV7NRnm1OCnjlFezUV7NRnm1OCnjlFezUV7NRnm1OCnjlFezUV7NRnm1OCnjlFezUV7Nph72H8DC490H2CivZqO8mo3yanFmG9eR/a/qXkcfUZjtu1JTxwWjo6PS09NTLPkafb7051uM/YXeTpw4Ib29vcWaWnPZH9dvLX2E0949hffqhg/RCe/he/vtt+UXfuHn5f3v3yLf930/kC+//jej+TMZt976zuJfYL7zbgeeRt3+wrNloXblypV8ebbTC9h+a9Gfj/58jT5f9h/Awtfq4wPVyPs/3hMOYF6YnAwfnDP9Hr777nsgfylh+D1/T192RzzbnTEwk/Dy1CVL2C0CCw37DwDthqMNAPPCZHYA9fVv/KP8xee/JCdf+4osv/U9cstt75XXh9+QL//tmJSmeDkhAKAW+w8A7YZJOIB54aYbb5If+dD90v+hB/KXDeb54fLPh4rfhWMoXIfwcvSpKb4rGFho2H8AaDdMwgHMCzffvEyWL18uK265Rd7xjhX5p9i+8ztW5u/hu+22W+X2d90mt99+WzEauHqvvvpq/snJABYW9h8A2g2TcAAAAAAAWoRJOAAAAAAALcIkHACATFdXV9LXjgAAAFyPjomJiaqPopicnMx/dnZ25j/rSR0XjI2NSXd3d7Hka/T50p9vMfa3du1aOXr0qKxZs6ZYU2su++P6raUTIb4yZnHT7wHV7+WsZ7FtH/Tnoz/fYuuP/Qew8C2E44Ml4U7KRsXr4yivFidlnPJqNsqr2SivFidlnPJqNsqr2SivFidlnPJqNsqr2SivFidlnPJqNsqr2SivFidlnAq/hw27XsJGF+LVbFLHhaxYscJdb9Po843H6d/uZaaaRnk1G+XVbADLu43YKK9mo7yajfJqcVLGKa9mo7yajfJqIXZbb4f7l5nSqP7C363iyyOO8mpxUsYpr2ajvJqN8mpxUsYpr2ajvJqN8mpxUsYpr2ajvJoNgMXDuw+wUV7NRnk1G+XV4sw2riP7X9U9lj6iMNtL8lLHBaOjo9LT01Ms+Rp9vvTnW4z9hd5OnDghvb29xZpaV3N6i81cXL/hoDqI7p6a6+yg9PfskkPFYtleGSrtlq3FElor9XbQ6Nvf1dwftPv932KyGK9f+qs1J/uPazYugx95VGT/Qdm5OlvU/dBTQ1J6gj0PUM9COD7gPeFALOwEPzKY7RqNsK5jn5wsFnH9nn/+efnqV79aLLWJhwbkXHaHHu7Uy2EC3m6aebsZHh6WixcvFkvzGPdhWODi+4G23J9ctWxC/thB6R/N9j1MwIEFj0k4MKuwY4yfIcX1+uVf/uXit2mf/OQn5X3ve1+x1E5Oyr6Ofhk8sC9/9LUj/H62KOU1fVmsTnLCsxsdsu9UvmAmRdXrxw/0S4ddfyBMlMqnVfm3mXxcsb7/QHlqZdflebqYXuWTren1VeN1TH5+5b+han3+b6f/tqrzqPzbueXdbhplfHy88ij3wsJ9GBaW+H6gmfcLLXPqOdl11+PlZ8Rz5f1C5T64eGCtfJ89OF3L75vtfqiI2beU1xX37dGDdOH0yvuJYj+n+wXdn53S/V45dt9UFvUZ4u6Pov2ju7+zf4fdz/qXRV7x9lOh52zM4NPV4+3fVb4c89/Kp/30/yj3FXrJ/+Zw/tOXSXAynF68L6yMLX4vzisfm/3+xcr5ZOw+Nrpc6/1N+XUTjy3WT/8N+b/K+p/uteY0onXl87OX6/S/RWswCQdmMX7gUTn44QHZWyzbO9kg3NFW7rQr68s7kvKOpfpOfHoHWOyIip1PfudY/PuqO1Zzp11eH+98q0+nqo+aHaC9w7Xr55ZOvl988UXZv39/sXYOvLRLVtW9bA7JrjPb82fIzw2K7HpMr8NtcnrwXLH+tGwzt40ZZdfNozurp0V7XhZ5NjwDf3Kv7NlanHd2fa7auUWG8mfmh2TLzlXT13V4yWKxfu+TR/Lx42f7yqdRnM6hl4+k9RP+FjtRC+f7cn/xyoBzMvD6tunzxbzCfRjQzrJ9S092O34l27/YZ8DPjkjf/uK+PNzHv3RQjug2+ORBkbwW7vvDffNW2R3GjQ7IDn1F14s7ZeTpVdnEvthPnNySnU/KtnJSnsv3OeVXgp2U8n4v5NzgDtnzin8Ke0+Wx4T9Tll2v9FTPLOf/9ts/1iZMHr7u/L+VCqnk/Wb72cLdxV/V/gbi1Uz7qey/fnIg8V62SWPZhPRrocPZqcrVX2UH/wIL///fxUrsj72n5aB0eItAio7r21PFr9b9+zOeuqXg7bX7H7rmdezfrPr4J8Vq/LTjR8Mrbz6LvRYXL/hb4r3+ZKdR7YcLv8dxfHGwYe7yqfh8U5DLxc9brjm2wcahUk4MJMwUcru4J99uK9Ykebk09tkT/F7knA+0YSszLnTrtn5dsn2D++Q0yPFofMre2THh7dLl7sDHJGdLxb/Nn+/c/h97l5yHSbddvL9mc98Rj74wQ8W1TkQvRy9+qBhhww8Ur6kuu7tlx0vjUj+30s7pP/e8s5wen3Znq3FJKHmvebZ9fT7u2TLoDmYyOx9bGd2vWXu2Z5dO6dlJExaRk5nO83txXW0VbY/JZXrWrLrvzwJCQ8EfDQf03XPVunSicvW6FZYGZ/teF8q1qn8QGRABh4qL+bnW3lQojy+3sEX2hj3YUCby/Yt2W18SLL7Zzs5XL1Vtq4OE9PyfXzV9viUPmMe7ROqjMvI69l+5cFi69D9ivTJFjuhrxIeEDgi2802tTXbp+QPjGX7glXuNl7H2ZHs3IoHGPTfFg8WB7X7u7A/NfvNsP+q9JnVsr8lNuN+Ktuff/Se8Ev5/uXQmWLPHCbNDx4p+sku8+jBjz1bzXv0K4qJ+WDlocxqq3fKwf0ij+Y9Z/08JvJsNsmtmiZH+9ic7b14FcSM+3yPs19PO406tw/3doFmYBKOBW/VqlVy7733Sl9fX91s2LAhT/j9wH8fKv5lOHjMDgD3R3ekQeWOs6P2kdHsYDQ8AjqQ3eml8iZkOe9O29n5hsmf5M94hjvVYlI4yw7Q+uEf/uGay0Szbds2d72Nvfxmih33d3/3d7J79275xje+kb8X92Mf+1hlXLvIJ9Wvj2SX6rWpPDNgH7kPRsq3kY/eWyxfq8oz4eek/+VH82ca85fA9YzI42F95RmJghlfdZvKDnDyA4xHthfLhcr4InP0PkW9XYScPXu2Znu+ltufl3//7/+9vP/9708+vZBmbR8zZbZxr39ltLjkFs99WPi7G3X52bTj9WuzWPuL7wfs8ny19Ql9UKpYkU98V8nIY+H+Nzzo1Chb5aPh1Vx2u6rYIQMn++SZyqtLigcB9vflD1CHZ2Kvjj5QppntAbPyAxLT4/UD67L7grv6au/HgqvdT4XLNZt4539L9m/PrXum8nLtYO/Jx2WkJ3pp9olwP5bdb9W7eYUHvsPEO+xzw4P5j43IKvuASr19rHngPzwIU7nur0bd/Tra3Q3FT2DB+q3f+q18Ij6Tt99+O/+5dOlSedelI/Inx7O7zPwlnM/KwapHQwvhjrN4lDNMeo6U1+aOhIPRbKfZ98quyjOiMyomZM8+kh2MvlysyxV32vs/KpIdSM9o9Xbpl0flSHYHnh1yy7P5TisU0j7d+3d/93frvhf23LlzV3X5zcSOu+eee+R7v/d75dixY7Jz5075iZ/4CbnlllvyerscSI2fOCiHsh1v+dI/JAdPjMvOh7vK6x/KLmfJDgAf8taHa6++PTsP5i9165LsSMgIj+Dvzp91OCJ7ZIsMZddjV98WkZ3ZxCM7sNiaHRYdySZMW05mt7wZzmBH8ax4eEZRZCBfN6Mnd8nBwXP5bV07Kp/vMzL4SDgICgdiq7LtIRsz00vgmiR8z78KB9oHDhyQ1aunN8xruf3NJHVc0KztYyazjesu/f/yn4vpPizcRhbL9Wst1v7i+wG7PH8n4mFyvENW7R+Uj+qzqPpsbr5PMPfm4cGoeJ9Qo0v67som295+Jbws++HyqPAWkUfLv5at3inPDmbrsonpwWJM+VnrbD/wcjZhz/aJSVb3Zee2S5458NF8vxHOJ3/p+IvliWjt/i673rL96a7fPyk7w0Q6TJazH2H778v2rVserL0PqbufCjeB/Fn0nfn6I1nfO7L7wvxBhf3Zab6YnfCB/CSyy+JZ6f/Ic3Ly4ex+KrdVdp/cIh15H2E56yl/aXe5V8/J3w8Pdmb79LP7yivu2S1Dr4SJ/EHJ/1pnH1tP3X3+VUg7bqh/+0CLlCKXL1/OM5vUccEbb7xR/FZfo883dVxAf7VSxwULrr/RgdKObNPIdn6lc+U1maHSXtmb/T9zcm9VbegpKe09mf0S1od/91Q+anp9/m93lAZG89Xl08///bnSwEPZeK1V1pdK5wZ35Ke1YzBfysaVx5TXF33kp6vnkcnOf0c2rvxvgnJdl/N/W+nb/D2zaNb129vbWxoZGSl9+ctfLmUT8NLKlStLn/jEJ0rnz58vX45ZWkqv96pUX9bh8i2vN9dnUaseX75uK9dNfJ0Xt5F4/fTpm3+b0dtDSNX1WazLo6ept8MsewfD31TuKR+vY/Lz825T0+vzJXselX/bOnrelt5urGu5/c0kdVzQlvd/eluubO+B2eYX6H1Ywy4/g/1vrdRxQbP3H8oue/cb7av6Pre8rLf58u2/vE0O5OvDtlLeDrLtpFIzW4HZBst0Gw2x5zMtnN70+emY6e1Lt+X83w9W33eUlc/DbseVnvS+KI/dz9Tb35m/uehl+vyrU3W/oOv1fPP7suzv0r/d3C9V/Ts7/qlPm79Dr5dyP/pvqv42ZdeF3/XyKa6LL+T92b+9uIzzHov+TI+B/Zsq552x/QdVf4M97bDknEb1+KB8XZTHTf/b+UD/ttlcy/3LTFLHBbPd/3VMTEyEP6JicnIy/9nZ2Zn/rCd1XDA2Nibd3d3Fkq/R50t/Pvrz2dPrPPeiPLTmkPRXfShH+GCi4n1S4dHZ8NIs+yzSgyXZLeFR29OVD/OorL8n/Nva91fuGPyC9L+8WcofCLJ1+uVM2elKeMS48sEo4dHd8nuUtp8IjyRn//alQ5K/gCy8DCn821w4n2ekz/YdTrPyfmT7jJL5e7KlK1euhHuyvBJr1vW7fv16OXz4sKxZsyZf95WvfEV+8zd/U/7kT/5Esol4vq5eT61Xvg7DB8bszt9j1mhz+0xzuwovlQzsqzTi203QqPuNbMeaP8umt7vZTi9ox/u/G8ZflB957+K6DwvPkjb6cg7Y/9Zqh/7i+wG7rN/f2z77j8aafka5eLZ83rm6/V35mfpnq8dm92H9I+Vn2F3mWXS9d8HC4h0feNr5/q8jzOaL33NTU1P5zyVLZn67eOq4IOXlSI0+X/rz0Z/Pnt4NN9yQdLrXw92pJJhx5xsdWF+NcABb74ClWdfvT/7kT8qePXuqJlNBmIxv3rw5/51J+OKmO9kwOVbe7aZR9xsnT56UO++8U1asWJEvp9wPtOP9X3ggQS+7Zmm3+7BwINboyzlg/1urHfqL7wfs8k033ZSvYxLerpiE4/p5xweedr7/68jupKrupfQRBX0ksZ7UccHo6Kj09PQUS75Gny/9+ejPdzWn1wiNPoDN1+88lH8QWKMniXNx/eqd60I9iEKa1NtBo25/x48fzx8AWr58eb6ccn/Q7vd/zdKO92HNuPzY/9Zq9/7YfwALX6uPD1Qj7/9mn8YDaLjwoShXe/Aa5B+m4jz6na/P7oia8ywtAFTjPgwAgGvHJBwAgExXV1fSo9sAAADXg0k4cBXCe6f1a1Jmkjou+PrXv178Vl+jzzd1HLCYbNy4sfJS9IWi3e9fGtkfAADzBZNw4CqEl0umvM8sdVyg7y+ZSaPPN3UcgPmt3e9fGtkfAADzBZNwAAAAAABahEk4AACZ4eFhuXjxYrEEAADQHEzCAQDIjI+PJ708GgAA4HowCQcAAAAAoEU6zpw5U/VpJ1NTU/nPJUtmnp+njgsuXboky5YtK5Z8jT5f+vPRn4/+6puL/tatW5f/5MOYFreOjo78Z7afyn/W06jb39mzZ+WOO+6QpUuX5svtun2kjgvorxb9+RZKf+w/gIWv1ccHqpH3fx3ZnVTVvZS+FG+270pNHReMjo5KT09PseRr9PnSn4/+fPRX31z0p3euHEQtbqm3g0bd/sIOM9SuXLmSL892egHbby3689Gfr9Hny/4DWPhafXygGnn/N/s0HgCARSA8Yp3y6DYAAMD14GgDAAAAAIAWYRIOAEAmvBxd3+8FAADQLEzCAQDIvPrqq3L+/PliCQAAoDmYhAMAAAAA0CJMwvH/b++OYuM6z/SOfyQtRZFlbWzHBc0VK7EbQQHUVLEXW1kGjE0MJM0iSIpI6wCW0YugSW8W6IVboAvYm4u1nZsEvtteZbO5kVw4kIte5KKoYEMIQlkJbGCj3aQshAoxBYppgqSRClmiRbHnOz4P+fKbZ8RPFoceUf9f8Ig887yaeTFyJB7ODAcAAAAAsEE4CQcAoDE+Pl71tiMAAAC3Y2RhYWHVG6wtLi62H8fGxtqP/dTOZXNzc2liYqI78tb7dtnPYz+P/fr7MPbTiRDv83p30/uA6n05+7nb/v/Bfh77eXfbfvz7AWx+m+Hrg9H8l1SMlJeXEdeVqZkT18WI62LEdWVq5sR1MeK6GHFdmZo5cV2MuC5GXFemZk5cFyOuixHXlamZE9fFiOtixHVlaubEdTHiuhhxXZmaOXFdjLguRvJfsuTujbj/RmLEdTHiuhhxXZmaOXFdjLguRlxXpmZOXBcjrosR15WpmRPXxYjrYsR1ZWrmxHUx4roYcV2ZmjlxXYy4LkZcV6ZmTlwXI66LEfd3CiFkc0Tc3wEx4roYcV2MuK7MWnMjzS8r19jQdxTWekpe7Vw2OzubJicnuyNvvW+X/Tz289ivvw9rv4985CPdEe5m77zzDv//KLCfx37e3bgf/34Am9+d/vUBrwkHMJSuXbtmv3NYJv8l7C6PyddVc33rPZdzO/vt2bMnnT9/fvm49nZr53KG/f7bSDMzM+nKlSvdEYA7Ve3fL5v5348y6z2Xw369qZ3LYb/e1M7l3Ok4CQcAoDE/P7/8XW4AAIBB4SQcAAAAAIANwkk4AAyJ73//+2lqamo5Fy5cSE888cTy8Te+8Y1uEgAAAHcqTsIBYEh85jOfSW+88cZy8vtWv/LKK8vHzz//fDeJQTh48GDauXNndwQAADAYnIQDwJDIP4gt5p577km7du1aPt69e3c3iUHYtm1bGh3ln0UAADBYfLUBAAAAAMAGGVlYWFj1M94XFxfbj2NjY+3Hfmrnsrm5uTQxMdEdeet9u+znsZ/Hfv2xX6+N2m/v3r3p5MmTy4+AD9t+pTt9v/y2KFu2bFl+65Nh20+G9f4T9vPYz2O//tivF/t57OcN836j/d5zrby8jLiuTM2cuC5GXBcjritTMyeuixHXxYjrytTMietixHUx4royNXPiuhhxXYy4rkzNnLguRlwXI64rUzMnrosR18WI68rUzInrYsR1MeK6MjVz4roYcV2MuK5MzZy4y8vjLF7mIq4rUzMnrosR18WI68rUzInrYsR1OW+99Va6fPlyNzV8+yniujI1c+K6GHFdjLiuTM2cuC5GXBcjritTMyeuixHXxYjrytTMietixHUx4royNXPiuhhxXYy4rkzNnLguRlwXI64rUzMnrosR18WI68rUzInrYsR1MeK6MjVz4roYcV2MuK5MzZy4LkZcFyOuK1MzJ66LEdfFiOvK1MyJ62LEdTHiujJrzY00v6xcY0Pvkbp169b2Yz+1c9ns7GyanJzsjrz1vl3289jPY7/+2K/XRu2XfyJ6/oFs+fXg2bDtV7rT9zt16lQ6cOBA2r59e3s8bPvJsN5/wn4e+3ns1x/79WI/j/28Yd6P14QDAAAAALBBOAkHAKCR3xKu5rvbAAAAt4OTcAAAGvv27Vt+KjoAAMCgcBIOAAAAAMAG4SQcAAAAAIANwkk4AACNmZmZdOXKle4IAABgMDgJBwCgMT8/v/z2IwAAAIMy0nzBsep9whcXF9uPY2Nj7cd+aueyubm5NDEx0R1563277Oexn8d+/bFfr43ab+/evenkyZNp9+7d7fGw7Ve60/ebnp5O+/fvTzt27GiPh20/Gdb7T9jPYz+P/fpjv17s57GfN8z7jS4tLaUYKS8vI64rUzMnrosR18WI68rUzInrYsR1MeK6MjVz4roYcV2MuK5MzZy4LkZcFyOuK1MzJ66LEdfFiOvK1MyJ62LEdTHiujI1c+K6GHFdjLiuTM2cuC5GXBcjritTMyfu8vI4i5e5iOvK1MyJ62LEdTHiujI1c+K6GHFdTsnNlKmZE9fFiOtixHVlaubEdTHiuhhxXZmaOXFdjLguRlxXpmZOXBcjrosR15WpmRPXxYjrYsR1ZWrmxHUx4roYcV2ZmjlxXYy4LkZcV6ZmTlwXI66LEdeVqZkT18WI62LEdWVq5sR1MeK6GHFdmZo5cV2MuC5GXFemZk5cFyOuixHXlamZE9fFiOtixHVl1pobaX5ZucaGnoq31nul1s5ls7OzaXJysjvy1vt22c9jP4/9+mO/Xhu139TUVHrjjTfSnj172uNh2690p+939erVtrt+/Xp7PGz7ybDef8J+Hvt57Ncf+/ViP4/9vGHej9eEA8AtGh0dbVNDT22+mX7X9/TTT6f77ruvO6q/3dq5rGa/u8W2bduq7zcAAIAPiq82AOAW5dcC3XPPPd3Rzd1///3dZ/3l63LX961vfSs9+OCD3VH/uVLtHAAAADYeJ+EA8AGdfmEkjYwoL6XT3eW4M+Wno9+4caM7AgAAGAxOwgHgls2n418dSY+n6ZUfstGcgT/Oifgd7cyZM+nSpUvdEQAAwGBwEg4At+rC6+nED15M0391qLug8dhz6eLsk2nqQnf85ksrj5K/sHJqPv/KkfDo+ZF0XPMXjqcjy5frZP50einPvKLr6ubb6w6ff/V4ms/T+ZH55vOf5dvQbbbXm2ff/8bBym3nvJR++v4UAAAANggn4QBwi+Z/9Fp67ampNNUdy/iuQ02aT/KJ76G307HZ/Cj5xXTs7OPpyCv5NDl7dOXyp7qL8sn25Il0pL18KV08/nZ6fPnE/bX0zLknu8tTeubZ5oS7OeFfmj2STuTPu6l8m985eyxdfPVo+ifdRe0j9s8+01xDNp6Ovpqvfzq92Pxvun0E/7n0J20HAACAjcJJOADcovGpR7rP+rhwvjlJP5KezCfkzcnvk185nF47d76tzp97u/24SjP/dj7Znnz/EeqHjzanzd98vXs0/HA69rX3H3Eff+JIOvyD86m9pl1H04mXU/qLQ8+n9INn0sPPpvQ3zQn4eDvZefNv0zOfOhZO9nEz4+PjVW87AgAAcDs4CQeAW7VrauVkOMhPB195xNuZT+fPPpqm2pPzkh6dVp5L4cnuvfKj7fnE+/SLKT11LF189nx6ODztvTndT8dffrs5gX+yO8Za9u3bl7Zv394dAQAADMbIuXPnlrrPW/rJsGu9V2rtXJZ/4mx+/9WbWe/bZT+P/Tz264/9eu3atSWd+De70zOfmk5Lel14fm128+l0PnnOJ8jt08tPpKO78muxH04nvnIxnXji9XTk76bSifb35Mv/IqWX80x+7ffj6e3jzczT4+3rxh/+r0fSxVen0t/ay4+m8y8cSee/1vzeC83tvjy16rInf9TMHX0tHW5/Xwq3kxfNt/V6erI7yZ+bm0vvvvtuLvq62/582c9jP4/9+mO/XuznsZ/Hfv3d8fstFa5du9ZmLbVz2TvvvNN91t96327tXMZ+vWrnMvbrVTuXsV+v2rnsw9iv+Uu4+fXi0rGnUv4mZpcXl6bfr993+sWV7q+bZvbY0uHl2ZCnjjXX1FjV67qml15sjg8/dbi7/PDSsdnm4nzd+Tqz/Hm8jubzvz+e53Udec/u97Xyda7s+tvf/rb7rL/1vv9q5zL+++tVO5exX6/auYz9etXOZezXq3YuY79etXMZ+/WqncvYr1ftXLbWfmufxgMAjPHuB531efp4/uFp6vRoeX7a+PJ8Tv4haZ38Gu/ly1df16PPnugu7x7Nztet68yf67Xg+Tqaz//F03le15H31KPg2aH0XLkrWjMzM+nKlSvdEQAAwGBwEg4AQGN+fj4tLCx0RwAAAIPBSTgAbITuUepVP708Pyrdc1mUH7VeSs891h0CAADgjsdJOAAAAAAAG4STcAC4RdevX0/vvfded3Rzv/rVr7rP+svX5a7vy1/+cvvTy6XfXKl2LuPp1ysOHjyYdu7c2R0BAAAMBifhAHCL9IPVatSc5Pa7vrNnz676/bW3WzuXcRK+Ir+VSM3bjgAAANwOvtoAAAAAAGCDjCwsLKx6uGRxcbH9ODY21n7sp3Yuy0+nnJiY6I689b5d9vPYz2O//tiv10btt3fv3nTy5Mm0e/fu9njY9ivd6ftdu3YtbdmyZflZBMO2nwzr/Sfs57Gfx379sV8v9vPYzxvm/Ub1tMXy6Yvl5WXEdWVq5sR1MeK6GHFdmZo5cV2MuC5GXFemZk5cFyOuixHXlamZE9fFiOtixHVlaubEdTHiuhhxXZmaOXFdjLguRlxXpmZOXBcjrosR15WpmRPXxYjrYsR1ZWrmxF1eHmfxMhdxXZmaOXFdjLguRlxXpmZOXBcjrst566230uXLl7up4dtPEdeVqZkT18WI62LEdWVq5sR1MeK6GHFdmZo5cV2MuC5GXFemZk5cFyOuixHXlamZE9fFiOtixHVlaubEdTHiuhhxXZmaOXFdjLguRlxXpmZOXBcjrosR15WpmRPXxYjrYsR1ZWrmxHUx4roYcV2ZmjlxXYy4LkZcV6ZmTlwXI66LEdeVWWtupPll5Roben3g1q1b24/91M5ls7OzaXJysjvy1vt22c9jP4/9+mO/Xhu139TUVHrjjTfSnj172uNh2690p+936tSpdODAgbR9+/b2eNj2k2G9/4T9PPbz2K8/9uvFfh77ecO8H68JBwAAAABgg3ASDgBD6je/+U06d+5cd4RBGx8fr/ruNgAAwO3gJBwAhtD3vve9dPXq1fTd7363uwSDtm/fvuWnogMAAAwKJ+EAMIRefvnl9MADD6Qf/vCH6Re/+EV3KQAAAO50nIQDwJDJj4Lv2rWrfVT261//entCDgAAgM2Bk3AAGDL5pPvZZ59tP88n4a+++iqPhm+AmZmZdOXKle4IAABgMDgJB4AhokfBP//5z7fH9957b3tCzqPhgzc/P7/89iMAAACDMtJ8wbHqfcIXFxfbj2NjY+3Hfmrnsrm5uTQxMdEdeet9u+znsZ/Hfv2xX69B7vfpT386ffvb306f+9zn0t69e9PJkyfb14bn9wzP72P9yU9+8kPd72aG4f67mbXmpqen0/79+9OOHTva42HbT4b1/hP289jPY7/+2K8X+3ns5w3zfqNLS0spRsrLy4jrytTMietixHUx4royNXPiuhhxXYy4rkzNnLguRlwXI64rUzMnrosR18WI68rUzInrYsR1MeK6MjVz4roYcV2MuK5MzZy4LkZcFyOuK1MzJ/Gy/FZUZT760Y+2cV1M7VzOnj177OUx8fp+/vOfpy9+8Yvt57/85S/bE/EHH3wwXbp0KT3yyCMf+n5l4n0q8TIXcV2ZmjlxXYy4LqfkZsrUzInrYsR1MeK6MjVz4roYcV2MuK5MzZy4LkZcFyOuK1MzJ66LEdfFiOvK1MyJ62LEdTHiujI1c+K6GHFdjLiuTM2cuC5GXBcjritTMyeuixHXxYjrytTMietixHUx4royNXPiuhhxXYy4rkzNnLguRlwXI64rUzMnrosR18WI68rUzInrYsR1MeK6MmvNjTS/rFxjQ0/Fy19c3UztXDY7O5smJye7I2+9b5f9PPbz2K+/zbrfyMhI9xluR/wnZJj+fJ215vJbwuXu+vXr7fGw7SfDev8J+3ns57Fff+zXi/089vOGeT9eEw7grqbvSJJby2a0bdu2NDrKP4sAAGCw+GoDAAAAAIANwkk4AACN/HT0GzdudEcAAACDwUk4AHTySZhLfu/oy5f/X/r973+f3n333W4am82ZM2faH4AHAAAwSJyEA0Dw5lv/uCrTP/2H9OOfnE0//unP0n/77z/etK+HBgAAwMbgJBwACo/880+0OfFfvp/+8e/fTPv+6A/T3t0Pp6UbN9KNG5yEAwAA4IPjJBwAjOvXF9Pvfve7dGNxMV1/73p6r0k+AeeR8M1rfHy86m1HAAAAbsfIwsLCqq8oF5svOLOxsbH2Yz+1c9nc3FyamJjojrz1vl3289jPY7/+Nut+OtmKJ9X59d/5Kej/4d//u/T7319Kv/71/2nfturee+9Nn//8F9K/fOIL6c+/9Nm0c+d93e+4e+l91vWemdkw/fk67OexX3/s14v9PPbz2K8/9ut1N+03qvd8VaS8vIy4rkzNnLguRlwXI64rUzMnrosR18WI68rUzInrYsR1MeK6MjVz4roYcV2MuK5MzZy4LkZcFyOuK1MzJ66LEdfFiOvK1MyJ62LEdTHiujI1c+IuK+VHu/fv358ee+xgeuihh9LU1D9Lf/zHf5IWbyymG83vy8EKd5/Gy1zEdWVq5sR1MeK6GHFdmZo5cV2MuC5GXFemZk5cFyOuixHXlamZE9fFiOtixHVlaubEdTHiuhhxXZmaOXFdjLguRlxXpmZOXBcjrosR15WpmRPXxYjrYsR1ZWrmxHUx4roYcV2ZmjlxXYy4LkZcV6ZmTlwXI66LEdeVqZkT18WI62LEdWVq5sR1MeK6GHFdmZo5cV2MuC5GXFdmrbmR5peVa2zoUY21npJXO5fNzs6mycnJ7shb79tlP4/9PPbrb7Pup0dy41+B+aeg//gnP0v7/mhXem/hvfSXf/mf0iOPPJr+1Rf+rD0++79m20fC77//Y93vuHu5+2+Y/nwd9vPYrz/268V+Hvt57Ncf+/W6m/bjNeEA0MnvEZ2j14D/6Z9+Nm2/997285x8wll83xKbyMzMTPuNGAAAgEHiJBwAOvm1Pr/69f9NP/rJP6TTb//PtP3+P0w7Hvin6ezMO+nn/3uufao6T0ffvObn55e/yw0AADAonIQDQGfr1o+kP//SZ9KRL322fdp5my/nj0+mp7rPE+fgAAAAuA2chANA56Mf3Za2b9+edtx7b7rvvh3tT0H/2B/sTPff/wfpgQfuTx9/8IH08Y8/0E0DAAAAt46TcAAAGgcPHkw7d+7sjgAAAAaDk3AAABr5PeFHR/lnEQAADBZfbQAAAAAAsEE4CQcAoHH16tX2LeoAAAAGaeTcuXOrftavvgBZ6yl5tXNZ/sImP83vZtb7dtnPYz+P/frbrPt94hOfaD/yvt8fzMjISPux+Tek/ZgN05+vs9bchQsX0kMPPZS2bNnSHg/bfjKs95+wn8d+Hvv1x3692M9jP2+Y9xtpvgBd9RWo3iN169at7cd+auey2dnZNDk52R1563277Oexn8d+/W3W/XQSuVEn4adfGEmPf7M7SIfTsdkT6eiu7vAO5O6/YfrzddaaO3XqVDpw4ED7E/KzYdtPhvX+E/bz2M9jv/7Yrxf7eeznDfN+a5/GAwBuS3sCfvZYuticsOaT1qXTj6ZnJo+k4xe6AQAAANw1OAkHgEG6cDx955uH07GXj6bx7qL02HNp+q9fS8/83emU3nypfVQ55sjf/Od05KvH03w3Pv/KkXTkle6oub4jy7MvpdPN1PGvrv7971+OWzU+Pl713W0AAIDbwUk4AAzShfPptfRomiqeen7ocy+mdPZ8mm9OyPOj4xePH06Hj19sPz/xrz/WTZVOp5cmT6Qjs+8/on7x+Nvp8RfOp6Ov5uPp9GLzv+n20fbn0qHud6Devn37lp+KDgAAMCichAPAsNk1lR79wYn0evl09eaE/u3mlP6Zyfcf8X746GspffN1HvUGAAC4g3ASDgCD1JxQH25Onc8XJ9Sn/8fzKX1qauUp6qscSv/2eFp9sr1Mj3YrPOoNAABwJ+EkHAAGadfR9B/z67+fXXmNd34d+OP5deJf63/6PP70ieUT7fxU9VZ+hDw9n77TvT48v1Z8JLx2HLdnZmYmXblypTsCAAAYDE7CAWDADv1VcyL9lRPpYf3gtENvf8C3KDuUnps9ltLRh7tHyB9N06+GH/iG2zI/P7/89iMAAACDMtJ8wbHqTXIXFxfbj2NjY+3Hfmrnsrm5uTQxMdEdeet9u+znsZ/Hfv1t1v30U7DzI824dfmbAFk8aR2mP19nrbnp6em0f//+tGPHjvZ42PaTYb3/hP089vPYrz/268V+Hvt5w7zf6MrrCt+PlJeXEdeVqZkT18WI62LEdWVq5sR1MeK6GHFdmZo5cV2MuC5GXFemZk5cFyOuixHXlamZE9fFiOtixHVlaubEdTHiuhhxXZmaOXFdjLguRlxXpmZO3GW4Pe4+jZe5iOvK1MyJ62LEdTklN1OmZk5cFyOuixHXlamZE9fFiOtixHVlaubEdTHiuhhxXZmaOXFdjLguRlxXpmZOXBcjrosR15WpmRPXxYjrYsR1ZWrmxHUx4roYcV2ZmjlxXYy4LkZcV6ZmTlwXI66LEdeVqZkT18WI62LEdWVq5sR1MeK6GHFdmZo5cV2MuC5GXFemZk5cFyOuixHXlVlrbqT5ZeUaG3pUY633Sq2dy2ZnZ9Pk5GR35K337bKfx34e+/W3WffTI7nFX4Go5O6/Yfrzddaau3r1attdv369PR62/WRY7z9hP4/9PPbrj/16sZ/Hft4w78drwgEAaGzbti2NjvLPIgAAGCy+2gAAAAAAYINwEg4AQCM/Hf3GjRvdEQAAwGBwEg4AQOPMmTPp0qVL3REAAMBgcBIOAAAAAMAG4SQcAAAAAIANwkk4AACN8fHxqrcdAQAAuB0jCwsLq94kd3Fxsf04NjbWfuyndi6bm5tLExMT3ZG33rfLfh77eezX32bdTydbvE/4B6P3Cdd7ZmbD9OfrsJ/Hfv2xXy/289jPY7/+2K/X3bTfaP4CNEbKy8uI68rUzInrYsR1MeK6MjVz4roYcV2MuK5MzZy4LkZcFyOuK1MzJ66LEdfFiOvK1MyJ62LEdTHiujI1c+K6GHFdjLiuTM2cuC5GXBcjritTMyfuMtwed5/Gy1zEdWVq5sR1MeK6GHFdmZo5cV2MuC5GXFemZk5cFyOuixHXlamZE9fFiOtixHVlaubEdTHiuhhxXZmaOXFdjLguRlxXpmZOXBcjrosR15WpmRPXxYjrYsR1ZWrmxHUx4roYcV2ZmjlxXYy4LkZcV6ZmTlwXI66LEdeVqZkT18WI62LEdWVq5sR1MeK6GHFdmZo5cV2MuC5GXFdmrbmR5peVa2zoUY21npJXO5fNzs6mycnJ7shb79tlP4/9PPbrb7Pup0dyi78CUcndf8P05+uwn8d+/bFfL/bz2M9jv/7Yr9fdtB+vCQcAoDEzM5OuXLnSHQEAAAwGJ+EAADTm5+eXv8sNAAAwKJyEAwAAAACwQTgJBwAAAABgg3ASDgBA4+DBg2nnzp3dEQAAwGBwEg4AQGPbtm1pdJR/FgEAwGDx1QYAAAAAABtkZGFhYdWb5C4uLrYfx8bG2o/91M5lc3NzaWJiojvy1vt22c9jP4/9+tus++k9Hnmf8A9G7xMef5r4MP35OmvNXbt2LW3ZsmX5v4lh20+G9f4T9vPYz2O//tivF/t57OcN836j+YuNGCkvLyOuK1MzJ66LEdfFiOvK1MyJ62LEdTHiujI1c+K6GHFdjLiuTM2cuC5GXBcjritTMyeuixHXxYjrytTMietixHUx4royNXPiuhhxXYy4rkzNnLjL8skkufWIu0/jZS7iujI1c+K6GHFdzltvvZUuX77cTQ3ffoq4rkzNnLguRlwXI64rUzMnrosR18WI68rUzInrYsR1MeK6MjVz4roYcV2MuK5MzZy4LkZcFyOuK1MzJ66LEdfFiOvK1MyJ62LEdTHiujI1c+K6GHFdjLiuTM2cuC5GXBcjritTMyeuixHXxYjrytTMietixHUx4royNXPiuhhxXYy4rsxacyPNLyvX2NCjGnqUqJ/auWx2djZNTk52R9563y77eeznsV9/m3m/eDKJW1f88zF0f76lteZOnTqVDhw4kLZv394eD9t+Mqz3n7Cfx34e+/XHfr3Yz2M/b5j34zXhAO5a+m6kkp+OnFNeXqZ2Luedd96xl8es9+3WzuXczn4AAAC4dZyEAwDQGB8fr/ruNgAAwO3gJBwAgMa+ffuWn4oOAAAwKJyEAwAAAACwQTgJBwAAAABgg3ASDgBAY2ZmJl25cqU7AgAAGAxOwgEAaMzPzy+//QgAAMCgcBIOAAAAAMAGGTl37tyqN3u9ceNG+3F09Obn57Vz2dWrV9O2bdu6I2+9b5f9PPbz2K8/9uvFft6dvt+FCxfSQw89lLZs2dIeD9t+Mqz3n7Cfx34e+/XHfr3Yz2M/b5j3G1lqdJ+39FS8td4rtXYum52dTZOTk92Rt963y34e+3ns1x/79WI/707fL/+Dmbvr16+3x8O2nwzr/Sfs57Gfx379sV8v9vPYzxvm/dY+jQcA4C6Qv2Nd891tAACA28FXGwAAAAAAbBBOwgEAaOSno+v1XgAAAIPCSTgAAI0zZ86kS5cudUcAAACDwUk4AAAAAAAbhJNwAAAAAAA2CCfhAAA0xsfHq952BAAA4HaMLCwsrHqf8MXFxfbj2NhY+7Gf2rlsbm4uTUxMdEfeet8u+3ns57Fff+zXi/089vPYrz/268V+Hvt57Ncf+/ViP+/D2G90aWkpxUh5eRlxXZmaOXFdjLguRlxXpmZOXBcjrosR15WpmRPXxYjrYsR1ZWrmxHUx4roYcV2ZmjlxXYy4LkZcV6ZmTlwXI66LEdeVqZkT18WI62LEdWVq5sR1MeK6GHFdmZo5cV2MuC5GXFemZk5cFyOuixHXlamZE9fFiOtixHVlaubEdTHiuhhxXZmaOXFdjLguRlxXpmZOXBcjrosR15WpmRPXxYjrYsR1ZWrmxHUx4roYcV2ZmjlxXYy4LkZcV6ZmTlwXI66LEdeVqZkT18WI62LEdWVq5sR1MeK6GHFdmZo5cV2MuC5GXFemZk5cFyOuixHXlamZE9fFiOtixHVlaubEdTHiuhhxXZmbzy2l/w8+EoYGHTvjJAAAAABJRU5ErkJggg==;" parent="1" vertex="1">
          <mxGeometry x="-1150" y="40" width="993" height="622" as="geometry" />
        </mxCell>
        <mxCell id="yk6rwAeMMAsCp1-vcvuz-33" value="Отзыв с рейтингом" style="swimlane;fontStyle=0;childLayout=stackLayout;horizontal=1;startSize=40;horizontalStack=0;resizeParent=1;resizeParentMax=0;resizeLast=0;collapsible=1;marginBottom=0;align=center;fontSize=14;" parent="1" vertex="1">
          <mxGeometry x="-794" y="861" width="150" height="250" as="geometry">
            <mxRectangle x="-920" y="880" width="160" height="50" as="alternateBounds" />
          </mxGeometry>
        </mxCell>
        <mxCell id="yk6rwAeMMAsCp1-vcvuz-34" value="Автор" style="text;strokeColor=none;fillColor=none;spacingLeft=4;spacingRight=4;overflow=hidden;rotatable=0;points=[[0,0.5],[1,0.5]];portConstraint=eastwest;fontSize=12;whiteSpace=wrap;html=1;" parent="yk6rwAeMMAsCp1-vcvuz-33" vertex="1">
          <mxGeometry y="40" width="150" height="30" as="geometry" />
        </mxCell>
        <mxCell id="yk6rwAeMMAsCp1-vcvuz-35" value="Получатель" style="text;strokeColor=none;fillColor=none;spacingLeft=4;spacingRight=4;overflow=hidden;rotatable=0;points=[[0,0.5],[1,0.5]];portConstraint=eastwest;fontSize=12;whiteSpace=wrap;html=1;" parent="yk6rwAeMMAsCp1-vcvuz-33" vertex="1">
          <mxGeometry y="70" width="150" height="30" as="geometry" />
        </mxCell>
        <mxCell id="yk6rwAeMMAsCp1-vcvuz-36" value="Сообщение" style="text;strokeColor=none;fillColor=none;spacingLeft=4;spacingRight=4;overflow=hidden;rotatable=0;points=[[0,0.5],[1,0.5]];portConstraint=eastwest;fontSize=12;whiteSpace=wrap;html=1;" parent="yk6rwAeMMAsCp1-vcvuz-33" vertex="1">
          <mxGeometry y="100" width="150" height="30" as="geometry" />
        </mxCell>
        <mxCell id="yk6rwAeMMAsCp1-vcvuz-40" value="Рейтинг" style="text;strokeColor=none;fillColor=none;spacingLeft=4;spacingRight=4;overflow=hidden;rotatable=0;points=[[0,0.5],[1,0.5]];portConstraint=eastwest;fontSize=12;whiteSpace=wrap;html=1;" parent="yk6rwAeMMAsCp1-vcvuz-33" vertex="1">
          <mxGeometry y="130" width="150" height="30" as="geometry" />
        </mxCell>
        <mxCell id="_GabCLZ9DPHG4MrxhawR-1" value="Время" style="text;strokeColor=none;fillColor=none;spacingLeft=4;spacingRight=4;overflow=hidden;rotatable=0;points=[[0,0.5],[1,0.5]];portConstraint=eastwest;fontSize=12;whiteSpace=wrap;html=1;" parent="yk6rwAeMMAsCp1-vcvuz-33" vertex="1">
          <mxGeometry y="160" width="150" height="30" as="geometry" />
        </mxCell>
        <mxCell id="_GabCLZ9DPHG4MrxhawR-2" value="Тип получателя" style="text;strokeColor=none;fillColor=none;spacingLeft=4;spacingRight=4;overflow=hidden;rotatable=0;points=[[0,0.5],[1,0.5]];portConstraint=eastwest;fontSize=12;whiteSpace=wrap;html=1;" parent="yk6rwAeMMAsCp1-vcvuz-33" vertex="1">
          <mxGeometry y="190" width="150" height="30" as="geometry" />
        </mxCell>
        <mxCell id="K06CXUhG1oYZM3zoF6eq-1" value="Рейтинг животного" style="text;strokeColor=none;fillColor=none;spacingLeft=4;spacingRight=4;overflow=hidden;rotatable=0;points=[[0,0.5],[1,0.5]];portConstraint=eastwest;fontSize=12;whiteSpace=wrap;html=1;" vertex="1" parent="yk6rwAeMMAsCp1-vcvuz-33">
          <mxGeometry y="220" width="150" height="30" as="geometry" />
        </mxCell>
        <mxCell id="_GabCLZ9DPHG4MrxhawR-11" style="edgeStyle=orthogonalEdgeStyle;rounded=0;orthogonalLoop=1;jettySize=auto;html=1;startArrow=ERzeroToMany;startFill=0;endArrow=ERmandOne;endFill=0;" parent="1" source="_GabCLZ9DPHG4MrxhawR-3" target="_GabCLZ9DPHG4MrxhawR-7" edge="1">
          <mxGeometry relative="1" as="geometry" />
        </mxCell>
        <mxCell id="_GabCLZ9DPHG4MrxhawR-3" value="Сообщение" style="swimlane;fontStyle=0;childLayout=stackLayout;horizontal=1;startSize=26;horizontalStack=0;resizeParent=1;resizeParentMax=0;resizeLast=0;collapsible=1;marginBottom=0;align=center;fontSize=14;" parent="1" vertex="1">
          <mxGeometry x="-800" y="1138" width="160" height="86" as="geometry" />
        </mxCell>
        <mxCell id="_GabCLZ9DPHG4MrxhawR-4" value="Сообщение" style="text;strokeColor=none;fillColor=none;spacingLeft=4;spacingRight=4;overflow=hidden;rotatable=0;points=[[0,0.5],[1,0.5]];portConstraint=eastwest;fontSize=12;whiteSpace=wrap;html=1;" parent="_GabCLZ9DPHG4MrxhawR-3" vertex="1">
          <mxGeometry y="26" width="160" height="30" as="geometry" />
        </mxCell>
        <mxCell id="_GabCLZ9DPHG4MrxhawR-5" value="Время написания" style="text;strokeColor=none;fillColor=none;spacingLeft=4;spacingRight=4;overflow=hidden;rotatable=0;points=[[0,0.5],[1,0.5]];portConstraint=eastwest;fontSize=12;whiteSpace=wrap;html=1;" parent="_GabCLZ9DPHG4MrxhawR-3" vertex="1">
          <mxGeometry y="56" width="160" height="30" as="geometry" />
        </mxCell>
        <mxCell id="_GabCLZ9DPHG4MrxhawR-7" value="Чат" style="swimlane;fontStyle=0;childLayout=stackLayout;horizontal=1;startSize=26;horizontalStack=0;resizeParent=1;resizeParentMax=0;resizeLast=0;collapsible=1;marginBottom=0;align=center;fontSize=14;" parent="1" vertex="1">
          <mxGeometry x="-800" y="1288" width="160" height="56" as="geometry" />
        </mxCell>
        <mxCell id="_GabCLZ9DPHG4MrxhawR-8" value="Время написания" style="text;strokeColor=none;fillColor=none;spacingLeft=4;spacingRight=4;overflow=hidden;rotatable=0;points=[[0,0.5],[1,0.5]];portConstraint=eastwest;fontSize=12;whiteSpace=wrap;html=1;" parent="_GabCLZ9DPHG4MrxhawR-7" vertex="1">
          <mxGeometry y="26" width="160" height="30" as="geometry" />
        </mxCell>
        <mxCell id="_GabCLZ9DPHG4MrxhawR-91" style="edgeStyle=orthogonalEdgeStyle;rounded=0;orthogonalLoop=1;jettySize=auto;html=1;entryX=0;entryY=0.25;entryDx=0;entryDy=0;exitX=0.5;exitY=0;exitDx=0;exitDy=0;startArrow=ERmandOne;startFill=0;endArrow=ERzeroToMany;endFill=0;" parent="1" source="_GabCLZ9DPHG4MrxhawR-13" target="_GabCLZ9DPHG4MrxhawR-7" edge="1">
          <mxGeometry relative="1" as="geometry" />
        </mxCell>
        <mxCell id="_GabCLZ9DPHG4MrxhawR-13" value="Опекун" style="swimlane;fontStyle=0;childLayout=stackLayout;horizontal=1;startSize=26;horizontalStack=0;resizeParent=1;resizeParentMax=0;resizeLast=0;collapsible=1;marginBottom=0;align=center;fontSize=14;" parent="1" vertex="1">
          <mxGeometry x="-990" y="1390" width="160" height="176" as="geometry" />
        </mxCell>
        <mxCell id="_GabCLZ9DPHG4MrxhawR-14" value="Рейтинг" style="text;strokeColor=none;fillColor=none;spacingLeft=4;spacingRight=4;overflow=hidden;rotatable=0;points=[[0,0.5],[1,0.5]];portConstraint=eastwest;fontSize=12;whiteSpace=wrap;html=1;" parent="_GabCLZ9DPHG4MrxhawR-13" vertex="1">
          <mxGeometry y="26" width="160" height="30" as="geometry" />
        </mxCell>
        <mxCell id="_GabCLZ9DPHG4MrxhawR-15" value="Описание" style="text;strokeColor=none;fillColor=none;spacingLeft=4;spacingRight=4;overflow=hidden;rotatable=0;points=[[0,0.5],[1,0.5]];portConstraint=eastwest;fontSize=12;whiteSpace=wrap;html=1;" parent="_GabCLZ9DPHG4MrxhawR-13" vertex="1">
          <mxGeometry y="56" width="160" height="30" as="geometry" />
        </mxCell>
        <mxCell id="_GabCLZ9DPHG4MrxhawR-16" value="Цена за день" style="text;strokeColor=none;fillColor=none;spacingLeft=4;spacingRight=4;overflow=hidden;rotatable=0;points=[[0,0.5],[1,0.5]];portConstraint=eastwest;fontSize=12;whiteSpace=wrap;html=1;" parent="_GabCLZ9DPHG4MrxhawR-13" vertex="1">
          <mxGeometry y="86" width="160" height="30" as="geometry" />
        </mxCell>
        <mxCell id="_GabCLZ9DPHG4MrxhawR-26" value="Совершенных передержек" style="text;strokeColor=none;fillColor=none;spacingLeft=4;spacingRight=4;overflow=hidden;rotatable=0;points=[[0,0.5],[1,0.5]];portConstraint=eastwest;fontSize=12;whiteSpace=wrap;html=1;" parent="_GabCLZ9DPHG4MrxhawR-13" vertex="1">
          <mxGeometry y="116" width="160" height="30" as="geometry" />
        </mxCell>
        <mxCell id="_GabCLZ9DPHG4MrxhawR-27" value="Тип животного" style="text;strokeColor=none;fillColor=none;spacingLeft=4;spacingRight=4;overflow=hidden;rotatable=0;points=[[0,0.5],[1,0.5]];portConstraint=eastwest;fontSize=12;whiteSpace=wrap;html=1;" parent="_GabCLZ9DPHG4MrxhawR-13" vertex="1">
          <mxGeometry y="146" width="160" height="30" as="geometry" />
        </mxCell>
        <mxCell id="_GabCLZ9DPHG4MrxhawR-30" value="Пользователь" style="swimlane;fontStyle=0;childLayout=stackLayout;horizontal=1;startSize=26;horizontalStack=0;resizeParent=1;resizeParentMax=0;resizeLast=0;collapsible=1;marginBottom=0;align=center;fontSize=14;" parent="1" vertex="1">
          <mxGeometry x="-795" y="1390" width="160" height="326" as="geometry" />
        </mxCell>
        <mxCell id="_GabCLZ9DPHG4MrxhawR-31" value="Почта" style="text;strokeColor=none;fillColor=none;spacingLeft=4;spacingRight=4;overflow=hidden;rotatable=0;points=[[0,0.5],[1,0.5]];portConstraint=eastwest;fontSize=12;whiteSpace=wrap;html=1;" parent="_GabCLZ9DPHG4MrxhawR-30" vertex="1">
          <mxGeometry y="26" width="160" height="30" as="geometry" />
        </mxCell>
        <mxCell id="_GabCLZ9DPHG4MrxhawR-32" value="Пароль" style="text;strokeColor=none;fillColor=none;spacingLeft=4;spacingRight=4;overflow=hidden;rotatable=0;points=[[0,0.5],[1,0.5]];portConstraint=eastwest;fontSize=12;whiteSpace=wrap;html=1;" parent="_GabCLZ9DPHG4MrxhawR-30" vertex="1">
          <mxGeometry y="56" width="160" height="30" as="geometry" />
        </mxCell>
        <mxCell id="_GabCLZ9DPHG4MrxhawR-33" value="Имя" style="text;strokeColor=none;fillColor=none;spacingLeft=4;spacingRight=4;overflow=hidden;rotatable=0;points=[[0,0.5],[1,0.5]];portConstraint=eastwest;fontSize=12;whiteSpace=wrap;html=1;" parent="_GabCLZ9DPHG4MrxhawR-30" vertex="1">
          <mxGeometry y="86" width="160" height="30" as="geometry" />
        </mxCell>
        <mxCell id="_GabCLZ9DPHG4MrxhawR-34" value="Фамилия" style="text;strokeColor=none;fillColor=none;spacingLeft=4;spacingRight=4;overflow=hidden;rotatable=0;points=[[0,0.5],[1,0.5]];portConstraint=eastwest;fontSize=12;whiteSpace=wrap;html=1;" parent="_GabCLZ9DPHG4MrxhawR-30" vertex="1">
          <mxGeometry y="116" width="160" height="30" as="geometry" />
        </mxCell>
        <mxCell id="_GabCLZ9DPHG4MrxhawR-35" value="Дата регистрации" style="text;strokeColor=none;fillColor=none;spacingLeft=4;spacingRight=4;overflow=hidden;rotatable=0;points=[[0,0.5],[1,0.5]];portConstraint=eastwest;fontSize=12;whiteSpace=wrap;html=1;" parent="_GabCLZ9DPHG4MrxhawR-30" vertex="1">
          <mxGeometry y="146" width="160" height="30" as="geometry" />
        </mxCell>
        <mxCell id="_GabCLZ9DPHG4MrxhawR-36" value="Номер телефона" style="text;strokeColor=none;fillColor=none;spacingLeft=4;spacingRight=4;overflow=hidden;rotatable=0;points=[[0,0.5],[1,0.5]];portConstraint=eastwest;fontSize=12;whiteSpace=wrap;html=1;" parent="_GabCLZ9DPHG4MrxhawR-30" vertex="1">
          <mxGeometry y="176" width="160" height="30" as="geometry" />
        </mxCell>
        <mxCell id="_GabCLZ9DPHG4MrxhawR-44" value="Город" style="text;strokeColor=none;fillColor=none;spacingLeft=4;spacingRight=4;overflow=hidden;rotatable=0;points=[[0,0.5],[1,0.5]];portConstraint=eastwest;fontSize=12;whiteSpace=wrap;html=1;" parent="_GabCLZ9DPHG4MrxhawR-30" vertex="1">
          <mxGeometry y="206" width="160" height="30" as="geometry" />
        </mxCell>
        <mxCell id="_GabCLZ9DPHG4MrxhawR-45" value="Район" style="text;strokeColor=none;fillColor=none;spacingLeft=4;spacingRight=4;overflow=hidden;rotatable=0;points=[[0,0.5],[1,0.5]];portConstraint=eastwest;fontSize=12;whiteSpace=wrap;html=1;" parent="_GabCLZ9DPHG4MrxhawR-30" vertex="1">
          <mxGeometry y="236" width="160" height="30" as="geometry" />
        </mxCell>
        <mxCell id="_GabCLZ9DPHG4MrxhawR-46" value="Улица" style="text;strokeColor=none;fillColor=none;spacingLeft=4;spacingRight=4;overflow=hidden;rotatable=0;points=[[0,0.5],[1,0.5]];portConstraint=eastwest;fontSize=12;whiteSpace=wrap;html=1;" parent="_GabCLZ9DPHG4MrxhawR-30" vertex="1">
          <mxGeometry y="266" width="160" height="30" as="geometry" />
        </mxCell>
        <mxCell id="_GabCLZ9DPHG4MrxhawR-47" value="Дом" style="text;strokeColor=none;fillColor=none;spacingLeft=4;spacingRight=4;overflow=hidden;rotatable=0;points=[[0,0.5],[1,0.5]];portConstraint=eastwest;fontSize=12;whiteSpace=wrap;html=1;" parent="_GabCLZ9DPHG4MrxhawR-30" vertex="1">
          <mxGeometry y="296" width="160" height="30" as="geometry" />
        </mxCell>
        <mxCell id="_GabCLZ9DPHG4MrxhawR-92" style="edgeStyle=orthogonalEdgeStyle;rounded=0;orthogonalLoop=1;jettySize=auto;html=1;entryX=1;entryY=0.25;entryDx=0;entryDy=0;exitX=0.375;exitY=0;exitDx=0;exitDy=0;exitPerimeter=0;startArrow=ERmandOne;startFill=0;endArrow=ERzeroToMany;endFill=0;" parent="1" source="_GabCLZ9DPHG4MrxhawR-48" target="_GabCLZ9DPHG4MrxhawR-7" edge="1">
          <mxGeometry relative="1" as="geometry" />
        </mxCell>
        <mxCell id="_GabCLZ9DPHG4MrxhawR-48" value="Владельц" style="swimlane;fontStyle=0;childLayout=stackLayout;horizontal=1;startSize=26;horizontalStack=0;resizeParent=1;resizeParentMax=0;resizeLast=0;collapsible=1;marginBottom=0;align=center;fontSize=14;" parent="1" vertex="1">
          <mxGeometry x="-584" y="1390" width="160" height="56" as="geometry">
            <mxRectangle x="-584" y="1390" width="100" height="30" as="alternateBounds" />
          </mxGeometry>
        </mxCell>
        <mxCell id="_GabCLZ9DPHG4MrxhawR-50" value="Рейтинг" style="text;strokeColor=none;fillColor=none;spacingLeft=4;spacingRight=4;overflow=hidden;rotatable=0;points=[[0,0.5],[1,0.5]];portConstraint=eastwest;fontSize=12;whiteSpace=wrap;html=1;" parent="_GabCLZ9DPHG4MrxhawR-48" vertex="1">
          <mxGeometry y="26" width="160" height="30" as="geometry" />
        </mxCell>
        <mxCell id="_GabCLZ9DPHG4MrxhawR-60" value="Животное" style="swimlane;fontStyle=0;childLayout=stackLayout;horizontal=1;startSize=26;horizontalStack=0;resizeParent=1;resizeParentMax=0;resizeLast=0;collapsible=1;marginBottom=0;align=center;fontSize=14;" parent="1" vertex="1">
          <mxGeometry x="-360" y="1390" width="160" height="476" as="geometry" />
        </mxCell>
        <mxCell id="_GabCLZ9DPHG4MrxhawR-61" value="Рейтинг" style="text;strokeColor=none;fillColor=none;spacingLeft=4;spacingRight=4;overflow=hidden;rotatable=0;points=[[0,0.5],[1,0.5]];portConstraint=eastwest;fontSize=12;whiteSpace=wrap;html=1;" parent="_GabCLZ9DPHG4MrxhawR-60" vertex="1">
          <mxGeometry y="26" width="160" height="30" as="geometry" />
        </mxCell>
        <mxCell id="_GabCLZ9DPHG4MrxhawR-62" value="Кличка" style="text;strokeColor=none;fillColor=none;spacingLeft=4;spacingRight=4;overflow=hidden;rotatable=0;points=[[0,0.5],[1,0.5]];portConstraint=eastwest;fontSize=12;whiteSpace=wrap;html=1;" parent="_GabCLZ9DPHG4MrxhawR-60" vertex="1">
          <mxGeometry y="56" width="160" height="30" as="geometry" />
        </mxCell>
        <mxCell id="_GabCLZ9DPHG4MrxhawR-63" value="Описание" style="text;strokeColor=none;fillColor=none;spacingLeft=4;spacingRight=4;overflow=hidden;rotatable=0;points=[[0,0.5],[1,0.5]];portConstraint=eastwest;fontSize=12;whiteSpace=wrap;html=1;" parent="_GabCLZ9DPHG4MrxhawR-60" vertex="1">
          <mxGeometry y="86" width="160" height="30" as="geometry" />
        </mxCell>
        <mxCell id="_GabCLZ9DPHG4MrxhawR-64" value="Фотографии" style="text;strokeColor=none;fillColor=none;spacingLeft=4;spacingRight=4;overflow=hidden;rotatable=0;points=[[0,0.5],[1,0.5]];portConstraint=eastwest;fontSize=12;whiteSpace=wrap;html=1;" parent="_GabCLZ9DPHG4MrxhawR-60" vertex="1">
          <mxGeometry y="116" width="160" height="30" as="geometry" />
        </mxCell>
        <mxCell id="_GabCLZ9DPHG4MrxhawR-65" value="Тип" style="text;strokeColor=none;fillColor=none;spacingLeft=4;spacingRight=4;overflow=hidden;rotatable=0;points=[[0,0.5],[1,0.5]];portConstraint=eastwest;fontSize=12;whiteSpace=wrap;html=1;" parent="_GabCLZ9DPHG4MrxhawR-60" vertex="1">
          <mxGeometry y="146" width="160" height="30" as="geometry" />
        </mxCell>
        <mxCell id="_GabCLZ9DPHG4MrxhawR-66" value="Пол" style="text;strokeColor=none;fillColor=none;spacingLeft=4;spacingRight=4;overflow=hidden;rotatable=0;points=[[0,0.5],[1,0.5]];portConstraint=eastwest;fontSize=12;whiteSpace=wrap;html=1;" parent="_GabCLZ9DPHG4MrxhawR-60" vertex="1">
          <mxGeometry y="176" width="160" height="30" as="geometry" />
        </mxCell>
        <mxCell id="_GabCLZ9DPHG4MrxhawR-67" value="Возраст" style="text;strokeColor=none;fillColor=none;spacingLeft=4;spacingRight=4;overflow=hidden;rotatable=0;points=[[0,0.5],[1,0.5]];portConstraint=eastwest;fontSize=12;whiteSpace=wrap;html=1;" parent="_GabCLZ9DPHG4MrxhawR-60" vertex="1">
          <mxGeometry y="206" width="160" height="30" as="geometry" />
        </mxCell>
        <mxCell id="_GabCLZ9DPHG4MrxhawR-68" value="Диета" style="text;strokeColor=none;fillColor=none;spacingLeft=4;spacingRight=4;overflow=hidden;rotatable=0;points=[[0,0.5],[1,0.5]];portConstraint=eastwest;fontSize=12;whiteSpace=wrap;html=1;" parent="_GabCLZ9DPHG4MrxhawR-60" vertex="1">
          <mxGeometry y="236" width="160" height="30" as="geometry" />
        </mxCell>
        <mxCell id="_GabCLZ9DPHG4MrxhawR-69" value="Физическая активность" style="text;strokeColor=none;fillColor=none;spacingLeft=4;spacingRight=4;overflow=hidden;rotatable=0;points=[[0,0.5],[1,0.5]];portConstraint=eastwest;fontSize=12;whiteSpace=wrap;html=1;" parent="_GabCLZ9DPHG4MrxhawR-60" vertex="1">
          <mxGeometry y="266" width="160" height="30" as="geometry" />
        </mxCell>
        <mxCell id="_GabCLZ9DPHG4MrxhawR-70" value="Контакт с посторонними" style="text;strokeColor=none;fillColor=none;spacingLeft=4;spacingRight=4;overflow=hidden;rotatable=0;points=[[0,0.5],[1,0.5]];portConstraint=eastwest;fontSize=12;whiteSpace=wrap;html=1;" parent="_GabCLZ9DPHG4MrxhawR-60" vertex="1">
          <mxGeometry y="296" width="160" height="30" as="geometry" />
        </mxCell>
        <mxCell id="_GabCLZ9DPHG4MrxhawR-71" value="Уход" style="text;strokeColor=none;fillColor=none;spacingLeft=4;spacingRight=4;overflow=hidden;rotatable=0;points=[[0,0.5],[1,0.5]];portConstraint=eastwest;fontSize=12;whiteSpace=wrap;html=1;" parent="_GabCLZ9DPHG4MrxhawR-60" vertex="1">
          <mxGeometry y="326" width="160" height="30" as="geometry" />
        </mxCell>
        <mxCell id="_GabCLZ9DPHG4MrxhawR-72" value="Лечение" style="text;strokeColor=none;fillColor=none;spacingLeft=4;spacingRight=4;overflow=hidden;rotatable=0;points=[[0,0.5],[1,0.5]];portConstraint=eastwest;fontSize=12;whiteSpace=wrap;html=1;" parent="_GabCLZ9DPHG4MrxhawR-60" vertex="1">
          <mxGeometry y="356" width="160" height="30" as="geometry" />
        </mxCell>
        <mxCell id="_GabCLZ9DPHG4MrxhawR-73" value="Лакомство" style="text;strokeColor=none;fillColor=none;spacingLeft=4;spacingRight=4;overflow=hidden;rotatable=0;points=[[0,0.5],[1,0.5]];portConstraint=eastwest;fontSize=12;whiteSpace=wrap;html=1;" parent="_GabCLZ9DPHG4MrxhawR-60" vertex="1">
          <mxGeometry y="386" width="160" height="30" as="geometry" />
        </mxCell>
        <mxCell id="_GabCLZ9DPHG4MrxhawR-74" value="Прогулки" style="text;strokeColor=none;fillColor=none;spacingLeft=4;spacingRight=4;overflow=hidden;rotatable=0;points=[[0,0.5],[1,0.5]];portConstraint=eastwest;fontSize=12;whiteSpace=wrap;html=1;" parent="_GabCLZ9DPHG4MrxhawR-60" vertex="1">
          <mxGeometry y="416" width="160" height="30" as="geometry" />
        </mxCell>
        <mxCell id="_GabCLZ9DPHG4MrxhawR-75" value="Время кормления" style="text;strokeColor=none;fillColor=none;spacingLeft=4;spacingRight=4;overflow=hidden;rotatable=0;points=[[0,0.5],[1,0.5]];portConstraint=eastwest;fontSize=12;whiteSpace=wrap;html=1;" parent="_GabCLZ9DPHG4MrxhawR-60" vertex="1">
          <mxGeometry y="446" width="160" height="30" as="geometry" />
        </mxCell>
        <mxCell id="_GabCLZ9DPHG4MrxhawR-102" style="edgeStyle=orthogonalEdgeStyle;rounded=0;orthogonalLoop=1;jettySize=auto;html=1;startArrow=ERmandOne;startFill=0;endArrow=ERzeroToMany;endFill=0;" parent="1" source="_GabCLZ9DPHG4MrxhawR-76" target="_GabCLZ9DPHG4MrxhawR-80" edge="1">
          <mxGeometry relative="1" as="geometry" />
        </mxCell>
        <mxCell id="_GabCLZ9DPHG4MrxhawR-76" value="Бронирование" style="swimlane;fontStyle=0;childLayout=stackLayout;horizontal=1;startSize=26;horizontalStack=0;resizeParent=1;resizeParentMax=0;resizeLast=0;collapsible=1;marginBottom=0;align=center;fontSize=14;" parent="1" vertex="1">
          <mxGeometry x="-820" y="1750" width="210" height="86" as="geometry" />
        </mxCell>
        <mxCell id="_GabCLZ9DPHG4MrxhawR-77" value="Карточка передержки животного" style="text;strokeColor=none;fillColor=none;spacingLeft=4;spacingRight=4;overflow=hidden;rotatable=0;points=[[0,0.5],[1,0.5]];portConstraint=eastwest;fontSize=12;whiteSpace=wrap;html=1;" parent="_GabCLZ9DPHG4MrxhawR-76" vertex="1">
          <mxGeometry y="26" width="210" height="30" as="geometry" />
        </mxCell>
        <mxCell id="_GabCLZ9DPHG4MrxhawR-78" value="Опекун" style="text;strokeColor=none;fillColor=none;spacingLeft=4;spacingRight=4;overflow=hidden;rotatable=0;points=[[0,0.5],[1,0.5]];portConstraint=eastwest;fontSize=12;whiteSpace=wrap;html=1;" parent="_GabCLZ9DPHG4MrxhawR-76" vertex="1">
          <mxGeometry y="56" width="210" height="30" as="geometry" />
        </mxCell>
        <mxCell id="_GabCLZ9DPHG4MrxhawR-80" value="Отчет" style="swimlane;fontStyle=0;childLayout=stackLayout;horizontal=1;startSize=26;horizontalStack=0;resizeParent=1;resizeParentMax=0;resizeLast=0;collapsible=1;marginBottom=0;align=center;fontSize=14;" parent="1" vertex="1">
          <mxGeometry x="-795" y="1900" width="160" height="86" as="geometry" />
        </mxCell>
        <mxCell id="_GabCLZ9DPHG4MrxhawR-81" value="Отчет" style="text;strokeColor=none;fillColor=none;spacingLeft=4;spacingRight=4;overflow=hidden;rotatable=0;points=[[0,0.5],[1,0.5]];portConstraint=eastwest;fontSize=12;whiteSpace=wrap;html=1;" parent="_GabCLZ9DPHG4MrxhawR-80" vertex="1">
          <mxGeometry y="26" width="160" height="30" as="geometry" />
        </mxCell>
        <mxCell id="_GabCLZ9DPHG4MrxhawR-82" value="Время" style="text;strokeColor=none;fillColor=none;spacingLeft=4;spacingRight=4;overflow=hidden;rotatable=0;points=[[0,0.5],[1,0.5]];portConstraint=eastwest;fontSize=12;whiteSpace=wrap;html=1;" parent="_GabCLZ9DPHG4MrxhawR-80" vertex="1">
          <mxGeometry y="56" width="160" height="30" as="geometry" />
        </mxCell>
        <mxCell id="_GabCLZ9DPHG4MrxhawR-85" value="Карточка передержки животного" style="swimlane;fontStyle=0;childLayout=stackLayout;horizontal=1;startSize=26;horizontalStack=0;resizeParent=1;resizeParentMax=0;resizeLast=0;collapsible=1;marginBottom=0;align=center;fontSize=14;" parent="1" vertex="1">
          <mxGeometry x="-400" y="1950" width="240" height="116" as="geometry" />
        </mxCell>
        <mxCell id="_GabCLZ9DPHG4MrxhawR-86" value="&lt;table&gt;&lt;tbody&gt;&lt;tr&gt;&lt;td&gt;Начало периода передержки&lt;/td&gt;&lt;/tr&gt;&lt;/tbody&gt;&lt;/table&gt;" style="text;strokeColor=none;fillColor=none;spacingLeft=4;spacingRight=4;overflow=hidden;rotatable=0;points=[[0,0.5],[1,0.5]];portConstraint=eastwest;fontSize=12;whiteSpace=wrap;html=1;" parent="_GabCLZ9DPHG4MrxhawR-85" vertex="1">
          <mxGeometry y="26" width="240" height="30" as="geometry" />
        </mxCell>
        <mxCell id="_GabCLZ9DPHG4MrxhawR-87" value="Конец периода передержки" style="text;strokeColor=none;fillColor=none;spacingLeft=4;spacingRight=4;overflow=hidden;rotatable=0;points=[[0,0.5],[1,0.5]];portConstraint=eastwest;fontSize=12;whiteSpace=wrap;html=1;" parent="_GabCLZ9DPHG4MrxhawR-85" vertex="1">
          <mxGeometry y="56" width="240" height="30" as="geometry" />
        </mxCell>
        <mxCell id="_GabCLZ9DPHG4MrxhawR-88" value="Частота отчетности" style="text;strokeColor=none;fillColor=none;spacingLeft=4;spacingRight=4;overflow=hidden;rotatable=0;points=[[0,0.5],[1,0.5]];portConstraint=eastwest;fontSize=12;whiteSpace=wrap;html=1;" parent="_GabCLZ9DPHG4MrxhawR-85" vertex="1">
          <mxGeometry y="86" width="240" height="30" as="geometry" />
        </mxCell>
        <mxCell id="_GabCLZ9DPHG4MrxhawR-89" style="edgeStyle=orthogonalEdgeStyle;rounded=0;orthogonalLoop=1;jettySize=auto;html=1;entryX=1;entryY=0.091;entryDx=0;entryDy=0;entryPerimeter=0;exitX=0.5;exitY=0;exitDx=0;exitDy=0;endArrow=ERzeroToMany;endFill=0;startArrow=ERmandOne;startFill=0;" parent="1" source="_GabCLZ9DPHG4MrxhawR-48" target="yk6rwAeMMAsCp1-vcvuz-33" edge="1">
          <mxGeometry relative="1" as="geometry" />
        </mxCell>
        <mxCell id="_GabCLZ9DPHG4MrxhawR-90" style="edgeStyle=orthogonalEdgeStyle;rounded=0;orthogonalLoop=1;jettySize=auto;html=1;startArrow=ERmandOne;startFill=0;endArrow=ERzeroToMany;endFill=0;" parent="1" edge="1">
          <mxGeometry relative="1" as="geometry">
            <mxPoint x="-991" y="1395" as="sourcePoint" />
            <mxPoint x="-795" y="877" as="targetPoint" />
            <Array as="points">
              <mxPoint x="-1072" y="1395" />
              <mxPoint x="-1072" y="877" />
              <mxPoint x="-864" y="877" />
              <mxPoint x="-842" y="878" />
            </Array>
          </mxGeometry>
        </mxCell>
        <mxCell id="_GabCLZ9DPHG4MrxhawR-96" style="edgeStyle=orthogonalEdgeStyle;rounded=0;orthogonalLoop=1;jettySize=auto;html=1;endArrow=ERmandOne;endFill=0;startArrow=ERzeroToOne;startFill=0;" parent="1" edge="1">
          <mxGeometry relative="1" as="geometry">
            <mxPoint x="-600" y="1400" as="sourcePoint" />
            <mxPoint x="-640" y="1400" as="targetPoint" />
            <Array as="points">
              <mxPoint x="-584" y="1400" />
              <mxPoint x="-635" y="1400" />
            </Array>
          </mxGeometry>
        </mxCell>
        <mxCell id="_GabCLZ9DPHG4MrxhawR-97" style="edgeStyle=orthogonalEdgeStyle;rounded=0;orthogonalLoop=1;jettySize=auto;html=1;entryX=-0.001;entryY=0.032;entryDx=0;entryDy=0;entryPerimeter=0;exitX=0.996;exitY=0.06;exitDx=0;exitDy=0;exitPerimeter=0;startArrow=ERzeroToOne;startFill=0;endArrow=ERmandOne;endFill=0;" parent="1" source="_GabCLZ9DPHG4MrxhawR-13" target="_GabCLZ9DPHG4MrxhawR-30" edge="1">
          <mxGeometry relative="1" as="geometry" />
        </mxCell>
        <mxCell id="_GabCLZ9DPHG4MrxhawR-98" style="edgeStyle=orthogonalEdgeStyle;rounded=0;orthogonalLoop=1;jettySize=auto;html=1;entryX=0.004;entryY=0.029;entryDx=0;entryDy=0;entryPerimeter=0;exitX=1;exitY=0.25;exitDx=0;exitDy=0;startArrow=ERmandOne;startFill=0;endArrow=ERzeroToMany;endFill=0;" parent="1" source="_GabCLZ9DPHG4MrxhawR-48" target="_GabCLZ9DPHG4MrxhawR-60" edge="1">
          <mxGeometry relative="1" as="geometry" />
        </mxCell>
        <mxCell id="_GabCLZ9DPHG4MrxhawR-99" style="edgeStyle=orthogonalEdgeStyle;rounded=0;orthogonalLoop=1;jettySize=auto;html=1;entryX=0.499;entryY=0.984;entryDx=0;entryDy=0;entryPerimeter=0;startArrow=ERmandOne;startFill=0;endArrow=ERmandOne;endFill=0;" parent="1" source="_GabCLZ9DPHG4MrxhawR-85" target="_GabCLZ9DPHG4MrxhawR-75" edge="1">
          <mxGeometry relative="1" as="geometry" />
        </mxCell>
        <mxCell id="_GabCLZ9DPHG4MrxhawR-100" style="edgeStyle=orthogonalEdgeStyle;rounded=0;orthogonalLoop=1;jettySize=auto;html=1;entryX=0.375;entryY=1.009;entryDx=0;entryDy=0;entryPerimeter=0;startArrow=ERoneToMany;startFill=0;endArrow=ERmandOne;endFill=0;" parent="1" target="_GabCLZ9DPHG4MrxhawR-27" edge="1">
          <mxGeometry relative="1" as="geometry">
            <mxPoint x="-820" y="1765" as="sourcePoint" />
            <mxPoint x="-930" y="1570" as="targetPoint" />
            <Array as="points">
              <mxPoint x="-930" y="1765" />
            </Array>
          </mxGeometry>
        </mxCell>
        <mxCell id="_GabCLZ9DPHG4MrxhawR-101" style="edgeStyle=orthogonalEdgeStyle;rounded=0;orthogonalLoop=1;jettySize=auto;html=1;entryX=1;entryY=0.116;entryDx=0;entryDy=0;entryPerimeter=0;startArrow=ERmandOne;startFill=0;endArrow=ERmandOne;endFill=0;exitX=0;exitY=0.164;exitDx=0;exitDy=0;exitPerimeter=0;" parent="1" source="_GabCLZ9DPHG4MrxhawR-85" target="_GabCLZ9DPHG4MrxhawR-76" edge="1">
          <mxGeometry relative="1" as="geometry">
            <Array as="points">
              <mxPoint x="-505" y="1970" />
              <mxPoint x="-505" y="1760" />
            </Array>
          </mxGeometry>
        </mxCell>
        <mxCell id="_GabCLZ9DPHG4MrxhawR-103" value="" style="ellipse;whiteSpace=wrap;html=1;aspect=fixed;" parent="1" vertex="1">
          <mxGeometry as="geometry" />
        </mxCell>
        <mxCell id="_GabCLZ9DPHG4MrxhawR-104" value="" style="ellipse;whiteSpace=wrap;html=1;aspect=fixed;fillColor=none;strokeColor=#2B2B2B;" parent="1" vertex="1">
          <mxGeometry x="-794" y="576" width="8" height="8" as="geometry" />
        </mxCell>
      </root>
    </mxGraphModel>
  </diagram>
  <diagram id="r-WL6tegu-3FI8mcbZvF" name="Страница — 2">
    <mxGraphModel dx="7000" dy="3780" grid="1" gridSize="10" guides="1" tooltips="1" connect="1" arrows="1" fold="1" page="1" pageScale="1" pageWidth="827" pageHeight="1169" math="0" shadow="0">
      <root>
        <mxCell id="0" />
        <mxCell id="1" parent="0" />
        <mxCell id="Vbx_Bbt4nrZttlH9aSE9-1" value="&#xa;    &#xa;        &#xa;        &#xa;        &#xa;        &#xa;        &#xa;        &#xa;        &#xa;        &#xa;        &#xa;    &lt;table name=&quot;User&quot;&gt;&#xa;        &lt;/table&gt;&#xa;&#xa;    &#xa;        &#xa;        &#xa;    &lt;table name=&quot;Owner&quot;&gt;&#xa;        &lt;/table&gt;&#xa;&#xa;    &#xa;        &#xa;        &#xa;        &#xa;        &#xa;    &lt;table name=&quot;PetSitter&quot;&gt;&#xa;        &lt;/table&gt;&#xa;&#xa;    &#xa;        &#xa;        &#xa;    &lt;table name=&quot;AvailableDates&quot;&gt;&#xa;        &lt;/table&gt;&#xa;&#xa;    &#xa;        &#xa;        &#xa;    &lt;table name=&quot;ServiceOffered&quot;&gt;&#xa;        &lt;/table&gt;&#xa;&#xa;    &#xa;        &#xa;        &#xa;        &#xa;        &#xa;        &#xa;        &#xa;        &#xa;        &#xa;        &#xa;        &#xa;        &#xa;        &#xa;        &#xa;        &#xa;        &#xa;        &#xa;        &#xa;    &lt;table name=&quot;Pet&quot;&gt;&#xa;        &lt;/table&gt;&#xa;&#xa;    &#xa;        &#xa;        &#xa;    &lt;table name=&quot;PetPhoto&quot;&gt;&#xa;        &lt;/table&gt;&#xa;&#xa;    &#xa;        &#xa;        &#xa;        &#xa;    &lt;table name=&quot;PetSitterCard&quot;&gt;&#xa;        &lt;/table&gt;&#xa;&#xa;    &#xa;        &#xa;        &#xa;        &#xa;        &#xa;    &lt;table name=&quot;Review&quot;&gt;&#xa;        &lt;/table&gt;&#xa;&#xa;    &#xa;        &#xa;        &#xa;        &#xa;        &#xa;        &#xa;        &#xa;    &lt;table name=&quot;Booking&quot;&gt;&#xa;        &lt;/table&gt;&#xa;&#xa;    &#xa;        &#xa;    &lt;table name=&quot;Chat&quot;&gt;&#xa;        &lt;/table&gt;&#xa;&#xa;    &#xa;        &#xa;        &#xa;        &#xa;        &#xa;    &lt;table name=&quot;Message&quot;&gt;&#xa;        &lt;/table&gt;&#xa;&#xa;    &#xa;        &#xa;        &#xa;        &#xa;    &lt;table name=&quot;Report&quot;&gt;&#xa;        &lt;/table&gt;&#xa;&#xa;    &#xa;        &#xa;        &#xa;        &#xa;    &lt;table name=&quot;ReportMedia&quot;&gt;&#xa;        &lt;/table&gt;&#xa;&#xa;    &#xa;        &#xa;        &#xa;        &#xa;        &#xa;    &lt;table name=&quot;Payment&quot;&gt;&#xa;        &lt;/table&gt;&#xa;&#xa;    &#xa;        &#xa;        &#xa;        &#xa;    &lt;table name=&quot;Location&quot;&gt;&#xa;        &lt;/table&gt;&#xa;&#xa;    &#xa;        &#xa;        &#xa;    &lt;table name=&quot;PetSitterFeed&quot;&gt;&#xa;        &lt;/table&gt;&#xa;&#xa;    &#xa;        &#xa;        &#xa;    &lt;table name=&quot;PetFeed&quot;&gt;&#xa;        &lt;/table&gt;&#xa;&#xa;    &#xa;        &#xa;        &#xa;        &#xa;        &#xa;        &#xa;        &#xa;        &#xa;    &lt;table name=&quot;ReviewAndRating&quot;&gt;&#xa;        &lt;/table&gt;&#xa;" style="text;whiteSpace=wrap;html=1;" vertex="1" parent="1">
          <mxGeometry width="1190" height="2270" as="geometry" />
        </mxCell>
      </root>
    </mxGraphModel>
  </diagram>
</mxfile>
